<svg version="1.1" viewBox="0.0 0.0 673.5774278215223 360.0" fill="none" stroke="none" stroke-linecap="square" stroke-miterlimit="10" xmlns:xlink="http://www.w3.org/1999/xlink" xmlns="http://www.w3.org/2000/svg"><clipPath id="p.0"><path d="m0 0l673.57745 0l0 360.0l-673.57745 0l0 -360.0z" clip-rule="nonzero"/></clipPath><g clip-path="url(#p.0)"><path fill="#000000" fill-opacity="0.0" d="m0 0l673.57745 0l0 360.0l-673.57745 0z" fill-rule="evenodd"/><path fill="#000000" fill-opacity="0.0" d="m60.598427 69.98425l251.40158 0l0 42.015747l-251.40158 0z" fill-rule="evenodd"/><path stroke="#ffffff" stroke-width="1.0" stroke-linejoin="round" stroke-linecap="butt" d="m60.598427 69.98425l251.40158 0l0 42.015747l-251.40158 0z" fill-rule="evenodd"/><path fill="#ffffff" d="m85.62968 83.623q2.671875 2.671875 2.671875 6.453125q0 3.78125 -2.671875 6.453125q-2.671875 2.671875 -6.453125 2.671875q-3.78125 0 -6.453125 -2.671875q-2.671875 -2.671875 -2.671875 -6.453125q0 -3.78125 2.671875 -6.453125q2.671875 -2.671875 6.453125 -2.671875q3.78125 0 6.453125 2.671875zm-0.515625 12.390625q2.453125 -2.453125 2.453125 -5.9375q0 -3.484375 -2.453125 -5.9375q-2.453125 -2.453125 -5.9375 -2.453125q-3.484375 0 -5.9375 2.453125q-2.453125 2.453125 -2.453125 5.9375q0 3.484375 2.453125 5.9375q2.453125 2.453125 5.9375 2.453125q3.484375 0 5.9375 -2.453125zm-4.828125 -12.390625l0 12.6875l-1.703125 0l0 -9.953125l-2.890625 0l0 -1.1875q2.734375 0.15625 3.484375 -1.546875l1.109375 0zm16.84375 14.625q-2.296875 0 -4.21875 -1.796875q-0.890625 1.046875 -2.75 2.09375l-0.59375 -1.859375q0.8125 -0.234375 2.515625 -1.34375l0 -4.828125l-2.296875 0l0 -1.40625l3.78125 0l0 6.15625q1.484375 1.34375 3.859375 1.34375l9.203125 0l-0.296875 1.640625l-9.203125 0zm1.046875 -14.40625q1.859375 0.4375 2.375 0.671875l1.40625 -1.046875l-6.828125 0l0 -1.40625l8.46875 0l0.359375 -0.21875l1.125 0.8125q0.4375 0.375 -0.375 0.4375l-2.890625 1.9375l0.953125 0.4375l-0.890625 0.890625l3.34375 0l0 8.46875q0 1.03125 -1.03125 1.03125l-1.640625 0l-0.078125 -1.40625l0.96875 0q0.296875 0 0.296875 -0.296875l0 -1.40625l-2.8125 0l0 2.890625l-1.484375 0l0 -2.890625l-2.671875 0l0 3.1875l-1.484375 0l0 -9.578125l5.484375 0q-3.109375 -1.25 -3.703125 -1.40625l1.109375 -1.109375zm2.75 3.703125l0 1.421875l2.8125 0l0 -1.421875l-2.8125 0zm-4.15625 0l0 1.421875l2.671875 0l0 -1.421875l-2.671875 0zm2.671875 2.609375l-2.671875 0l0 1.40625l2.671875 0l0 -1.40625zm4.296875 0l-2.8125 0l0 1.40625l2.8125 0l0 -1.40625zm-12.09375 -8.25q2.0 1.265625 2.75 2.453125l-1.265625 1.34375q-1.1875 -1.484375 -2.53125 -2.53125l1.046875 -1.265625zm28.9375 14.109375l1.484375 0q0.296875 0 0.296875 -0.296875l0 -2.0l-4.515625 0l0 4.59375l-1.484375 0l0 -4.59375l-4.234375 0l0 3.640625l-1.484375 0l0 -5.0625l5.71875 0l0 -1.1875l-1.9375 0l-1.921875 0l0 -4.078125l9.046875 0l0 4.078125l-3.703125 0l0 1.1875l6.0 0l0 4.09375q0 1.03125 -1.03125 1.03125l-1.9375 0l-0.296875 -1.40625zm-7.421875 -11.28125q-0.65625 -1.109375 -1.625 -1.859375l1.1875 -0.96875q1.1875 0.75 1.859375 2.015625l-1.125 0.8125l2.90625 0l0 -3.265625l1.40625 0q0.59375 0.078125 0.078125 0.4375l0 2.828125l2.8125 0l-1.1875 -0.75l1.484375 -2.296875l1.34375 0.8125q0.515625 0.375 -0.15625 0.375l-1.265625 1.859375l4.15625 0l0 3.484375l-1.484375 0l0 -2.296875l-13.0625 0l0 2.59375l-1.484375 0l0 -3.78125l4.15625 0zm6.90625 3.484375l-6.078125 0l0 1.703125l6.078125 0l0 -1.703125zm21.749992 8.46875l-6.453125 0q-1.859375 0 -1.859375 -1.9375l0 -4.0l-5.9374924 0l0 -1.640625l5.9374924 0l0 -3.40625l-4.53125 0l0 -1.640625l11.796875 0l0 1.640625l-5.5625 0l0 3.40625l7.421875 0l0 1.640625l-7.421875 0l0 3.40625q0 0.890625 0.8125 0.890625l5.875 0l-0.078125 1.640625zm2.7421875 -5.875l0 -1.625l16.546875 0l0 1.625l-16.546875 0zm27.757812 1.71875q-3.9375 -2.015625 -6.453125 -2.671875l0 7.71875l-1.703125 0l0 -14.84375l1.484375 0q0.890625 0.0625 0.21875 0.59375l0 4.671875q3.640625 1.03125 7.34375 2.8125l-0.890625 1.71875zm-0.140625 -6.53125q-1.265625 -1.5625 -2.53125 -2.53125l0.96875 -0.734375q1.265625 0.953125 2.515625 2.515625l-0.953125 0.75zm1.78125 -1.421875q-0.96875 -1.25 -2.453125 -2.4375l0.96875 -0.75q1.25 0.890625 2.4375 2.453125l-0.953125 0.734375z" fill-rule="nonzero"/><path fill="#000000" fill-opacity="0.0" d="m60.598427 133.98425l243.40158 0l0 42.015747l-243.40158 0z" fill-rule="evenodd"/><path stroke="#ffffff" stroke-width="1.0" stroke-linejoin="round" stroke-linecap="butt" d="m60.598427 133.98425l243.40158 0l0 42.015747l-243.40158 0z" fill-rule="evenodd"/><path fill="#ffffff" d="m83.03593 151.1855q0 1.484375 -1.046875 2.671875q-0.890625 0.8125 -2.296875 1.84375q-2.515625 1.859375 -2.890625 2.96875l6.609375 0l0 1.640625l-8.546875 0l0 -1.484375q0.75 -1.78125 2.671875 -3.34375q2.078125 -1.625 2.90625 -2.453125q0.8125 -0.734375 0.8125 -1.84375q0 -0.96875 -0.671875 -1.640625q-0.4375 -0.4375 -1.484375 -0.4375q-1.03125 0 -1.484375 0.4375q-0.671875 0.671875 -0.515625 1.859375l-1.859375 0q-0.078125 -1.78125 0.96875 -2.828125q1.109375 -1.109375 2.890625 -1.109375q1.78125 0 2.828125 1.046875q1.109375 1.109375 1.109375 2.671875zm2.59375 -3.5625q2.671875 2.671875 2.671875 6.453125q0 3.78125 -2.671875 6.453125q-2.671875 2.671875 -6.453125 2.671875q-3.78125 0 -6.453125 -2.671875q-2.671875 -2.671875 -2.671875 -6.453125q0 -3.78125 2.671875 -6.453125q2.671875 -2.671875 6.453125 -2.671875q3.78125 0 6.453125 2.671875zm-0.515625 12.390625q2.453125 -2.453125 2.453125 -5.9375q0 -3.484375 -2.453125 -5.9375q-2.453125 -2.453125 -5.9375 -2.453125q-3.484375 0 -5.9375 2.453125q-2.453125 2.453125 -2.453125 5.9375q0 3.484375 2.453125 5.9375q2.453125 2.453125 5.9375 2.453125q3.484375 0 5.9375 -2.453125zm16.40625 -6.6875q2.671875 2.828125 4.0 5.203125l-1.625 1.109375q-1.5625 -2.75 -3.796875 -5.125l1.421875 -1.1875zm-3.5625 -3.1875l6.828125 0l0 1.640625l-6.828125 0l0 10.3125l-1.71875 0l0 -10.3125l-6.671875 0l0 -1.640625l6.671875 0l0 -4.15625l1.5625 0q0.8125 0.15625 0.15625 0.59375l0 3.5625zm-3.9375 4.078125q0.4375 0.375 -0.296875 0.53125q-1.109375 2.4375 -2.828125 5.109375l-1.625 -0.890625q1.859375 -2.671875 3.109375 -5.640625l1.640625 0.890625zm8.984375 -4.890625q-1.34375 -1.40625 -2.453125 -2.296875l0.890625 -0.890625q1.265625 0.953125 2.453125 2.21875l-0.890625 0.96875zm2.078125 -1.046875q-1.34375 -1.484375 -2.453125 -2.4375l0.96875 -0.828125q1.25 0.96875 2.4375 2.375l-0.953125 0.890625zm8.90625 -1.1875q-0.296875 0.890625 -0.75 1.71875l4.96875 0l0.828125 -0.296875l0.953125 0.953125q0.296875 0.375 -0.296875 0.59375q-0.59375 2.96875 -1.78125 5.421875l1.78125 1.1875l-1.109375 1.640625l-1.625 -1.1875q-2.15625 3.109375 -6.171875 5.125l-1.703125 -1.265625q4.453125 -1.859375 6.390625 -4.90625q-1.859375 -1.1875 -3.640625 -2.15625l0.890625 -1.328125q2.296875 1.03125 3.78125 1.921875q1.109375 -2.296875 1.34375 -4.078125l-5.421875 0q-1.40625 2.53125 -3.484375 4.609375l-1.421875 -0.96875q3.796875 -3.9375 4.984375 -8.3125l1.78125 0.734375q0.59375 0.296875 -0.296875 0.59375zm22.703117 5.203125q-3.9375 8.15625 -13.203117 8.609375q-0.375 0.96875 -0.75 0.15625l-0.59375 -1.9375q9.656242 -0.21875 12.984367 -7.9375l1.5625 1.109375zm-10.468742 0q-2.0 -1.859375 -3.78125 -3.046875l1.265625 -1.5625q1.5625 0.96875 3.9375 3.203125l-1.421875 1.40625zm15.371086 6.90625q6.828125 -1.265625 9.9375 -6.90625l1.265625 1.265625q-3.5625 6.234375 -11.875 7.640625l-1.1875 -0.890625l0.15625 -0.453125l0 -12.3125l1.625 0q0.671875 0.078125 0.078125 0.515625l0 11.140625zm13.3515625 -3.71875q7.796875 -3.265625 11.8125 -9.203125l1.40625 1.1875q0.59375 0.453125 -0.515625 0.671875q-1.421875 1.859375 -3.640625 3.78125l0 10.09375l-1.703125 0l0 -8.6875q-2.609375 2.015625 -6.09375 3.640625l-1.265625 -1.484375zm23.613281 -2.15625q0.140625 5.640625 -4.828125 8.765625l-1.265625 -1.40625q4.375 -2.375 4.375 -6.6875l0 -3.1875l1.5625 0q0.671875 0.078125 0.15625 0.515625l0 1.9375q2.671875 -2.015625 4.078125 -3.9375l-12.09375 0.4375l-0.15625 -1.703125l13.515625 -0.375l0.515625 -0.140625l1.109375 1.328125q0.21875 0.296875 -0.375 0.234375q-2.21875 2.890625 -5.34375 5.40625l-1.25 -1.1875zm23.898438 -2.890625q0 8.09375 -7.796875 11.953125l-1.40625 -1.40625q7.1875 -3.265625 7.265625 -9.796875l-10.3125 0l0.140625 4.375l-1.703125 0l-0.21875 -6.015625l5.859375 0l0 -3.703125l1.484375 0q0.890625 0.0625 0.21875 0.59375l0 3.109375l5.578125 0l0.890625 0.890625zm6.0742188 1.5625q3.640625 1.03125 7.359375 2.8125l-0.890625 1.71875q-3.9375 -2.015625 -6.46875 -2.671875l0 7.71875l-1.703125 0l0 -14.84375l1.484375 0q0.890625 0.0625 0.21875 0.59375l0 4.671875zm23.460938 8.6875l-6.453125 0q-1.859375 0 -1.859375 -1.9375l0 -4.0l-5.9375 0l0 -1.640625l5.9375 0l0 -3.40625l-4.53125 0l0 -1.640625l11.796875 0l0 1.640625l-5.5625 0l0 3.40625l7.421875 0l0 1.640625l-7.421875 0l0 3.40625q0 0.890625 0.8125 0.890625l5.875 0l-0.078125 1.640625zm2.7421875 -5.875l0 -1.625l16.546875 0l0 1.625l-16.546875 0zm27.757812 1.71875q-3.9375 -2.015625 -6.453125 -2.671875l0 7.71875l-1.703125 0l0 -14.84375l1.484375 0q0.890625 0.0625 0.21875 0.59375l0 4.671875q3.640625 1.03125 7.34375 2.8125l-0.890625 1.71875zm-0.140625 -6.53125q-1.265625 -1.5625 -2.53125 -2.53125l0.96875 -0.734375q1.265625 0.953125 2.515625 2.515625l-0.953125 0.75zm1.78125 -1.421875q-0.96875 -1.25 -2.453125 -2.4375l0.96875 -0.75q1.25 0.890625 2.4375 2.453125l-0.953125 0.734375z" fill-rule="nonzero"/><path fill="#000000" fill-opacity="0.0" d="m60.598427 197.98425l227.40158 0l0 42.015747l-227.40158 0z" fill-rule="evenodd"/><path stroke="#ffffff" stroke-width="1.0" stroke-linejoin="round" stroke-linecap="butt" d="m60.598427 197.98425l227.40158 0l0 42.015747l-227.40158 0z" fill-rule="evenodd"/><path fill="#ffffff" d="m85.62968 211.623q2.671875 2.671875 2.671875 6.453125q0 3.78125 -2.671875 6.453125q-2.671875 2.671875 -6.453125 2.671875q-3.78125 0 -6.453125 -2.671875q-2.671875 -2.671875 -2.671875 -6.453125q0 -3.78125 2.671875 -6.453125q2.671875 -2.671875 6.453125 -2.671875q3.78125 0 6.453125 2.671875zm-0.515625 12.390625q2.453125 -2.453125 2.453125 -5.9375q0 -3.484375 -2.453125 -5.9375q-2.453125 -2.453125 -5.9375 -2.453125q-3.484375 0 -5.9375 2.453125q-2.453125 2.453125 -2.453125 5.9375q0 3.484375 2.453125 5.9375q2.453125 2.453125 5.9375 2.453125q3.484375 0 5.9375 -2.453125zm-7.203125 -7.203125q2.0 0.078125 2.59375 -0.515625q0.53125 -0.515625 0.53125 -1.40625q0 -0.890625 -0.59375 -1.484375q-0.453125 -0.453125 -1.421875 -0.453125q-1.03125 0 -1.625 0.59375q-0.515625 0.515625 -0.671875 1.109375l-1.921875 0q0.296875 -1.1875 1.109375 -2.0q1.1875 -1.1875 3.1875 -1.1875q1.78125 0 2.828125 1.046875q0.890625 0.890625 0.890625 2.140625q0 1.34375 -0.671875 2.015625q-0.8125 0.8125 -1.78125 0.953125q1.328125 0.296875 1.921875 0.890625q0.890625 0.890625 0.890625 2.15625q0 1.640625 -1.03125 2.671875q-1.1875 1.1875 -3.265625 1.1875q-2.0 0 -3.046875 -1.03125q-0.890625 -0.890625 -1.03125 -2.375l1.84375 0q0.078125 0.8125 0.53125 1.25q0.59375 0.59375 1.703125 0.59375q1.1875 0 1.859375 -0.65625q0.59375 -0.59375 0.59375 -1.5625q0 -1.046875 -0.59375 -1.640625q-0.75 -0.734375 -2.828125 -0.734375l0 -1.5625zm28.796875 7.875l-0.296875 1.40625l-8.75 0q-2.96875 0 -4.75 -2.078125l-2.375 2.375l-1.125 -1.5625l2.75 -1.703125l0 -4.609375l-2.375 0l0 -1.40625l3.859375 0l0 5.9375q1.703125 1.640625 4.453125 1.640625l8.609375 0zm-7.203125 -7.28125l-2.59375 0l0 1.40625l2.59375 0l0 -1.40625zm1.484375 2.59375l0 1.125l5.28125 0l0 1.40625l-5.28125 0l0 1.5625l-1.484375 0l0 -1.5625l-5.046875 0l0 -1.40625l5.046875 0l0 -1.125l-1.921875 0l-1.9375 0l0 -6.296875l3.859375 0l0 -1.1875l-4.890625 0l0 -1.421875l4.890625 0l0 -1.625l1.421875 0q0.59375 0.078125 0.0625 0.4375l0 1.1875l4.90625 0l0 1.421875l-4.90625 0l0 1.1875l4.015625 0l0 6.296875l-4.015625 0zm2.75 -5.109375l-2.75 0l0 1.328125l2.75 0l0 -1.328125zm0 2.515625l-2.75 0l0 1.40625l2.75 0l0 -1.40625zm-4.234375 -2.515625l-2.59375 0l0 1.328125l2.59375 0l0 -1.328125zm-8.078125 -4.53125q1.546875 0.96875 2.59375 2.515625l-1.265625 1.265625q-1.109375 -1.484375 -2.453125 -2.515625l1.125 -1.265625zm27.75 6.609375q1.109375 1.484375 1.859375 4.078125l-1.40625 0.734375q-0.453125 -2.296875 -1.640625 -4.078125l1.1875 -0.734375zm-2.8125 8.234375q0 1.109375 -0.96875 1.109375l-1.703125 0l-0.296875 -1.1875l1.484375 0q0.21875 0 0.21875 -0.296875l0 -3.40625q-2.234375 2.4375 -6.015625 4.234375l-0.515625 -1.34375q3.859375 -1.703125 6.015625 -4.3125l-4.984375 0.890625q-0.296875 0.59375 -0.515625 0.078125l-0.375 -1.5625l1.484375 -0.0625l0 -7.796875l2.015625 0l0.4375 -2.0l1.5625 0.140625q0.515625 0.078125 -0.078125 0.453125l-0.515625 1.40625l2.75 0l0 6.3125l0.953125 0.734375q-0.359375 0.59375 -0.953125 1.40625l0 5.203125zm6.96875 -0.140625q0 1.1875 -1.1875 1.1875l-1.859375 0l-0.296875 -1.421875l1.5625 0q0.296875 0 0.296875 -0.296875l0 -9.28125l-4.75 0l0 -1.40625l4.75 0l0 -3.78125l1.40625 0q0.59375 0.078125 0.078125 0.4375l0 3.34375l2.375 0l0 1.40625l-2.375 0l0 9.8125zm-8.234375 -6.25l0 -1.328125l-3.640625 0l0 1.703125l3.640625 -0.375zm-3.640625 -3.703125l0 1.1875l3.640625 0l0 -1.1875l-3.640625 0zm3.640625 -1.1875l0 -1.1875l-3.640625 0l0 1.1875l3.640625 0zm24.421867 3.40625q2.671875 2.828125 4.0 5.203125l-1.625 1.109375q-1.5625 -2.75 -3.796875 -5.125l1.421875 -1.1875zm-3.5625 -3.1875l6.828125 0l0 1.640625l-6.828125 0l0 10.3125l-1.71875 0l0 -10.3125l-6.6718674 0l0 -1.640625l6.6718674 0l0 -4.15625l1.5625 0q0.8125 0.15625 0.15625 0.59375l0 3.5625zm-3.9375 4.078125q0.4375 0.375 -0.296875 0.53125q-1.109375 2.4375 -2.828125 5.109375l-1.6249924 -0.890625q1.8593674 -2.671875 3.1093674 -5.640625l1.640625 0.890625zm8.984375 -4.890625q-1.34375 -1.40625 -2.453125 -2.296875l0.890625 -0.890625q1.265625 0.953125 2.453125 2.21875l-0.890625 0.96875zm2.078125 -1.046875q-1.34375 -1.484375 -2.453125 -2.4375l0.96875 -0.828125q1.25 0.96875 2.4375 2.375l-0.953125 0.890625zm8.90625 -1.1875q-0.296875 0.890625 -0.75 1.71875l4.96875 0l0.828125 -0.296875l0.953125 0.953125q0.296875 0.375 -0.296875 0.59375q-0.59375 2.96875 -1.78125 5.421875l1.78125 1.1875l-1.109375 1.640625l-1.625 -1.1875q-2.15625 3.109375 -6.171875 5.125l-1.703125 -1.265625q4.453125 -1.859375 6.390625 -4.90625q-1.859375 -1.1875 -3.640625 -2.15625l0.890625 -1.328125q2.296875 1.03125 3.78125 1.921875q1.109375 -2.296875 1.34375 -4.078125l-5.421875 0q-1.40625 2.53125 -3.484375 4.609375l-1.421875 -0.96875q3.796875 -3.9375 4.984375 -8.3125l1.78125 0.734375q0.59375 0.296875 -0.296875 0.59375zm22.703125 5.203125q-3.9375 8.15625 -13.203125 8.609375q-0.375 0.96875 -0.75 0.15625l-0.59375 -1.9375q9.65625 -0.21875 12.984375 -7.9375l1.5625 1.109375zm-10.46875 0q-2.0 -1.859375 -3.78125 -3.046875l1.265625 -1.5625q1.5625 0.96875 3.9375 3.203125l-1.421875 1.40625zm19.964844 2.8125l0 -1.40625l6.828125 0l0.234375 -0.21875l1.109375 0.8125q0.375 0.375 -0.15625 0.296875q-1.109375 2.671875 -2.671875 4.453125q1.046875 0.8125 4.3125 1.78125l-0.453125 1.5625q-3.265625 -1.109375 -4.890625 -2.296875q-2.078125 1.625 -4.3125 2.453125l-0.734375 -1.421875q2.21875 -0.59375 4.0 -2.0q-1.109375 -1.40625 -2.078125 -4.015625l-1.1875 0zm0.96875 -8.90625l5.5 0l0 4.15625q0 0.59375 0.515625 0.59375l0.515625 0q0.59375 0 0.59375 -1.40625l1.484375 0.375q-0.078125 2.453125 -1.703125 2.453125l-1.5625 0q-1.328125 0 -1.328125 -1.265625l0 -3.484375l-2.53125 0l0 1.78125q0 2.734375 -2.453125 4.078125l-0.8125 -1.1875q1.78125 -0.671875 1.78125 -3.046875l0 -3.046875zm-2.078125 16.109375l-1.265625 0l0 -0.4375l-3.03125 0l0 0.734375l-1.265625 0l0 -6.015625l5.5625 0l0 5.71875zm0.671875 -13.65625l0 1.40625l-6.984375 0l0 -1.40625l6.984375 0zm-1.046875 -2.671875l0 1.40625l-4.890625 0l0 -1.40625l4.890625 0zm0 5.265625l0 1.421875l-4.890625 0l0 -1.421875l4.890625 0zm0 2.609375l0 1.40625l-4.890625 0l0 -1.40625l4.890625 0zm-0.890625 3.921875l-3.03125 0l0 2.90625l3.03125 0l0 -2.90625zm6.6875 0.453125q1.265625 -1.484375 1.921875 -3.125l-3.625 0q0.59375 1.78125 1.703125 3.125zm7.421875 3.046875q3.640625 -2.234375 3.5625 -7.125l1.703125 0.296875q0.21875 0.21875 -0.140625 0.4375l-0.375 2.671875q1.109375 1.34375 2.890625 2.296875l0 -7.1875l-5.046875 0l0 -1.421875l11.203125 0l0 1.421875l-4.671875 0l0 2.734375l5.203125 0l0 1.421875l-5.203125 0l0 3.5625q1.109375 0.296875 2.234375 0.296875l4.890625 0l-0.296875 1.40625l-4.59375 0q-4.3125 0 -7.0625 -3.125q-1.109375 2.453125 -3.109375 3.71875l-1.1875 -1.40625zm9.046875 -13.59375l6.828125 0l0 3.9375l-1.484375 0l0 -2.515625l-12.3125 0l0 2.671875l-1.484375 0l0 -4.09375l6.75 0l0 -2.140625l1.640625 0q0.734375 0.140625 0.0625 0.59375l0 1.546875zm23.90625 13.0l-6.453125 0q-1.859375 0 -1.859375 -1.9375l0 -4.0l-5.9375 0l0 -1.640625l5.9375 0l0 -3.40625l-4.53125 0l0 -1.640625l11.796875 0l0 1.640625l-5.5625 0l0 3.40625l7.421875 0l0 1.640625l-7.421875 0l0 3.40625q0 0.890625 0.8125 0.890625l5.875 0l-0.078125 1.640625zm2.7421875 -5.875l0 -1.625l16.546875 0l0 1.625l-16.546875 0zm27.757812 1.71875q-3.9375 -2.015625 -6.453125 -2.671875l0 7.71875l-1.703125 0l0 -14.84375l1.484375 0q0.890625 0.0625 0.21875 0.59375l0 4.671875q3.640625 1.03125 7.34375 2.8125l-0.890625 1.71875zm-0.140625 -6.53125q-1.265625 -1.5625 -2.53125 -2.53125l0.96875 -0.734375q1.265625 0.953125 2.515625 2.515625l-0.953125 0.75zm1.78125 -1.421875q-0.96875 -1.25 -2.453125 -2.4375l0.96875 -0.75q1.25 0.890625 2.4375 2.453125l-0.953125 0.734375z" fill-rule="nonzero"/><path fill="#000000" fill-opacity="0.0" d="m60.598427 261.98425l211.40158 0l0 42.015747l-211.40158 0z" fill-rule="evenodd"/><path stroke="#ffffff" stroke-width="1.0" stroke-linejoin="round" stroke-linecap="butt" d="m60.598427 261.98425l211.40158 0l0 42.015747l-211.40158 0z" fill-rule="evenodd"/><path fill="#ffffff" d="m85.62968 275.623q2.671875 2.671875 2.671875 6.453125q0 3.78125 -2.671875 6.453125q-2.671875 2.671875 -6.453125 2.671875q-3.78125 0 -6.453125 -2.671875q-2.671875 -2.671875 -2.671875 -6.453125q0 -3.78125 2.671875 -6.453125q2.671875 -2.671875 6.453125 -2.671875q3.78125 0 6.453125 2.671875zm-0.515625 12.390625q2.453125 -2.453125 2.453125 -5.9375q0 -3.484375 -2.453125 -5.9375q-2.453125 -2.453125 -5.9375 -2.453125q-3.484375 0 -5.9375 2.453125q-2.453125 2.453125 -2.453125 5.9375q0 3.484375 2.453125 5.9375q2.453125 2.453125 5.9375 2.453125q3.484375 0 5.9375 -2.453125zm-3.5625 -2.375l0 2.671875l-1.703125 0l0 -2.671875l-5.796875 0l0 -1.640625l5.5625 -8.375l1.9375 0l0 8.375l1.625 0l0 1.640625l-1.625 0zm-1.703125 -1.640625l0 -6.0l-4.015625 6.0l4.015625 0zm26.859375 4.6875l-0.296875 1.40625l-8.75 0q-2.96875 0 -4.75 -2.078125l-2.375 2.375l-1.125 -1.5625l2.75 -1.703125l0 -4.609375l-2.375 0l0 -1.40625l3.859375 0l0 5.9375q1.703125 1.640625 4.453125 1.640625l8.609375 0zm-7.203125 -7.28125l-2.59375 0l0 1.40625l2.59375 0l0 -1.40625zm1.484375 2.59375l0 1.125l5.28125 0l0 1.40625l-5.28125 0l0 1.5625l-1.484375 0l0 -1.5625l-5.046875 0l0 -1.40625l5.046875 0l0 -1.125l-1.921875 0l-1.9375 0l0 -6.296875l3.859375 0l0 -1.1875l-4.890625 0l0 -1.421875l4.890625 0l0 -1.625l1.421875 0q0.59375 0.078125 0.0625 0.4375l0 1.1875l4.90625 0l0 1.421875l-4.90625 0l0 1.1875l4.015625 0l0 6.296875l-4.015625 0zm2.75 -5.109375l-2.75 0l0 1.328125l2.75 0l0 -1.328125zm0 2.515625l-2.75 0l0 1.40625l2.75 0l0 -1.40625zm-4.234375 -2.515625l-2.59375 0l0 1.328125l2.59375 0l0 -1.328125zm-8.078125 -4.53125q1.546875 0.96875 2.59375 2.515625l-1.265625 1.265625q-1.109375 -1.484375 -2.453125 -2.515625l1.125 -1.265625zm27.75 6.609375q1.109375 1.484375 1.859375 4.078125l-1.40625 0.734375q-0.453125 -2.296875 -1.640625 -4.078125l1.1875 -0.734375zm-2.8125 8.234375q0 1.109375 -0.96875 1.109375l-1.703125 0l-0.296875 -1.1875l1.484375 0q0.21875 0 0.21875 -0.296875l0 -3.40625q-2.234375 2.4375 -6.015625 4.234375l-0.515625 -1.34375q3.859375 -1.703125 6.015625 -4.3125l-4.984375 0.890625q-0.296875 0.59375 -0.515625 0.078125l-0.375 -1.5625l1.484375 -0.0625l0 -7.796875l2.015625 0l0.4375 -2.0l1.5625 0.140625q0.515625 0.078125 -0.078125 0.453125l-0.515625 1.40625l2.75 0l0 6.3125l0.953125 0.734375q-0.359375 0.59375 -0.953125 1.40625l0 5.203125zm6.96875 -0.140625q0 1.1875 -1.1875 1.1875l-1.859375 0l-0.296875 -1.421875l1.5625 0q0.296875 0 0.296875 -0.296875l0 -9.28125l-4.75 0l0 -1.40625l4.75 0l0 -3.78125l1.40625 0q0.59375 0.078125 0.078125 0.4375l0 3.34375l2.375 0l0 1.40625l-2.375 0l0 9.8125zm-8.234375 -6.25l0 -1.328125l-3.640625 0l0 1.703125l3.640625 -0.375zm-3.640625 -3.703125l0 1.1875l3.640625 0l0 -1.1875l-3.640625 0zm3.640625 -1.1875l0 -1.1875l-3.640625 0l0 1.1875l3.640625 0zm20.781242 12.25q-2.671875 0 -4.96875 -1.9375q-1.046875 1.125 -2.375 2.078125l-0.9687424 -1.5625q1.4062424 -0.65625 2.5156174 -1.484375l0 -4.8125l-2.3749924 0l0 -1.421875l3.8593674 0l0 6.015625q1.859375 1.703125 4.390625 1.703125l8.75 0l-0.296875 1.421875l-8.53125 0zm-6.15625 -15.8125q1.328125 0.96875 2.375 2.296875l-1.265625 1.265625q-0.8125 -1.265625 -2.234375 -2.453125l1.125 -1.109375zm9.34375 8.390625q2.15625 2.0 5.5 3.265625l-0.75 1.484375q-3.046875 -1.265625 -4.828125 -3.125l0 3.859375l-1.484375 0l0 -3.640625q-1.40625 1.640625 -4.453125 3.125l-0.8125 -1.484375q3.265625 -1.34375 5.203125 -3.484375l-4.15625 0l0 -4.75l4.21875 0l0 -1.265625l-4.75 0l0 -1.40625l4.75 0l0 -1.9375l1.421875 0q0.59375 0.078125 0.0625 0.453125l0 1.484375l5.046875 0l0 1.40625l-5.046875 0l0 1.265625l4.234375 0l0 4.75l-4.15625 0zm-0.078125 -3.34375l0 1.921875l2.75 0l0 -1.921875l-2.75 0zm-4.21875 0l0 1.921875l2.734375 0l0 -1.921875l-2.734375 0zm28.203125 11.203125q-3.5625 -0.4375 -6.3125 -1.859375q-2.59375 1.5625 -6.234375 1.9375l-0.59375 -1.5625q3.34375 -0.296875 5.5625 -1.40625q-1.1875 -1.1875 -2.15625 -2.53125l-2.078125 0l0 -1.1875l8.6875 0l0.21875 -0.21875l1.125 0.890625q0.296875 0.453125 -0.296875 0.375q-1.265625 1.484375 -3.046875 2.75q2.59375 0.890625 5.484375 1.109375l-0.359375 1.703125zm-6.765625 -15.140625l6.6875 0l0 1.40625l-13.140625 0l0 6.53125q0 4.15625 -1.859375 6.984375l-1.328125 -1.109375q1.703125 -2.3125 1.703125 -6.171875l0 -7.640625l6.234375 0l0 -1.921875l1.640625 0q0.59375 0.0625 0.0625 0.4375l0 1.484375zm0.453125 11.5q0.890625 -0.59375 2.078125 -1.78125l-3.859375 0q0.734375 0.890625 1.78125 1.78125zm2.671875 -4.0l-1.484375 0l0 -0.453125l-3.1875 0l0 0.53125l-1.484375 0l0 -2.96875l-2.96875 0l0 -1.1875l2.96875 0l0 -1.421875l1.40625 0q0.59375 0.078125 0.078125 0.453125l0 0.96875l3.1875 0l0 -1.5625l1.40625 0q0.59375 0.078125 0.078125 0.4375l0 1.125l3.5625 0l0 1.1875l-3.5625 0l0 2.890625zm-1.484375 -2.890625l-3.1875 0l0 1.25l3.1875 0l0 -1.25zm15.28125 3.03125l0 -1.40625l6.828125 0l0.234375 -0.21875l1.109375 0.8125q0.375 0.375 -0.15625 0.296875q-1.109375 2.671875 -2.671875 4.453125q1.046875 0.8125 4.3125 1.78125l-0.453125 1.5625q-3.265625 -1.109375 -4.890625 -2.296875q-2.078125 1.625 -4.3125 2.453125l-0.734375 -1.421875q2.21875 -0.59375 4.0 -2.0q-1.109375 -1.40625 -2.078125 -4.015625l-1.1875 0zm0.96875 -8.90625l5.5 0l0 4.15625q0 0.59375 0.515625 0.59375l0.515625 0q0.59375 0 0.59375 -1.40625l1.484375 0.375q-0.078125 2.453125 -1.703125 2.453125l-1.5625 0q-1.328125 0 -1.328125 -1.265625l0 -3.484375l-2.53125 0l0 1.78125q0 2.734375 -2.453125 4.078125l-0.8125 -1.1875q1.78125 -0.671875 1.78125 -3.046875l0 -3.046875zm-2.078125 16.109375l-1.265625 0l0 -0.4375l-3.03125 0l0 0.734375l-1.265625 0l0 -6.015625l5.5625 0l0 5.71875zm0.671875 -13.65625l0 1.40625l-6.984375 0l0 -1.40625l6.984375 0zm-1.046875 -2.671875l0 1.40625l-4.890625 0l0 -1.40625l4.890625 0zm0 5.265625l0 1.421875l-4.890625 0l0 -1.421875l4.890625 0zm0 2.609375l0 1.40625l-4.890625 0l0 -1.40625l4.890625 0zm-0.890625 3.921875l-3.03125 0l0 2.90625l3.03125 0l0 -2.90625zm6.6875 0.453125q1.265625 -1.484375 1.921875 -3.125l-3.625 0q0.59375 1.78125 1.703125 3.125zm7.421875 3.046875q3.640625 -2.234375 3.5625 -7.125l1.703125 0.296875q0.21875 0.21875 -0.140625 0.4375l-0.375 2.671875q1.109375 1.34375 2.890625 2.296875l0 -7.1875l-5.046875 0l0 -1.421875l11.203125 0l0 1.421875l-4.671875 0l0 2.734375l5.203125 0l0 1.421875l-5.203125 0l0 3.5625q1.109375 0.296875 2.234375 0.296875l4.890625 0l-0.296875 1.40625l-4.59375 0q-4.3125 0 -7.0625 -3.125q-1.109375 2.453125 -3.109375 3.71875l-1.1875 -1.40625zm9.046875 -13.59375l6.828125 0l0 3.9375l-1.484375 0l0 -2.515625l-12.3125 0l0 2.671875l-1.484375 0l0 -4.09375l6.75 0l0 -2.140625l1.640625 0q0.734375 0.140625 0.0625 0.59375l0 1.546875zm23.90625 13.0l-6.453125 0q-1.859375 0 -1.859375 -1.9375l0 -4.0l-5.9375 0l0 -1.640625l5.9375 0l0 -3.40625l-4.53125 0l0 -1.640625l11.796875 0l0 1.640625l-5.5625 0l0 3.40625l7.421875 0l0 1.640625l-7.421875 0l0 3.40625q0 0.890625 0.8125 0.890625l5.875 0l-0.078125 1.640625zm2.7421875 -5.875l0 -1.625l16.546875 0l0 1.625l-16.546875 0zm27.757812 1.71875q-3.9375 -2.015625 -6.453125 -2.671875l0 7.71875l-1.703125 0l0 -14.84375l1.484375 0q0.890625 0.0625 0.21875 0.59375l0 4.671875q3.640625 1.03125 7.34375 2.8125l-0.890625 1.71875zm-0.140625 -6.53125q-1.265625 -1.5625 -2.53125 -2.53125l0.96875 -0.734375q1.265625 0.953125 2.515625 2.515625l-0.953125 0.75zm1.78125 -1.421875q-0.96875 -1.25 -2.453125 -2.4375l0.96875 -0.75q1.25 0.890625 2.4375 2.453125l-0.953125 0.734375z" fill-rule="nonzero"/><path fill="#000000" fill-opacity="0.0" d="m380.59842 157.98425l251.40158 0l0 42.015747l-251.40158 0z" fill-rule="evenodd"/><path stroke="#ffffff" stroke-width="1.0" stroke-linejoin="round" stroke-linecap="butt" d="m380.59842 157.98425l251.40158 0l0 42.015747l-251.40158 0z" fill-rule="evenodd"/><path fill="#ffffff" d="m394.94217 178.51363l0.59375 -6.671875l7.34375 0l0 1.625l-5.9375 0l-0.296875 3.421875q1.265625 -0.890625 2.671875 -0.890625q1.640625 0 2.75 1.109375q1.109375 1.109375 1.109375 3.046875q0 2.078125 -1.03125 3.109375q-1.1875 1.1875 -3.125 1.1875q-2.078125 0 -3.1875 -1.109375q-0.8125 -0.8125 -0.96875 -1.921875l2.078125 0q0.15625 0.65625 0.53125 1.03125q0.4375 0.453125 1.546875 0.453125q1.1875 0 1.859375 -0.671875q0.59375 -0.59375 0.59375 -2.078125q0 -1.34375 -0.671875 -2.0q-0.734375 -0.75 -1.84375 -0.75q-1.125 0 -2.15625 1.109375l-1.859375 0zm10.6875 -6.890625q2.671875 2.671875 2.671875 6.453125q0 3.78125 -2.671875 6.453125q-2.671875 2.671875 -6.453125 2.671875q-3.78125 0 -6.453125 -2.671875q-2.671875 -2.671875 -2.671875 -6.453125q0 -3.78125 2.671875 -6.453125q2.671875 -2.671875 6.453125 -2.671875q3.78125 0 6.453125 2.671875zm-0.515625 12.390625q2.453125 -2.453125 2.453125 -5.9375q0 -3.484375 -2.453125 -5.9375q-2.453125 -2.453125 -5.9375 -2.453125q-3.484375 0 -5.9375 2.453125q-2.453125 2.453125 -2.453125 5.9375q0 3.484375 2.453125 5.9375q2.453125 2.453125 5.9375 2.453125q3.484375 0 5.9375 -2.453125zm12.015625 -4.90625l0 -1.40625l6.828125 0l0.234375 -0.21875l1.109375 0.8125q0.375 0.375 -0.15625 0.296875q-1.109375 2.671875 -2.671875 4.453125q1.046875 0.8125 4.3125 1.78125l-0.453125 1.5625q-3.265625 -1.109375 -4.890625 -2.296875q-2.078125 1.625 -4.3125 2.453125l-0.734375 -1.421875q2.21875 -0.59375 4.0 -2.0q-1.109375 -1.40625 -2.078125 -4.015625l-1.1875 0zm0.96875 -8.90625l5.5 0l0 4.15625q0 0.59375 0.515625 0.59375l0.515625 0q0.59375 0 0.59375 -1.40625l1.484375 0.375q-0.078125 2.453125 -1.703125 2.453125l-1.5625 0q-1.328125 0 -1.328125 -1.265625l0 -3.484375l-2.53125 0l0 1.78125q0 2.734375 -2.453125 4.078125l-0.8125 -1.1875q1.78125 -0.671875 1.78125 -3.046875l0 -3.046875zm-2.078125 16.109375l-1.265625 0l0 -0.4375l-3.03125 0l0 0.734375l-1.265625 0l0 -6.015625l5.5625 0l0 5.71875zm0.671875 -13.65625l0 1.40625l-6.984375 0l0 -1.40625l6.984375 0zm-1.046875 -2.671875l0 1.40625l-4.890625 0l0 -1.40625l4.890625 0zm0 5.265625l0 1.421875l-4.890625 0l0 -1.421875l4.890625 0zm0 2.609375l0 1.40625l-4.890625 0l0 -1.40625l4.890625 0zm-0.890625 3.921875l-3.03125 0l0 2.90625l3.03125 0l0 -2.90625zm6.6875 0.453125q1.265625 -1.484375 1.921875 -3.125l-3.625 0q0.59375 1.78125 1.703125 3.125zm7.421875 3.046875q3.640625 -2.234375 3.5625 -7.125l1.703125 0.296875q0.21875 0.21875 -0.140625 0.4375l-0.375 2.671875q1.109375 1.34375 2.890625 2.296875l0 -7.1875l-5.046875 0l0 -1.421875l11.203125 0l0 1.421875l-4.671875 0l0 2.734375l5.203125 0l0 1.421875l-5.203125 0l0 3.5625q1.109375 0.296875 2.234375 0.296875l4.890625 0l-0.296875 1.40625l-4.59375 0q-4.3125 0 -7.0625 -3.125q-1.109375 2.453125 -3.109375 3.71875l-1.1875 -1.40625zm9.046875 -13.59375l6.828125 0l0 3.9375l-1.484375 0l0 -2.515625l-12.3125 0l0 2.671875l-1.484375 0l0 -4.09375l6.75 0l0 -2.140625l1.640625 0q0.734375 0.140625 0.0625 0.59375l0 1.546875zm17.890625 6.234375q-0.671875 0.59375 -1.40625 1.1875q0.734375 0.53125 1.484375 1.1875l-1.046875 1.421875q-1.109375 -1.265625 -2.515625 -2.53125l0 7.421875l-1.484375 0l0 -7.421875q-1.109375 1.109375 -2.453125 2.15625l-0.734375 -1.5625q3.265625 -2.453125 5.265625 -5.5625l-4.671875 0l0 -1.40625l2.59375 0l0 -3.5l1.40625 0q0.59375 0.078125 0.078125 0.453125l0 3.046875l1.40625 0l0.453125 -0.453125l0.953125 0.96875q0.296875 0.515625 -0.296875 0.515625q-0.953125 2.0 -2.59375 3.859375l1.109375 0.671875q0.890625 -0.890625 1.484375 -1.703125l1.34375 1.03125q0.078125 0.375 -0.375 0.21875zm6.609375 -4.890625l-2.96875 0l0 4.375q0 5.859375 -5.125 8.84375l-0.96875 -1.421875q4.609375 -2.296875 4.609375 -7.203125l0 -4.59375l-2.296875 0l0 -1.40625l8.234375 0l0 9.203125q0 5.421875 -2.671875 5.421875l-2.15625 0l-0.21875 -1.421875l2.0 0q1.5625 0 1.5625 -4.0l0 -7.796875zm4.453125 12.09375q1.703125 -1.40625 2.96875 -3.484375l1.265625 0.8125q0.515625 0.375 -0.234375 0.453125q-1.1875 1.921875 -2.734375 3.484375l-1.265625 -1.265625zm14.390625 -4.75l-2.59375 0q-0.140625 3.9375 -3.703125 6.3125l-1.046875 -1.265625q3.265625 -2.0 3.265625 -5.34375l0 -9.640625l5.5625 0l0 14.84375q0 1.1875 -1.1875 1.1875l-1.546875 0l-0.15625 -1.640625l1.109375 0q0.296875 0 0.296875 -0.296875l0 -4.15625zm-7.046875 4.3125q-0.890625 -1.046875 -2.078125 -2.015625l1.109375 -1.03125q1.34375 0.96875 2.15625 1.859375l-1.1875 1.1875zm7.046875 -8.546875l-2.59375 0l0 2.828125l2.59375 0l0 -2.828125zm0 -4.296875l-2.59375 0l0 2.890625l2.59375 0l0 -2.890625zm-8.015625 6.671875l-2.96875 0l0 1.5625l2.96875 0l0 -1.5625zm0 -2.59375l-2.96875 0l0 1.40625l2.96875 0l0 -1.40625zm0 -2.515625l-2.96875 0l0 1.328125l2.96875 0l0 -1.328125zm3.125 -1.1875l0 1.1875l-1.859375 0l0 6.671875l2.078125 0l0 1.1875l-9.9375 0l0 -1.1875l2.375 0l0 -6.671875l-1.9375 0l0 -1.1875l1.9375 0l0 -2.53125l1.1875 0q0.734375 0.078125 0.0625 0.453125l0 2.078125l2.96875 0l0 -2.53125l1.1875 0q0.75 0.078125 0.078125 0.453125l0 2.078125l1.859375 0zm9.421875 5.859375q3.1875 -2.890625 4.015625 -7.9375l1.625 0.4375q0.515625 0.15625 -0.21875 0.59375q-0.15625 1.109375 -1.046875 3.265625l0.453125 0.15625q0.296875 0.21875 -0.21875 0.515625l0 10.984375l-1.484375 0l0 -9.28125q-0.890625 1.40625 -2.15625 2.59375l-0.96875 -1.328125zm16.484375 3.640625l-0.234375 1.703125q-0.296875 2.15625 -2.140625 2.15625l-4.984375 0q-1.328125 0 -1.328125 -1.265625l0 -13.953125l1.40625 0q0.75 0.078125 0.078125 0.4375l0 5.5q2.8125 -1.109375 5.1875 -2.890625l1.125 1.328125q0.515625 0.453125 -0.375 0.453125q-3.1875 1.625 -5.9375 2.734375l0 5.421875q0 0.59375 0.515625 0.59375l3.9375 0q0.8125 0 0.890625 -0.734375l0.140625 -1.78125l1.71875 0.296875z" fill-rule="nonzero"/><path fill="#000000" fill-opacity="0.0" d="m380.59842 221.98425l251.40158 0l0 42.015747l-251.40158 0z" fill-rule="evenodd"/><path stroke="#ffffff" stroke-width="1.0" stroke-linejoin="round" stroke-linecap="butt" d="m380.59842 221.98425l251.40158 0l0 42.015747l-251.40158 0z" fill-rule="evenodd"/><path fill="#ffffff" d="m405.62967 235.623q2.671875 2.671875 2.671875 6.453125q0 3.78125 -2.671875 6.453125q-2.671875 2.671875 -6.453125 2.671875q-3.78125 0 -6.453125 -2.671875q-2.671875 -2.671875 -2.671875 -6.453125q0 -3.78125 2.671875 -6.453125q2.671875 -2.671875 6.453125 -2.671875q3.78125 0 6.453125 2.671875zm-0.515625 12.390625q2.453125 -2.453125 2.453125 -5.9375q0 -3.484375 -2.453125 -5.9375q-2.453125 -2.453125 -5.9375 -2.453125q-3.484375 0 -5.9375 2.453125q-2.453125 2.453125 -2.453125 5.9375q0 3.484375 2.453125 5.9375q2.453125 2.453125 5.9375 2.453125q3.484375 0 5.9375 -2.453125zm-8.53125 -6.09375q1.109375 -1.25 2.8125 -1.25q1.640625 0 2.671875 1.03125q1.109375 1.109375 1.109375 2.890625q0 1.78125 -1.109375 2.90625q-1.03125 1.03125 -2.8125 1.03125q-1.859375 0 -2.90625 -1.03125q-1.484375 -1.484375 -1.484375 -5.421875q0 -3.9375 1.5625 -5.5q1.109375 -1.109375 2.890625 -1.109375q1.5625 0 2.375 0.8125q0.96875 0.96875 1.265625 2.453125l-1.859375 0q-0.0625 -0.8125 -0.515625 -1.265625q-0.515625 -0.515625 -1.265625 -0.515625q-0.953125 0 -1.625 0.671875q-1.109375 1.109375 -1.109375 3.34375l0 0.953125zm2.671875 0.078125q-1.046875 0 -1.78125 0.75q-0.671875 0.65625 -0.671875 1.84375q0 1.125 0.8125 1.9375q0.59375 0.59375 1.5625 0.59375q0.96875 0 1.5625 -0.59375q0.65625 -0.671875 0.65625 -1.9375q0 -1.25 -0.734375 -2.0q-0.59375 -0.59375 -1.40625 -0.59375zm17.875 1.109375l0 -1.40625l6.828125 0l0.234375 -0.21875l1.109375 0.8125q0.375 0.375 -0.15625 0.296875q-1.109375 2.671875 -2.671875 4.453125q1.046875 0.8125 4.3125 1.78125l-0.453125 1.5625q-3.265625 -1.109375 -4.890625 -2.296875q-2.078125 1.625 -4.3125 2.453125l-0.734375 -1.421875q2.21875 -0.59375 4.0 -2.0q-1.109375 -1.40625 -2.078125 -4.015625l-1.1875 0zm0.96875 -8.90625l5.5 0l0 4.15625q0 0.59375 0.515625 0.59375l0.515625 0q0.59375 0 0.59375 -1.40625l1.484375 0.375q-0.078125 2.453125 -1.703125 2.453125l-1.5625 0q-1.328125 0 -1.328125 -1.265625l0 -3.484375l-2.53125 0l0 1.78125q0 2.734375 -2.453125 4.078125l-0.8125 -1.1875q1.78125 -0.671875 1.78125 -3.046875l0 -3.046875zm-2.078125 16.109375l-1.265625 0l0 -0.4375l-3.03125 0l0 0.734375l-1.265625 0l0 -6.015625l5.5625 0l0 5.71875zm0.671875 -13.65625l0 1.40625l-6.984375 0l0 -1.40625l6.984375 0zm-1.046875 -2.671875l0 1.40625l-4.890625 0l0 -1.40625l4.890625 0zm0 5.265625l0 1.421875l-4.890625 0l0 -1.421875l4.890625 0zm0 2.609375l0 1.40625l-4.890625 0l0 -1.40625l4.890625 0zm-0.890625 3.921875l-3.03125 0l0 2.90625l3.03125 0l0 -2.90625zm6.6875 0.453125q1.265625 -1.484375 1.921875 -3.125l-3.625 0q0.59375 1.78125 1.703125 3.125zm7.421875 3.046875q3.640625 -2.234375 3.5625 -7.125l1.703125 0.296875q0.21875 0.21875 -0.140625 0.4375l-0.375 2.671875q1.109375 1.34375 2.890625 2.296875l0 -7.1875l-5.046875 0l0 -1.421875l11.203125 0l0 1.421875l-4.671875 0l0 2.734375l5.203125 0l0 1.421875l-5.203125 0l0 3.5625q1.109375 0.296875 2.234375 0.296875l4.890625 0l-0.296875 1.40625l-4.59375 0q-4.3125 0 -7.0625 -3.125q-1.109375 2.453125 -3.109375 3.71875l-1.1875 -1.40625zm9.046875 -13.59375l6.828125 0l0 3.9375l-1.484375 0l0 -2.515625l-12.3125 0l0 2.671875l-1.484375 0l0 -4.09375l6.75 0l0 -2.140625l1.640625 0q0.734375 0.140625 0.0625 0.59375l0 1.546875zm15.515625 -0.21875q5.203125 -0.21875 9.5 -1.40625l1.046875 1.484375q0.296875 0.4375 -0.59375 0.21875q-2.015625 0.453125 -3.5625 0.671875l0 6.078125l4.8125 0l0 1.421875l-4.8125 0l0 5.046875q0 1.1875 -1.1875 1.1875l-1.640625 0l-0.375 -1.640625l1.421875 0q0.296875 0 0.296875 -0.296875l0 -4.296875l-4.90625 0l0 -1.421875l4.90625 0l0 -5.9375q-2.671875 0.296875 -4.609375 0.375l-0.296875 -1.484375zm2.078125 2.234375q0.8125 1.03125 1.40625 3.1875l-1.625 0.671875q-0.671875 -2.234375 -1.265625 -3.203125l1.484375 -0.65625zm7.875 0.296875q-0.234375 1.484375 -1.046875 3.625l-1.5625 -0.4375q0.671875 -2.078125 1.046875 -4.234375l1.78125 0.59375q0.4375 0.296875 -0.21875 0.453125zm-12.03125 -0.890625l-1.921875 0l0 6.75l1.921875 0l0 -6.75zm1.484375 -1.421875l0 10.328125l-1.484375 0l0 -0.75l-1.921875 0l0 1.9375l-1.484375 0l0 -11.515625l4.890625 0zm28.578125 10.328125q-1.265625 -1.5625 -2.75 -4.53125q0.078125 0.671875 0.078125 1.40625q0 4.078125 -1.640625 5.71875q-1.40625 1.40625 -3.921875 1.40625q-2.375 0 -3.71875 -1.328125q-1.484375 -1.484375 -1.484375 -3.859375q0 -3.34375 2.53125 -7.359375q-1.71875 0.453125 -3.34375 0.828125l-0.375 -1.78125q3.484375 -0.296875 5.5 -1.265625l0.953125 1.484375q-0.59375 0.140625 -0.890625 0.59375q-2.734375 4.078125 -2.734375 7.046875q0 2.0 1.109375 3.125q0.8125 0.8125 2.59375 0.8125q1.640625 0 2.53125 -0.890625q1.40625 -1.40625 1.40625 -5.5625q0 -3.5625 -0.515625 -5.796875l1.84375 -0.21875q0.078125 1.78125 0.75 3.640625q0.890625 2.375 3.40625 5.1875l-1.328125 1.34375zm0 -8.765625q-1.484375 -1.1875 -2.671875 -1.78125l0.734375 -0.890625q1.421875 0.75 2.671875 1.78125l-0.734375 0.890625zm1.109375 -1.484375q-1.484375 -1.1875 -2.671875 -1.78125l0.75 -0.890625q1.40625 0.75 2.671875 1.78125l-0.75 0.890625zm5.5703125 -0.296875q0.59375 0.078125 0.078125 0.453125l0 4.0l4.375 0l0 -5.9375l1.40625 0q0.59375 0.078125 0.078125 0.453125l0 5.484375l4.296875 0l0 -4.375l1.421875 0q0.59375 0.078125 0.0625 0.4375l0 6.015625l-1.484375 0l0 -0.671875l-4.296875 0l0 6.390625l4.890625 0l0 -4.53125l1.421875 0q0.59375 0.078125 0.0625 0.453125l0 6.3125l-1.484375 0l0 -0.828125l-11.5 0l0 1.046875l-1.484375 0l0 -7.0625l1.40625 0q0.59375 0.078125 0.078125 0.453125l0 4.15625l5.125 0l0 -6.390625l-4.375 0l0 0.828125l-1.484375 0l0 -6.6875l1.40625 0zm28.578156 10.765625q-3.203125 3.484375 -6.9062805 3.484375q-2.671875 0 -3.9375 -1.265625q-0.96875 -0.953125 -0.96875 -3.703125l0 -9.953125l1.5625 0q0.671875 0.15625 0.15625 0.59375l0 9.359375q0 1.859375 0.65625 2.515625q0.828125 0.828125 2.453125 0.828125q2.8906555 0 5.8594055 -3.265625l1.125 1.40625zm15.953125 2.453125l-6.453125 0q-1.859375 0 -1.859375 -1.9375l0 -4.0l-5.9375 0l0 -1.640625l5.9375 0l0 -3.40625l-4.53125 0l0 -1.640625l11.796875 0l0 1.640625l-5.5625 0l0 3.40625l7.421875 0l0 1.640625l-7.421875 0l0 3.40625q0 0.890625 0.8125 0.890625l5.875 0l-0.078125 1.640625zm2.7421875 -5.875l0 -1.625l16.546875 0l0 1.625l-16.546875 0zm27.757812 1.71875q-3.9375 -2.015625 -6.453125 -2.671875l0 7.71875l-1.703125 0l0 -14.84375l1.484375 0q0.890625 0.0625 0.21875 0.59375l0 4.671875q3.640625 1.03125 7.34375 2.8125l-0.890625 1.71875zm-0.140625 -6.53125q-1.265625 -1.5625 -2.53125 -2.53125l0.96875 -0.734375q1.265625 0.953125 2.515625 2.515625l-0.953125 0.75zm1.78125 -1.421875q-0.96875 -1.25 -2.453125 -2.4375l0.96875 -0.75q1.25 0.890625 2.4375 2.453125l-0.953125 0.734375z" fill-rule="nonzero"/><path fill="#000000" fill-opacity="0.0" d="m112.0 232.0l0 32.0" fill-rule="evenodd"/><path stroke="#ffffff" stroke-width="1.0" stroke-linejoin="round" stroke-linecap="butt" d="m112.0 232.0l0 26.0" fill-rule="evenodd"/><path fill="#ffffff" stroke="#ffffff" stroke-width="1.0" stroke-linecap="butt" d="m110.34827 258.0l1.6517334 4.538086l1.6517334 -4.538086z" fill-rule="evenodd"/><path fill="#000000" fill-opacity="0.0" d="m112.0 104.0l0 32.0" fill-rule="evenodd"/><path stroke="#ffffff" stroke-width="1.0" stroke-linejoin="round" stroke-linecap="butt" d="m112.0 104.0l0 26.0" fill-rule="evenodd"/><path fill="#ffffff" stroke="#ffffff" stroke-width="1.0" stroke-linecap="butt" d="m110.34827 130.0l1.6517334 4.538101l1.6517334 -4.538101z" fill-rule="evenodd"/><path fill="#000000" fill-opacity="0.0" d="m112.0 168.0l0 32.0" fill-rule="evenodd"/><path stroke="#ffffff" stroke-width="1.0" stroke-linejoin="round" stroke-linecap="butt" d="m112.0 168.0l0 26.0" fill-rule="evenodd"/><path fill="#ffffff" stroke="#ffffff" stroke-width="1.0" stroke-linecap="butt" d="m110.34827 194.0l1.6517334 4.538101l1.6517334 -4.538101z" fill-rule="evenodd"/><path fill="#000000" fill-opacity="0.0" d="m304.0 154.99213c19.149597 0 28.724396 6.0 38.299225 12.0c9.574799 6.0 19.149597 12.0 38.299194 12.0" fill-rule="evenodd"/><path stroke="#ffffff" stroke-width="1.0" stroke-linejoin="round" stroke-linecap="butt" d="m304.0 154.99213c19.149597 0 28.724396 6.0 38.299225 12.0c9.574799 6.0 19.149597 12.0 38.299194 12.0" fill-rule="evenodd"/><path fill="#000000" fill-opacity="0.0" d="m288.0 218.99213c23.149597 0 34.724396 -10.0 46.299225 -20.0c11.574799 -10.0 23.149597 -20.0 46.299194 -20.0" fill-rule="evenodd"/><path stroke="#ffffff" stroke-width="1.0" stroke-linejoin="round" stroke-linecap="butt" d="m288.0 218.99213c23.149597 0 34.724396 -10.0 46.299225 -20.0c5.787384 -5.0 11.574799 -10.0 18.809052 -13.75c3.6171265 -1.875 7.5959473 -3.4375 12.117371 -4.53125c2.2607117 -0.546875 4.657074 -0.9765625 7.2116394 -1.269516c0.6386719 -0.07325745 1.2872009 -0.13796997 1.9459534 -0.19380188l0.21994019 -0.01701355" fill-rule="evenodd"/><path fill="#ffffff" stroke="#ffffff" stroke-width="1.0" stroke-linecap="butt" d="m374.6688 180.88097l4.468872 -1.8307495l-4.600128 -1.470108z" fill-rule="evenodd"/><path fill="#000000" fill-opacity="0.0" d="m272.0 282.99213c27.149597 0 40.724396 -26.0 54.299225 -52.0c13.574799 -26.0 27.149597 -52.0 54.299194 -52.0" fill-rule="evenodd"/><path stroke="#ffffff" stroke-width="1.0" stroke-linejoin="round" stroke-linecap="butt" d="m272.0 282.99213c27.149597 0 40.724396 -26.0 54.299225 -52.0c13.574799 -26.0 27.149597 -52.0 54.299194 -52.0" fill-rule="evenodd"/><path fill="#000000" fill-opacity="0.0" d="m304.0 154.99213c19.149597 0 28.724396 22.0 38.299225 44.0c9.574799 22.0 19.149597 44.0 38.299194 44.0" fill-rule="evenodd"/><path stroke="#ffffff" stroke-width="1.0" stroke-linejoin="round" stroke-linecap="butt" d="m304.0 154.99213c19.149597 0 28.724396 22.0 38.299225 44.0c9.574799 22.0 19.149597 44.0 38.299194 44.0" fill-rule="evenodd"/><path fill="#000000" fill-opacity="0.0" d="m288.0 218.99213c23.149597 0 34.724396 6.0 46.299225 12.0c11.574799 6.0 23.149597 12.0 46.299194 12.0" fill-rule="evenodd"/><path stroke="#ffffff" stroke-width="1.0" stroke-linejoin="round" stroke-linecap="butt" d="m288.0 218.99213c23.149597 0 34.724396 6.0 46.299225 12.0c5.787384 3.0 11.574799 6.0 18.809052 8.25c3.6171265 1.125 7.5959473 2.0625 12.117371 2.71875c2.2607117 0.328125 4.657074 0.5859375 7.2116394 0.761734c0.6386719 0.043930054 1.2872009 0.08274841 1.9459534 0.116256714l0.21691895 0.010070801" fill-rule="evenodd"/><path fill="#ffffff" stroke="#ffffff" stroke-width="1.0" stroke-linecap="butt" d="m374.56073 244.5002l4.5762024 -1.5429535l-4.4973755 -1.7595673z" fill-rule="evenodd"/><path fill="#000000" fill-opacity="0.0" d="m272.0 282.99213c27.149597 0 40.724396 -10.0 54.299225 -20.0c13.574799 -10.0 27.149597 -20.0 54.299194 -20.0" fill-rule="evenodd"/><path stroke="#ffffff" stroke-width="1.0" stroke-linejoin="round" stroke-linecap="butt" d="m272.0 282.99213c27.149597 0 40.724396 -10.0 54.299225 -20.0c13.574799 -10.0 27.149597 -20.0 54.299194 -20.0" fill-rule="evenodd"/><path fill="#000000" fill-opacity="0.0" d="m112.000656 304.0c-5.333336 2.6666565 -21.333336 18.666656 -32.0 16.0c-10.666664 -2.6666565 -25.333332 -9.3333435 -32.0 -32.0c-6.666668 -22.666656 -9.333332 -66.66667 -8.0 -104.0c1.3333321 -37.33333 9.333332 -96.0 16.0 -120.0c6.666668 -24.0 16.0 -22.666668 24.0 -24.0c8.0 -1.3333321 18.666664 10.666668 24.0 16.0c5.333336 5.333332 6.666664 13.333336 8.0 16.0" fill-rule="evenodd"/><path stroke="#ffffff" stroke-width="1.0" stroke-linejoin="round" stroke-linecap="butt" d="m112.000656 304.0c-5.333336 2.6666565 -21.333336 18.666656 -32.0 16.0c-10.666664 -2.6666565 -25.333332 -9.3333435 -32.0 -32.0c-6.666668 -22.666656 -9.333332 -66.66667 -8.0 -104.0c1.3333321 -37.33333 9.333332 -96.0 16.0 -120.0c6.666668 -24.0 16.0 -22.666668 24.0 -24.0c8.0 -1.3333321 18.666664 10.666668 24.0 16.0c2.6666641 2.666668 4.333336 6.0 5.5 9.0c0.14583588 0.375 0.28385162 0.7447891 0.41503906 1.1074219l0.08407593 0.23603821" fill-rule="evenodd"/><path fill="#ffffff" stroke="#ffffff" stroke-width="1.0" stroke-linecap="butt" d="m108.4426 66.89427l3.070549 3.7275085l0.043815613 -4.8291397z" fill-rule="evenodd"/><path fill="#000000" fill-opacity="0.0" d="m120.0 104.0l112.0 0l0 35.55905l-112.0 0z" fill-rule="evenodd"/><path fill="#ffffff" d="m135.76562 118.28438l-2.515625 0l0 7.515625l-1.171875 0l0 -7.515625l-2.515625 0l0 -0.984375l6.203125 0l0 0.984375zm6.7028656 7.515625l-4.828125 0l0 -8.5l4.828125 0l0 0.96875l-3.671875 0l0 2.640625l3.53125 0l0 0.96875l-3.53125 0l0 2.9375l3.671875 0l0 0.984375zm7.6716156 -2.296875q0 0.59375 -0.25 1.0625q-0.234375 0.453125 -0.6875 0.75q-0.4375 0.296875 -1.0625 0.453125q-0.625 0.140625 -1.359375 0.140625q-0.34375 0 -0.6875 -0.03125q-0.328125 -0.015625 -0.640625 -0.0625q-0.3125 -0.03125 -0.59375 -0.078125q-0.265625 -0.046875 -0.484375 -0.109375l0 -1.125q0.484375 0.1875 1.09375 0.296875q0.609375 0.09375 1.390625 0.09375q0.5625 0 0.953125 -0.078125q0.390625 -0.09375 0.640625 -0.265625q0.25 -0.171875 0.359375 -0.421875q0.125 -0.25 0.125 -0.5625q0 -0.34375 -0.203125 -0.59375q-0.1875 -0.25 -0.5 -0.4375q-0.3125 -0.1875 -0.71875 -0.34375q-0.390625 -0.171875 -0.8125 -0.328125q-0.40625 -0.171875 -0.8125 -0.375q-0.40625 -0.203125 -0.71875 -0.46875q-0.3125 -0.265625 -0.5 -0.625q-0.1875 -0.375 -0.1875 -0.875q0 -0.4375 0.171875 -0.859375q0.1875 -0.421875 0.5625 -0.75q0.390625 -0.328125 0.984375 -0.53125q0.609375 -0.203125 1.453125 -0.203125q0.203125 0 0.453125 0.03125q0.265625 0.015625 0.515625 0.046875q0.25 0.03125 0.5 0.078125q0.265625 0.046875 0.46875 0.09375l0 1.046875q-0.5 -0.140625 -1.0 -0.21875q-0.5 -0.078125 -0.96875 -0.078125q-1.0 0 -1.46875 0.34375q-0.46875 0.328125 -0.46875 0.890625q0 0.34375 0.1875 0.59375q0.203125 0.234375 0.515625 0.4375q0.3125 0.1875 0.703125 0.359375q0.40625 0.15625 0.8125 0.328125q0.421875 0.15625 0.828125 0.359375q0.40625 0.203125 0.71875 0.484375q0.3125 0.28125 0.5 0.65625q0.1875 0.359375 0.1875 0.875zm7.6091156 -5.21875l-2.515625 0l0 7.515625l-1.171875 0l0 -7.515625l-2.515625 0l0 -0.984375l6.203125 0l0 0.984375zm7.3434906 4.46875l-2.5625 0l0 2.65625l-1.109375 0l0 -2.65625l-2.5625 0l0 -1.0l2.5625 0l0 -2.625l1.109375 0l0 2.625l2.5625 0l0 1.0zm7.0309906 0.75q0 0.59375 -0.25 1.0625q-0.234375 0.453125 -0.6875 0.75q-0.4375 0.296875 -1.0625 0.453125q-0.625 0.140625 -1.359375 0.140625q-0.34375 0 -0.6875 -0.03125q-0.328125 -0.015625 -0.640625 -0.0625q-0.3125 -0.03125 -0.59375 -0.078125q-0.265625 -0.046875 -0.484375 -0.109375l0 -1.125q0.484375 0.1875 1.09375 0.296875q0.609375 0.09375 1.390625 0.09375q0.5625 0 0.953125 -0.078125q0.390625 -0.09375 0.640625 -0.265625q0.25 -0.171875 0.359375 -0.421875q0.125 -0.25 0.125 -0.5625q0 -0.34375 -0.203125 -0.59375q-0.1875 -0.25 -0.5 -0.4375q-0.3125 -0.1875 -0.71875 -0.34375q-0.390625 -0.171875 -0.8125 -0.328125q-0.40625 -0.171875 -0.8125 -0.375q-0.40625 -0.203125 -0.71875 -0.46875q-0.3125 -0.265625 -0.5 -0.625q-0.1875 -0.375 -0.1875 -0.875q0 -0.4375 0.171875 -0.859375q0.1875 -0.421875 0.5625 -0.75q0.390625 -0.328125 0.984375 -0.53125q0.609375 -0.203125 1.453125 -0.203125q0.203125 0 0.453125 0.03125q0.265625 0.015625 0.515625 0.046875q0.25 0.03125 0.5 0.078125q0.265625 0.046875 0.46875 0.09375l0 1.046875q-0.5 -0.140625 -1.0 -0.21875q-0.5 -0.078125 -0.96875 -0.078125q-1.0 0 -1.46875 0.34375q-0.46875 0.328125 -0.46875 0.890625q0 0.34375 0.1875 0.59375q0.203125 0.234375 0.515625 0.4375q0.3125 0.1875 0.703125 0.359375q0.40625 0.15625 0.8125 0.328125q0.421875 0.15625 0.828125 0.359375q0.40625 0.203125 0.71875 0.484375q0.3125 0.28125 0.5 0.65625q0.1875 0.359375 0.1875 0.875zm6.9841156 2.296875l-4.828125 0l0 -8.5l4.828125 0l0 0.96875l-3.671875 0l0 2.640625l3.53125 0l0 0.96875l-3.53125 0l0 2.9375l3.671875 0l0 0.984375zm8.030991 0l-1.3125 0l-1.265625 -2.71875q-0.140625 -0.3125 -0.296875 -0.515625q-0.15625 -0.203125 -0.328125 -0.328125q-0.171875 -0.125 -0.375 -0.171875q-0.203125 -0.046875 -0.453125 -0.046875l-0.546875 0l0 3.78125l-1.15625 0l0 -8.5l2.28125 0q0.734375 0 1.265625 0.15625q0.53125 0.15625 0.875 0.453125q0.34375 0.296875 0.5 0.71875q0.171875 0.40625 0.171875 0.90625q0 0.390625 -0.125 0.75q-0.109375 0.359375 -0.34375 0.65625q-0.234375 0.28125 -0.578125 0.5q-0.34375 0.203125 -0.78125 0.3125q0.359375 0.109375 0.609375 0.421875q0.25 0.3125 0.515625 0.828125l1.34375 2.796875zm-1.859375 -6.171875q0 -0.6875 -0.4375 -1.015625q-0.421875 -0.34375 -1.1875 -0.34375l-1.09375 0l0 2.8125l0.9375 0q0.40625 0 0.734375 -0.09375q0.328125 -0.09375 0.5625 -0.28125q0.234375 -0.1875 0.359375 -0.453125q0.125 -0.265625 0.125 -0.625zm9.640366 -2.328125l-2.890625 8.5l-1.5625 0l-2.8125 -8.5l1.296875 0l1.84375 5.734375l0.515625 1.671875l0.53125 -1.671875l1.84375 -5.734375l1.234375 0zm3.1091156 0.96875l-1.953125 0l0 -0.96875l5.078125 0l0 0.96875l-1.953125 0l0 6.546875l1.953125 0l0 0.984375l-5.078125 0l0 -0.984375l1.953125 0l0 -6.546875zm10.718491 7.21875q-1.015625 0.421875 -2.140625 0.421875q-1.796875 0 -2.765625 -1.078125q-0.96875 -1.078125 -0.96875 -3.1875q0 -1.03125 0.265625 -1.84375q0.265625 -0.828125 0.765625 -1.40625q0.5 -0.578125 1.203125 -0.890625q0.703125 -0.3125 1.578125 -0.3125q0.578125 0 1.078125 0.109375q0.515625 0.09375 0.984375 0.296875l0 1.140625q-0.453125 -0.25 -0.953125 -0.375q-0.484375 -0.140625 -1.078125 -0.140625q-0.59375 0 -1.078125 0.234375q-0.484375 0.21875 -0.828125 0.640625q-0.34375 0.421875 -0.53125 1.046875q-0.171875 0.609375 -0.171875 1.390625q0 1.65625 0.671875 2.5q0.671875 0.828125 1.96875 0.828125q0.546875 0 1.046875 -0.125q0.5 -0.125 0.953125 -0.34375l0 1.09375zm6.9997406 0.3125l-4.828125 0l0 -8.5l4.828125 0l0 0.96875l-3.671875 0l0 2.640625l3.53125 0l0 0.96875l-3.53125 0l0 2.9375l3.671875 0l0 0.984375z" fill-rule="nonzero"/><path fill="#000000" fill-opacity="0.0" d="m320.0 132.44095l112.0 0l0 35.55905l-112.0 0z" fill-rule="evenodd"/><path fill="#ffffff" d="m335.76562 146.72533l-2.515625 0l0 7.515625l-1.171875 0l0 -7.515625l-2.515625 0l0 -0.984375l6.203125 0l0 0.984375zm6.702881 7.515625l-4.828125 0l0 -8.5l4.828125 0l0 0.96875l-3.671875 0l0 2.640625l3.53125 0l0 0.96875l-3.53125 0l0 2.9375l3.671875 0l0 0.984375zm7.6716003 -2.296875q0 0.59375 -0.25 1.0625q-0.234375 0.453125 -0.6875 0.75q-0.4375 0.296875 -1.0625 0.453125q-0.625 0.140625 -1.359375 0.140625q-0.34375 0 -0.6875 -0.03125q-0.328125 -0.015625 -0.640625 -0.0625q-0.3125 -0.03125 -0.59375 -0.078125q-0.265625 -0.046875 -0.484375 -0.109375l0 -1.125q0.484375 0.1875 1.09375 0.296875q0.609375 0.09375 1.390625 0.09375q0.5625 0 0.953125 -0.078125q0.390625 -0.09375 0.640625 -0.265625q0.25 -0.171875 0.359375 -0.421875q0.125 -0.25 0.125 -0.5625q0 -0.34375 -0.203125 -0.59375q-0.1875 -0.25 -0.5 -0.4375q-0.3125 -0.1875 -0.71875 -0.34375q-0.390625 -0.171875 -0.8125 -0.328125q-0.40625 -0.171875 -0.8125 -0.375q-0.40625 -0.203125 -0.71875 -0.46875q-0.3125 -0.265625 -0.5 -0.625q-0.1875 -0.375 -0.1875 -0.875q0 -0.4375 0.171875 -0.859375q0.1875 -0.421875 0.5625 -0.75q0.390625 -0.328125 0.984375 -0.53125q0.609375 -0.203125 1.453125 -0.203125q0.203125 0 0.453125 0.03125q0.265625 0.015625 0.515625 0.046875q0.25 0.03125 0.5 0.078125q0.265625 0.046875 0.46875 0.09375l0 1.046875q-0.5 -0.140625 -1.0 -0.21875q-0.5 -0.078125 -0.96875 -0.078125q-1.0 0 -1.46875 0.34375q-0.46875 0.328125 -0.46875 0.890625q0 0.34375 0.1875 0.59375q0.203125 0.234375 0.515625 0.4375q0.3125 0.1875 0.703125 0.359375q0.40625 0.15625 0.8125 0.328125q0.421875 0.15625 0.828125 0.359375q0.40625 0.203125 0.71875 0.484375q0.3125 0.28125 0.5 0.65625q0.1875 0.359375 0.1875 0.875zm7.6091003 -5.21875l-2.515625 0l0 7.515625l-1.171875 0l0 -7.515625l-2.515625 0l0 -0.984375l6.203125 0l0 0.984375zm7.343506 4.46875l-2.5625 0l0 2.65625l-1.109375 0l0 -2.65625l-2.5625 0l0 -1.0l2.5625 0l0 -2.625l1.109375 0l0 2.625l2.5625 0l0 1.0zm7.031006 0.75q0 0.59375 -0.25 1.0625q-0.234375 0.453125 -0.6875 0.75q-0.4375 0.296875 -1.0625 0.453125q-0.625 0.140625 -1.359375 0.140625q-0.34375 0 -0.6875 -0.03125q-0.328125 -0.015625 -0.640625 -0.0625q-0.3125 -0.03125 -0.59375 -0.078125q-0.265625 -0.046875 -0.484375 -0.109375l0 -1.125q0.484375 0.1875 1.09375 0.296875q0.609375 0.09375 1.390625 0.09375q0.5625 0 0.953125 -0.078125q0.390625 -0.09375 0.640625 -0.265625q0.25 -0.171875 0.359375 -0.421875q0.125 -0.25 0.125 -0.5625q0 -0.34375 -0.203125 -0.59375q-0.1875 -0.25 -0.5 -0.4375q-0.3125 -0.1875 -0.71875 -0.34375q-0.390625 -0.171875 -0.8125 -0.328125q-0.40625 -0.171875 -0.8125 -0.375q-0.40625 -0.203125 -0.71875 -0.46875q-0.3125 -0.265625 -0.5 -0.625q-0.1875 -0.375 -0.1875 -0.875q0 -0.4375 0.171875 -0.859375q0.1875 -0.421875 0.5625 -0.75q0.390625 -0.328125 0.984375 -0.53125q0.609375 -0.203125 1.453125 -0.203125q0.203125 0 0.453125 0.03125q0.265625 0.015625 0.515625 0.046875q0.25 0.03125 0.5 0.078125q0.265625 0.046875 0.46875 0.09375l0 1.046875q-0.5 -0.140625 -1.0 -0.21875q-0.5 -0.078125 -0.96875 -0.078125q-1.0 0 -1.46875 0.34375q-0.46875 0.328125 -0.46875 0.890625q0 0.34375 0.1875 0.59375q0.203125 0.234375 0.515625 0.4375q0.3125 0.1875 0.703125 0.359375q0.40625 0.15625 0.8125 0.328125q0.421875 0.15625 0.828125 0.359375q0.40625 0.203125 0.71875 0.484375q0.3125 0.28125 0.5 0.65625q0.1875 0.359375 0.1875 0.875zm6.9841003 2.296875l-4.828125 0l0 -8.5l4.828125 0l0 0.96875l-3.671875 0l0 2.640625l3.53125 0l0 0.96875l-3.53125 0l0 2.9375l3.671875 0l0 0.984375zm8.030975 0l-1.3125 0l-1.265625 -2.71875q-0.140625 -0.3125 -0.296875 -0.515625q-0.15625 -0.203125 -0.328125 -0.328125q-0.171875 -0.125 -0.375 -0.171875q-0.203125 -0.046875 -0.453125 -0.046875l-0.546875 0l0 3.78125l-1.15625 0l0 -8.5l2.28125 0q0.734375 0 1.265625 0.15625q0.53125 0.15625 0.875 0.453125q0.34375 0.296875 0.5 0.71875q0.171875 0.40625 0.171875 0.90625q0 0.390625 -0.125 0.75q-0.109375 0.359375 -0.34375 0.65625q-0.234375 0.28125 -0.578125 0.5q-0.34375 0.203125 -0.78125 0.3125q0.359375 0.109375 0.609375 0.421875q0.25 0.3125 0.515625 0.828125l1.34375 2.796875zm-1.859375 -6.171875q0 -0.6875 -0.4375 -1.015625q-0.421875 -0.34375 -1.1875 -0.34375l-1.09375 0l0 2.8125l0.9375 0q0.40625 0 0.734375 -0.09375q0.328125 -0.09375 0.5625 -0.28125q0.234375 -0.1875 0.359375 -0.453125q0.125 -0.265625 0.125 -0.625zm9.640381 -2.328125l-2.890625 8.5l-1.5625 0l-2.8125 -8.5l1.296875 0l1.84375 5.734375l0.515625 1.671875l0.53125 -1.671875l1.84375 -5.734375l1.234375 0zm3.1091309 0.96875l-1.953125 0l0 -0.96875l5.078125 0l0 0.96875l-1.953125 0l0 6.546875l1.953125 0l0 0.984375l-5.078125 0l0 -0.984375l1.953125 0l0 -6.546875zm10.718475 7.21875q-1.015625 0.421875 -2.140625 0.421875q-1.796875 0 -2.765625 -1.078125q-0.96875 -1.078125 -0.96875 -3.1875q0 -1.03125 0.265625 -1.84375q0.265625 -0.828125 0.765625 -1.40625q0.5 -0.578125 1.203125 -0.890625q0.703125 -0.3125 1.578125 -0.3125q0.578125 0 1.078125 0.109375q0.515625 0.09375 0.984375 0.296875l0 1.140625q-0.453125 -0.25 -0.953125 -0.375q-0.484375 -0.140625 -1.078125 -0.140625q-0.59375 0 -1.078125 0.234375q-0.484375 0.21875 -0.828125 0.640625q-0.34375 0.421875 -0.53125 1.046875q-0.171875 0.609375 -0.171875 1.390625q0 1.65625 0.671875 2.5q0.671875 0.828125 1.96875 0.828125q0.546875 0 1.046875 -0.125q0.5 -0.125 0.953125 -0.34375l0 1.09375zm6.9997253 0.3125l-4.828125 0l0 -8.5l4.828125 0l0 0.96875l-3.671875 0l0 2.640625l3.53125 0l0 0.96875l-3.53125 0l0 2.9375l3.671875 0l0 0.984375z" fill-rule="nonzero"/><path fill="#000000" fill-opacity="0.0" d="m328.0 252.44095l112.0 0l0 35.55905l-112.0 0z" fill-rule="evenodd"/><path fill="#ffffff" d="m343.48438 271.94406q0 0.59375 -0.25 1.0625q-0.234375 0.453125 -0.6875 0.75q-0.4375 0.296875 -1.0625 0.453125q-0.625 0.140625 -1.359375 0.140625q-0.34375 0 -0.6875 -0.03125q-0.328125 -0.015625 -0.640625 -0.0625q-0.3125 -0.03125 -0.59375 -0.078125q-0.265625 -0.046875 -0.484375 -0.109375l0 -1.125q0.484375 0.1875 1.09375 0.296875q0.609375 0.09375 1.390625 0.09375q0.5625 0 0.953125 -0.078125q0.390625 -0.09375 0.640625 -0.265625q0.25 -0.171875 0.359375 -0.421875q0.125 -0.25 0.125 -0.5625q0 -0.34375 -0.203125 -0.59375q-0.1875 -0.25 -0.5 -0.4375q-0.3125 -0.1875 -0.71875 -0.34375q-0.390625 -0.171875 -0.8125 -0.328125q-0.40625 -0.171875 -0.8125 -0.375q-0.40625 -0.203125 -0.71875 -0.46875q-0.3125 -0.265625 -0.5 -0.625q-0.1875 -0.375 -0.1875 -0.875q0 -0.4375 0.171875 -0.859375q0.1875 -0.421875 0.5625 -0.75q0.390625 -0.328125 0.984375 -0.53125q0.609375 -0.203125 1.453125 -0.203125q0.203125 0 0.453125 0.03125q0.265625 0.015625 0.515625 0.046875q0.25 0.03125 0.5 0.078125q0.265625 0.046875 0.46875 0.09375l0 1.046875q-0.5 -0.140625 -1.0 -0.21875q-0.5 -0.078125 -0.96875 -0.078125q-1.0 0 -1.46875 0.34375q-0.46875 0.328125 -0.46875 0.890625q0 0.34375 0.1875 0.59375q0.203125 0.234375 0.515625 0.4375q0.3125 0.1875 0.703125 0.359375q0.40625 0.15625 0.8125 0.328125q0.421875 0.15625 0.828125 0.359375q0.40625 0.203125 0.71875 0.484375q0.3125 0.28125 0.5 0.65625q0.1875 0.359375 0.1875 0.875zm6.984131 2.296875l-4.828125 0l0 -8.5l4.828125 0l0 0.96875l-3.671875 0l0 2.640625l3.53125 0l0 0.96875l-3.53125 0l0 2.9375l3.671875 0l0 0.984375zm8.030975 0l-1.3125 0l-1.265625 -2.71875q-0.140625 -0.3125 -0.296875 -0.515625q-0.15625 -0.203125 -0.328125 -0.328125q-0.171875 -0.125 -0.375 -0.171875q-0.203125 -0.046875 -0.453125 -0.046875l-0.546875 0l0 3.78125l-1.15625 0l0 -8.5l2.28125 0q0.734375 0 1.265625 0.15625q0.53125 0.15625 0.875 0.453125q0.34375 0.296875 0.5 0.71875q0.171875 0.40625 0.171875 0.90625q0 0.390625 -0.125 0.75q-0.109375 0.359375 -0.34375 0.65625q-0.234375 0.28125 -0.578125 0.5q-0.34375 0.203125 -0.78125 0.3125q0.359375 0.109375 0.609375 0.421875q0.25 0.3125 0.515625 0.828125l1.34375 2.796875zm-1.859375 -6.171875q0 -0.6875 -0.4375 -1.015625q-0.421875 -0.34375 -1.1875 -0.34375l-1.09375 0l0 2.8125l0.9375 0q0.40625 0 0.734375 -0.09375q0.328125 -0.09375 0.5625 -0.28125q0.234375 -0.1875 0.359375 -0.453125q0.125 -0.265625 0.125 -0.625zm9.64035 -2.328125l-2.890625 8.5l-1.5625 0l-2.8125 -8.5l1.296875 0l1.84375 5.734375l0.515625 1.671875l0.53125 -1.671875l1.84375 -5.734375l1.234375 0zm3.1091309 0.96875l-1.953125 0l0 -0.96875l5.078125 0l0 0.96875l-1.953125 0l0 6.546875l1.953125 0l0 0.984375l-5.078125 0l0 -0.984375l1.953125 0l0 -6.546875zm10.718506 7.21875q-1.015625 0.421875 -2.140625 0.421875q-1.796875 0 -2.765625 -1.078125q-0.96875 -1.078125 -0.96875 -3.1875q0 -1.03125 0.265625 -1.84375q0.265625 -0.828125 0.765625 -1.40625q0.5 -0.578125 1.203125 -0.890625q0.703125 -0.3125 1.578125 -0.3125q0.578125 0 1.078125 0.109375q0.515625 0.09375 0.984375 0.296875l0 1.140625q-0.453125 -0.25 -0.953125 -0.375q-0.484375 -0.140625 -1.078125 -0.140625q-0.59375 0 -1.078125 0.234375q-0.484375 0.21875 -0.828125 0.640625q-0.34375 0.421875 -0.53125 1.046875q-0.171875 0.609375 -0.171875 1.390625q0 1.65625 0.671875 2.5q0.671875 0.828125 1.96875 0.828125q0.546875 0 1.046875 -0.125q0.5 -0.125 0.953125 -0.34375l0 1.09375zm6.9997253 0.3125l-4.828125 0l0 -8.5l4.828125 0l0 0.96875l-3.671875 0l0 2.640625l3.53125 0l0 0.96875l-3.53125 0l0 2.9375l3.671875 0l0 0.984375z" fill-rule="nonzero"/><path fill="#000000" fill-opacity="0.0" d="m120.0 164.44095l56.0 0l0 35.55905l-56.0 0z" fill-rule="evenodd"/><path fill="#ffffff" d="m135.76562 178.72533l-2.515625 0l0 7.515625l-1.171875 0l0 -7.515625l-2.515625 0l0 -0.984375l6.203125 0l0 0.984375zm6.7028656 7.515625l-4.828125 0l0 -8.5l4.828125 0l0 0.96875l-3.671875 0l0 2.640625l3.53125 0l0 0.96875l-3.53125 0l0 2.9375l3.671875 0l0 0.984375zm7.6716156 -2.296875q0 0.59375 -0.25 1.0625q-0.234375 0.453125 -0.6875 0.75q-0.4375 0.296875 -1.0625 0.453125q-0.625 0.140625 -1.359375 0.140625q-0.34375 0 -0.6875 -0.03125q-0.328125 -0.015625 -0.640625 -0.0625q-0.3125 -0.03125 -0.59375 -0.078125q-0.265625 -0.046875 -0.484375 -0.109375l0 -1.125q0.484375 0.1875 1.09375 0.296875q0.609375 0.09375 1.390625 0.09375q0.5625 0 0.953125 -0.078125q0.390625 -0.09375 0.640625 -0.265625q0.25 -0.171875 0.359375 -0.421875q0.125 -0.25 0.125 -0.5625q0 -0.34375 -0.203125 -0.59375q-0.1875 -0.25 -0.5 -0.4375q-0.3125 -0.1875 -0.71875 -0.34375q-0.390625 -0.171875 -0.8125 -0.328125q-0.40625 -0.171875 -0.8125 -0.375q-0.40625 -0.203125 -0.71875 -0.46875q-0.3125 -0.265625 -0.5 -0.625q-0.1875 -0.375 -0.1875 -0.875q0 -0.4375 0.171875 -0.859375q0.1875 -0.421875 0.5625 -0.75q0.390625 -0.328125 0.984375 -0.53125q0.609375 -0.203125 1.453125 -0.203125q0.203125 0 0.453125 0.03125q0.265625 0.015625 0.515625 0.046875q0.25 0.03125 0.5 0.078125q0.265625 0.046875 0.46875 0.09375l0 1.046875q-0.5 -0.140625 -1.0 -0.21875q-0.5 -0.078125 -0.96875 -0.078125q-1.0 0 -1.46875 0.34375q-0.46875 0.328125 -0.46875 0.890625q0 0.34375 0.1875 0.59375q0.203125 0.234375 0.515625 0.4375q0.3125 0.1875 0.703125 0.359375q0.40625 0.15625 0.8125 0.328125q0.421875 0.15625 0.828125 0.359375q0.40625 0.203125 0.71875 0.484375q0.3125 0.28125 0.5 0.65625q0.1875 0.359375 0.1875 0.875zm7.6091156 -5.21875l-2.515625 0l0 7.515625l-1.171875 0l0 -7.515625l-2.515625 0l0 -0.984375l6.203125 0l0 0.984375z" fill-rule="nonzero"/><path fill="#000000" fill-opacity="0.0" d="m120.0 228.44095l56.0 0l0 35.55905l-56.0 0z" fill-rule="evenodd"/><path fill="#ffffff" d="m135.76562 242.72533l-2.515625 0l0 7.515625l-1.171875 0l0 -7.515625l-2.515625 0l0 -0.984375l6.203125 0l0 0.984375zm6.7028656 7.515625l-4.828125 0l0 -8.5l4.828125 0l0 0.96875l-3.671875 0l0 2.640625l3.53125 0l0 0.96875l-3.53125 0l0 2.9375l3.671875 0l0 0.984375zm7.6716156 -2.296875q0 0.59375 -0.25 1.0625q-0.234375 0.453125 -0.6875 0.75q-0.4375 0.296875 -1.0625 0.453125q-0.625 0.140625 -1.359375 0.140625q-0.34375 0 -0.6875 -0.03125q-0.328125 -0.015625 -0.640625 -0.0625q-0.3125 -0.03125 -0.59375 -0.078125q-0.265625 -0.046875 -0.484375 -0.109375l0 -1.125q0.484375 0.1875 1.09375 0.296875q0.609375 0.09375 1.390625 0.09375q0.5625 0 0.953125 -0.078125q0.390625 -0.09375 0.640625 -0.265625q0.25 -0.171875 0.359375 -0.421875q0.125 -0.25 0.125 -0.5625q0 -0.34375 -0.203125 -0.59375q-0.1875 -0.25 -0.5 -0.4375q-0.3125 -0.1875 -0.71875 -0.34375q-0.390625 -0.171875 -0.8125 -0.328125q-0.40625 -0.171875 -0.8125 -0.375q-0.40625 -0.203125 -0.71875 -0.46875q-0.3125 -0.265625 -0.5 -0.625q-0.1875 -0.375 -0.1875 -0.875q0 -0.4375 0.171875 -0.859375q0.1875 -0.421875 0.5625 -0.75q0.390625 -0.328125 0.984375 -0.53125q0.609375 -0.203125 1.453125 -0.203125q0.203125 0 0.453125 0.03125q0.265625 0.015625 0.515625 0.046875q0.25 0.03125 0.5 0.078125q0.265625 0.046875 0.46875 0.09375l0 1.046875q-0.5 -0.140625 -1.0 -0.21875q-0.5 -0.078125 -0.96875 -0.078125q-1.0 0 -1.46875 0.34375q-0.46875 0.328125 -0.46875 0.890625q0 0.34375 0.1875 0.59375q0.203125 0.234375 0.515625 0.4375q0.3125 0.1875 0.703125 0.359375q0.40625 0.15625 0.8125 0.328125q0.421875 0.15625 0.828125 0.359375q0.40625 0.203125 0.71875 0.484375q0.3125 0.28125 0.5 0.65625q0.1875 0.359375 0.1875 0.875zm7.6091156 -5.21875l-2.515625 0l0 7.515625l-1.171875 0l0 -7.515625l-2.515625 0l0 -0.984375l6.203125 0l0 0.984375z" fill-rule="nonzero"/><path fill="#000000" fill-opacity="0.0" d="m104.0 296.0l56.0 0l0 35.55905l-56.0 0z" fill-rule="evenodd"/><path fill="#ffffff" d="m119.765625 310.28436l-2.515625 0l0 7.515625l-1.171875 0l0 -7.515625l-2.515625 0l0 -0.984375l6.203125 0l0 0.984375zm6.7028656 7.515625l-4.828125 0l0 -8.5l4.828125 0l0 0.96875l-3.671875 0l0 2.640625l3.53125 0l0 0.96875l-3.53125 0l0 2.9375l3.671875 0l0 0.984375zm7.6716156 -2.296875q0 0.59375 -0.25 1.0625q-0.234375 0.453125 -0.6875 0.75q-0.4375 0.296875 -1.0625 0.453125q-0.625 0.140625 -1.359375 0.140625q-0.34375 0 -0.6875 -0.03125q-0.328125 -0.015625 -0.640625 -0.0625q-0.3125 -0.03125 -0.59375 -0.078125q-0.265625 -0.046875 -0.484375 -0.109375l0 -1.125q0.484375 0.1875 1.09375 0.296875q0.609375 0.09375 1.390625 0.09375q0.5625 0 0.953125 -0.078125q0.390625 -0.09375 0.640625 -0.265625q0.25 -0.171875 0.359375 -0.421875q0.125 -0.25 0.125 -0.5625q0 -0.34375 -0.203125 -0.59375q-0.1875 -0.25 -0.5 -0.4375q-0.3125 -0.1875 -0.71875 -0.34375q-0.390625 -0.171875 -0.8125 -0.328125q-0.40625 -0.171875 -0.8125 -0.375q-0.40625 -0.203125 -0.71875 -0.46875q-0.3125 -0.265625 -0.5 -0.625q-0.1875 -0.375 -0.1875 -0.875q0 -0.4375 0.171875 -0.859375q0.1875 -0.421875 0.5625 -0.75q0.390625 -0.328125 0.984375 -0.53125q0.609375 -0.203125 1.453125 -0.203125q0.203125 0 0.453125 0.03125q0.265625 0.015625 0.515625 0.046875q0.25 0.03125 0.5 0.078125q0.265625 0.046875 0.46875 0.09375l0 1.046875q-0.5 -0.140625 -1.0 -0.21875q-0.5 -0.078125 -0.96875 -0.078125q-1.0 0 -1.46875 0.34375q-0.46875 0.328125 -0.46875 0.890625q0 0.34375 0.1875 0.59375q0.203125 0.234375 0.515625 0.4375q0.3125 0.1875 0.703125 0.359375q0.40625 0.15625 0.8125 0.328125q0.421875 0.15625 0.828125 0.359375q0.40625 0.203125 0.71875 0.484375q0.3125 0.28125 0.5 0.65625q0.1875 0.359375 0.1875 0.875zm7.6091156 -5.21875l-2.515625 0l0 7.515625l-1.171875 0l0 -7.515625l-2.515625 0l0 -0.984375l6.203125 0l0 0.984375z" fill-rule="nonzero"/></g></svg>