<svg version="1.1" viewBox="0.0 0.0 771.0787401574803 357.0524934383202" fill="none" stroke="none" stroke-linecap="square" stroke-miterlimit="10" xmlns:xlink="http://www.w3.org/1999/xlink" xmlns="http://www.w3.org/2000/svg"><clipPath id="p.0"><path d="m0 0l771.07874 0l0 357.0525l-771.07874 0l0 -357.0525z" clip-rule="nonzero"/></clipPath><g clip-path="url(#p.0)"><path fill="#000000" fill-opacity="0.0" d="m0 0l771.07874 0l0 357.0525l-771.07874 0z" fill-rule="evenodd"/><path fill="#000000" fill-opacity="0.0" d="m60.598427 69.98425l160.31497 0l0 42.015747l-160.31497 0z" fill-rule="evenodd"/><path fill="#ffffff" d="m85.62968 83.623q2.671875 2.671875 2.671875 6.453125q0 3.78125 -2.671875 6.453125q-2.671875 2.671875 -6.453125 2.671875q-3.78125 0 -6.453125 -2.671875q-2.671875 -2.671875 -2.671875 -6.453125q0 -3.78125 2.671875 -6.453125q2.671875 -2.671875 6.453125 -2.671875q3.78125 0 6.453125 2.671875zm-0.515625 12.390625q2.453125 -2.453125 2.453125 -5.9375q0 -3.484375 -2.453125 -5.9375q-2.453125 -2.453125 -5.9375 -2.453125q-3.484375 0 -5.9375 2.453125q-2.453125 2.453125 -2.453125 5.9375q0 3.484375 2.453125 5.9375q2.453125 2.453125 5.9375 2.453125q3.484375 0 5.9375 -2.453125zm-4.828125 -12.390625l0 12.6875l-1.703125 0l0 -9.953125l-2.890625 0l0 -1.1875q2.734375 0.15625 3.484375 -1.546875l1.109375 0z" fill-rule="nonzero"/><path fill="#ffffff" d="m95.203606 96.90425l0 -13.359375l1.8125 0l7.015625 10.484375l0 -10.484375l1.6875 0l0 13.359375l-1.8125 0l-7.015625 -10.5l0 10.5l-1.6875 0zm12.676071 -4.84375q0 -2.6875 1.484375 -3.96875q1.25 -1.078125 3.046875 -1.078125q2.0 0 3.265625 1.3125q1.265625 1.296875 1.265625 3.609375q0 1.859375 -0.5625 2.9375q-0.5625 1.0625 -1.640625 1.65625q-1.0625 0.59375 -2.328125 0.59375q-2.03125 0 -3.28125 -1.296875q-1.25 -1.3125 -1.25 -3.765625zm1.6875 0q0 1.859375 0.796875 2.796875q0.8125 0.921875 2.046875 0.921875q1.21875 0 2.03125 -0.921875q0.8125 -0.9375 0.8125 -2.84375q0 -1.796875 -0.8125 -2.71875q-0.8125 -0.921875 -2.03125 -0.921875q-1.234375 0 -2.046875 0.921875q-0.796875 0.90625 -0.796875 2.765625zm9.281967 4.84375l0 -9.671875l1.46875 0l0 1.46875q0.5625 -1.03125 1.03125 -1.359375q0.484375 -0.328125 1.0625 -0.328125q0.828125 0 1.6875 0.53125l-0.5625 1.515625q-0.609375 -0.359375 -1.203125 -0.359375q-0.546875 0 -0.96875 0.328125q-0.421875 0.328125 -0.609375 0.890625q-0.28125 0.875 -0.28125 1.921875l0 5.0625l-1.625 0zm6.228302 0l0 -9.671875l1.46875 0l0 1.359375q0.453125 -0.71875 1.203125 -1.140625q0.7656174 -0.4375 1.7187424 -0.4375q1.078125 0 1.765625 0.453125q0.6875 0.4375 0.96875 1.234375q1.15625 -1.6875 2.984375 -1.6875q1.453125 0 2.21875 0.796875q0.78125 0.796875 0.78125 2.453125l0 6.640625l-1.640625 0l0 -6.09375q0 -0.984375 -0.15625 -1.40625q-0.15625 -0.4375 -0.578125 -0.703125q-0.421875 -0.265625 -0.984375 -0.265625q-1.015625 0 -1.6875 0.6875q-0.671875 0.671875 -0.671875 2.15625l0 5.625l-1.640625 0l0 -6.28125q0 -1.09375 -0.40625 -1.640625q-0.40625 -0.546875 -1.3125 -0.546875q-0.6875 0 -1.2812424 0.359375q-0.59375 0.359375 -0.859375 1.0625q-0.25 0.703125 -0.25 2.03125l0 5.015625l-1.640625 0zm21.853294 -1.1875q-0.921875 0.765625 -1.765625 1.09375q-0.828125 0.3125 -1.796875 0.3125q-1.59375 0 -2.453125 -0.78125q-0.859375 -0.78125 -0.859375 -1.984375q0 -0.71875 0.328125 -1.296875q0.328125 -0.59375 0.84375 -0.9375q0.53125 -0.359375 1.1875 -0.546875q0.46875 -0.125 1.453125 -0.25q1.984375 -0.234375 2.921875 -0.5625q0.015625 -0.34375 0.015625 -0.421875q0 -1.0 -0.46875 -1.421875q-0.625 -0.546875 -1.875 -0.546875q-1.15625 0 -1.703125 0.40625q-0.546875 0.40625 -0.8125 1.421875l-1.609375 -0.21875q0.21875 -1.015625 0.71875 -1.640625q0.5 -0.640625 1.453125 -0.984375q0.953125 -0.34375 2.1875 -0.34375q1.25 0 2.015625 0.296875q0.78125 0.28125 1.140625 0.734375q0.375 0.4375 0.515625 1.109375q0.078125 0.421875 0.078125 1.515625l0 2.1875q0 2.28125 0.109375 2.890625q0.109375 0.59375 0.40625 1.15625l-1.703125 0q-0.265625 -0.515625 -0.328125 -1.1875zm-0.140625 -3.671875q-0.890625 0.375 -2.671875 0.625q-1.015625 0.140625 -1.4375 0.328125q-0.421875 0.1875 -0.65625 0.53125q-0.21875 0.34375 -0.21875 0.78125q0 0.65625 0.5 1.09375q0.5 0.4375 1.453125 0.4375q0.9375 0 1.671875 -0.40625q0.75 -0.421875 1.09375 -1.140625q0.265625 -0.5625 0.265625 -1.640625l0 -0.609375zm4.156967 4.859375l0 -13.359375l1.640625 0l0 13.359375l-1.640625 0zm9.375 0l0 -9.671875l1.46875 0l0 1.359375q0.453125 -0.71875 1.203125 -1.140625q0.765625 -0.4375 1.71875 -0.4375q1.078125 0 1.765625 0.453125q0.6875 0.4375 0.96875 1.234375q1.15625 -1.6875 2.984375 -1.6875q1.453125 0 2.21875 0.796875q0.78125 0.796875 0.78125 2.453125l0 6.640625l-1.640625 0l0 -6.09375q0 -0.984375 -0.15625 -1.40625q-0.15625 -0.4375 -0.578125 -0.703125q-0.421875 -0.265625 -0.984375 -0.265625q-1.015625 0 -1.6875 0.6875q-0.671875 0.671875 -0.671875 2.15625l0 5.625l-1.640625 0l0 -6.28125q0 -1.09375 -0.40625 -1.640625q-0.40625 -0.546875 -1.3125 -0.546875q-0.6875 0 -1.28125 0.359375q-0.59375 0.359375 -0.859375 1.0625q-0.25 0.703125 -0.25 2.03125l0 5.015625l-1.640625 0zm14.931427 -4.84375q0 -2.6875 1.484375 -3.96875q1.25 -1.078125 3.046875 -1.078125q2.0 0 3.265625 1.3125q1.265625 1.296875 1.265625 3.609375q0 1.859375 -0.5625 2.9375q-0.5625 1.0625 -1.640625 1.65625q-1.0625 0.59375 -2.328125 0.59375q-2.03125 0 -3.28125 -1.296875q-1.25 -1.3125 -1.25 -3.765625zm1.6875 0q0 1.859375 0.796875 2.796875q0.8125 0.921875 2.046875 0.921875q1.21875 0 2.03125 -0.921875q0.8125 -0.9375 0.8125 -2.84375q0 -1.796875 -0.8125 -2.71875q-0.8125 -0.921875 -2.03125 -0.921875q-1.234375 0 -2.046875 0.921875q-0.796875 0.90625 -0.796875 2.765625zm15.563217 4.84375l0 -1.21875q-0.90625 1.4375 -2.703125 1.4375q-1.15625 0 -2.125 -0.640625q-0.96875 -0.640625 -1.5 -1.78125q-0.53125 -1.140625 -0.53125 -2.625q0 -1.453125 0.484375 -2.625q0.484375 -1.1875 1.4375 -1.8125q0.96875 -0.625 2.171875 -0.625q0.875 0 1.546875 0.375q0.6875 0.359375 1.109375 0.953125l0 -4.796875l1.640625 0l0 13.359375l-1.53125 0zm-5.171875 -4.828125q0 1.859375 0.78125 2.78125q0.78125 0.921875 1.84375 0.921875q1.078125 0 1.828125 -0.875q0.75 -0.890625 0.75 -2.6875q0 -1.984375 -0.765625 -2.90625q-0.765625 -0.9375 -1.890625 -0.9375q-1.078125 0 -1.8125 0.890625q-0.734375 0.890625 -0.734375 2.8125zm15.906967 1.71875l1.6875 0.203125q-0.40625 1.484375 -1.484375 2.3125q-1.078125 0.8125 -2.765625 0.8125q-2.125 0 -3.375 -1.296875q-1.234375 -1.3125 -1.234375 -3.671875q0 -2.453125 1.25 -3.796875q1.265625 -1.34375 3.265625 -1.34375q1.9375 0 3.15625 1.328125q1.234375 1.3125 1.234375 3.703125q0 0.15625 0 0.4375l-7.21875 0q0.09375 1.59375 0.90625 2.453125q0.8125 0.84375 2.015625 0.84375q0.90625 0 1.546875 -0.46875q0.640625 -0.484375 1.015625 -1.515625zm-5.390625 -2.65625l5.40625 0q-0.109375 -1.21875 -0.625 -1.828125q-0.78125 -0.953125 -2.03125 -0.953125q-1.125 0 -1.90625 0.765625q-0.765625 0.75 -0.84375 2.015625z" fill-rule="nonzero"/><path fill="#000000" fill-opacity="0.0" d="m60.598427 133.98425l216.97638 0l0 42.015747l-216.97638 0z" fill-rule="evenodd"/><path fill="#ffffff" d="m83.03593 151.1855q0 1.484375 -1.046875 2.671875q-0.890625 0.8125 -2.296875 1.84375q-2.515625 1.859375 -2.890625 2.96875l6.609375 0l0 1.640625l-8.546875 0l0 -1.484375q0.75 -1.78125 2.671875 -3.34375q2.078125 -1.625 2.90625 -2.453125q0.8125 -0.734375 0.8125 -1.84375q0 -0.96875 -0.671875 -1.640625q-0.4375 -0.4375 -1.484375 -0.4375q-1.03125 0 -1.484375 0.4375q-0.671875 0.671875 -0.515625 1.859375l-1.859375 0q-0.078125 -1.78125 0.96875 -2.828125q1.109375 -1.109375 2.890625 -1.109375q1.78125 0 2.828125 1.046875q1.109375 1.109375 1.109375 2.671875zm2.59375 -3.5625q2.671875 2.671875 2.671875 6.453125q0 3.78125 -2.671875 6.453125q-2.671875 2.671875 -6.453125 2.671875q-3.78125 0 -6.453125 -2.671875q-2.671875 -2.671875 -2.671875 -6.453125q0 -3.78125 2.671875 -6.453125q2.671875 -2.671875 6.453125 -2.671875q3.78125 0 6.453125 2.671875zm-0.515625 12.390625q2.453125 -2.453125 2.453125 -5.9375q0 -3.484375 -2.453125 -5.9375q-2.453125 -2.453125 -5.9375 -2.453125q-3.484375 0 -5.9375 2.453125q-2.453125 2.453125 -2.453125 5.9375q0 3.484375 2.453125 5.9375q2.453125 2.453125 5.9375 2.453125q3.484375 0 5.9375 -2.453125z" fill-rule="nonzero"/><path fill="#ffffff" d="m95.141106 160.90425l0 -13.359375l1.78125 0l0 11.78125l6.5625 0l0 1.578125l-8.34375 0zm16.563217 -1.1875q-0.921875 0.765625 -1.765625 1.09375q-0.828125 0.3125 -1.796875 0.3125q-1.59375 0 -2.453125 -0.78125q-0.859375 -0.78125 -0.859375 -1.984375q0 -0.71875 0.328125 -1.296875q0.328125 -0.59375 0.84375 -0.9375q0.53125 -0.359375 1.1875 -0.546875q0.46875 -0.125 1.453125 -0.25q1.984375 -0.234375 2.921875 -0.5625q0.015625 -0.34375 0.015625 -0.421875q0 -1.0 -0.46875 -1.421875q-0.625 -0.546875 -1.875 -0.546875q-1.15625 0 -1.703125 0.40625q-0.546875 0.40625 -0.8125 1.421875l-1.609375 -0.21875q0.21875 -1.015625 0.71875 -1.640625q0.5 -0.640625 1.453125 -0.984375q0.953125 -0.34375 2.1875 -0.34375q1.25 0 2.015625 0.296875q0.78125 0.28125 1.140625 0.734375q0.375 0.4375 0.515625 1.109375q0.078125 0.421875 0.078125 1.515625l0 2.1875q0 2.28125 0.109375 2.890625q0.109375 0.59375 0.40625 1.15625l-1.703125 0q-0.265625 -0.515625 -0.328125 -1.1875zm-0.140625 -3.671875q-0.890625 0.375 -2.671875 0.625q-1.015625 0.140625 -1.4375 0.328125q-0.421875 0.1875 -0.65625 0.53125q-0.21875 0.34375 -0.21875 0.78125q0 0.65625 0.5 1.09375q0.5 0.4375 1.453125 0.4375q0.9375 0 1.671875 -0.40625q0.75 -0.421875 1.09375 -1.140625q0.265625 -0.5625 0.265625 -1.640625l0 -0.609375zm4.125717 8.578125l-0.1875 -1.53125q0.546875 0.140625 0.9375 0.140625q0.546875 0 0.875 -0.1875q0.328125 -0.171875 0.546875 -0.5q0.15625 -0.25 0.5 -1.21875q0.046875 -0.140625 0.140625 -0.40625l-3.671875 -9.6875l1.765625 0l2.015625 5.59375q0.390625 1.078125 0.703125 2.25q0.28125 -1.125 0.671875 -2.203125l2.078125 -5.640625l1.640625 0l-3.6875 9.828125q-0.59375 1.609375 -0.921875 2.203125q-0.4375 0.8125 -1.0 1.1875q-0.5625 0.375 -1.34375 0.375q-0.484375 0 -1.0625 -0.203125zm8.796875 -8.5625q0 -2.6875 1.484375 -3.96875q1.25 -1.078125 3.0468674 -1.078125q2.0 0 3.265625 1.3125q1.265625 1.296875 1.265625 3.609375q0 1.859375 -0.5625 2.9375q-0.5625 1.0625 -1.640625 1.65625q-1.0625 0.59375 -2.328125 0.59375q-2.0312424 0 -3.2812424 -1.296875q-1.25 -1.3125 -1.25 -3.765625zm1.6875 0q0 1.859375 0.796875 2.796875q0.8125 0.921875 2.0468674 0.921875q1.21875 0 2.03125 -0.921875q0.8125 -0.9375 0.8125 -2.84375q0 -1.796875 -0.8125 -2.71875q-0.8125 -0.921875 -2.03125 -0.921875q-1.2343674 0 -2.0468674 0.921875q-0.796875 0.90625 -0.796875 2.765625zm15.62571 4.84375l0 -1.421875q-1.125 1.640625 -3.0625 1.640625q-0.859375 0 -1.609375 -0.328125q-0.734375 -0.328125 -1.09375 -0.828125q-0.359375 -0.5 -0.5 -1.21875q-0.109375 -0.46875 -0.109375 -1.53125l0 -5.984375l1.640625 0l0 5.359375q0 1.28125 0.109375 1.734375q0.15625 0.640625 0.65625 1.015625q0.5 0.375 1.234375 0.375q0.734375 0 1.375 -0.375q0.65625 -0.390625 0.921875 -1.03125q0.265625 -0.65625 0.265625 -1.890625l0 -5.1875l1.640625 0l0 9.671875l-1.46875 0zm7.625717 -1.46875l0.234375 1.453125q-0.6875 0.140625 -1.234375 0.140625q-0.890625 0 -1.390625 -0.28125q-0.484375 -0.28125 -0.6875 -0.734375q-0.203125 -0.46875 -0.203125 -1.9375l0 -5.578125l-1.203125 0l0 -1.265625l1.203125 0l0 -2.390625l1.625 -0.984375l0 3.375l1.65625 0l0 1.265625l-1.65625 0l0 5.671875q0 0.6875 0.078125 0.890625q0.09375 0.203125 0.28125 0.328125q0.203125 0.109375 0.578125 0.109375q0.265625 0 0.71875 -0.0625zm13.100983 -2.078125l1.609375 0.21875q-0.265625 1.65625 -1.359375 2.609375q-1.078125 0.9375 -2.671875 0.9375q-1.984375 0 -3.1875 -1.296875q-1.203125 -1.296875 -1.203125 -3.71875q0 -1.578125 0.515625 -2.75q0.515625 -1.171875 1.578125 -1.75q1.0625 -0.59375 2.3125 -0.59375q1.578125 0 2.578125 0.796875q1.0 0.796875 1.28125 2.265625l-1.59375 0.234375q-0.234375 -0.96875 -0.8125 -1.453125q-0.578125 -0.5 -1.390625 -0.5q-1.234375 0 -2.015625 0.890625q-0.78125 0.890625 -0.78125 2.8125q0 1.953125 0.75 2.84375q0.75 0.875 1.953125 0.875q0.96875 0 1.609375 -0.59375q0.65625 -0.59375 0.828125 -1.828125zm2.40625 -1.296875q0 -2.6875 1.484375 -3.96875q1.25 -1.078125 3.046875 -1.078125q2.0 0 3.265625 1.3125q1.265625 1.296875 1.265625 3.609375q0 1.859375 -0.5625 2.9375q-0.5625 1.0625 -1.640625 1.65625q-1.0625 0.59375 -2.328125 0.59375q-2.03125 0 -3.28125 -1.296875q-1.25 -1.3125 -1.25 -3.765625zm1.6875 0q0 1.859375 0.796875 2.796875q0.8125 0.921875 2.046875 0.921875q1.21875 0 2.03125 -0.921875q0.8125 -0.9375 0.8125 -2.84375q0 -1.796875 -0.8125 -2.71875q-0.8125 -0.921875 -2.03125 -0.921875q-1.234375 0 -2.046875 0.921875q-0.796875 0.90625 -0.796875 2.765625zm9.297592 4.84375l0 -9.671875l1.46875 0l0 1.375q1.0625 -1.59375 3.078125 -1.59375q0.875 0 1.609375 0.3125q0.734375 0.3125 1.09375 0.828125q0.375 0.5 0.515625 1.203125q0.09375 0.453125 0.09375 1.59375l0 5.953125l-1.640625 0l0 -5.890625q0 -1.0 -0.203125 -1.484375q-0.1875 -0.5 -0.671875 -0.796875q-0.484375 -0.296875 -1.140625 -0.296875q-1.046875 0 -1.8125 0.671875q-0.75 0.65625 -0.75 2.515625l0 5.28125l-1.640625 0zm10.766342 0l0 -8.40625l-1.453125 0l0 -1.265625l1.453125 0l0 -1.03125q0 -0.96875 0.171875 -1.453125q0.234375 -0.640625 0.828125 -1.03125q0.59375 -0.390625 1.671875 -0.390625q0.6875 0 1.53125 0.15625l-0.25 1.4375q-0.5 -0.09375 -0.953125 -0.09375q-0.75 0 -1.0625 0.328125q-0.3125 0.3125 -0.3125 1.1875l0 0.890625l1.890625 0l0 1.265625l-1.890625 0l0 8.40625l-1.625 0zm4.792679 -11.46875l0 -1.890625l1.640625 0l0 1.890625l-1.640625 0zm0 11.46875l0 -9.671875l1.640625 0l0 9.671875l-1.640625 0zm3.8323212 0.796875l1.59375 0.234375q0.109375 0.75 0.5625 1.078125q0.609375 0.453125 1.671875 0.453125q1.140625 0 1.75 -0.453125q0.625 -0.453125 0.84375 -1.265625q0.125 -0.5 0.109375 -2.109375q-1.0625 1.265625 -2.671875 1.265625q-2.0 0 -3.09375 -1.4375q-1.09375 -1.4375 -1.09375 -3.453125q0 -1.390625 0.5 -2.5625q0.515625 -1.171875 1.453125 -1.796875q0.953125 -0.640625 2.25 -0.640625q1.703125 0 2.8125 1.375l0 -1.15625l1.515625 0l0 8.359375q0 2.265625 -0.46875 3.203125q-0.453125 0.9375 -1.453125 1.484375q-0.984375 0.546875 -2.453125 0.546875q-1.71875 0 -2.796875 -0.78125q-1.0625 -0.765625 -1.03125 -2.34375zm1.359375 -5.8125q0 1.90625 0.75 2.78125q0.765625 0.875 1.90625 0.875q1.125 0 1.890625 -0.859375q0.765625 -0.875 0.765625 -2.734375q0 -1.78125 -0.796875 -2.671875q-0.78125 -0.90625 -1.890625 -0.90625q-1.09375 0 -1.859375 0.890625q-0.765625 0.875 -0.765625 2.625zm14.512146 5.015625l0 -9.671875l1.46875 0l0 1.359375q0.453125 -0.71875 1.203125 -1.140625q0.765625 -0.4375 1.71875 -0.4375q1.078125 0 1.765625 0.453125q0.6875 0.4375 0.96875 1.234375q1.15625 -1.6875 2.984375 -1.6875q1.453125 0 2.21875 0.796875q0.78125 0.796875 0.78125 2.453125l0 6.640625l-1.640625 0l0 -6.09375q0 -0.984375 -0.15625 -1.40625q-0.15625 -0.4375 -0.578125 -0.703125q-0.421875 -0.265625 -0.984375 -0.265625q-1.015625 0 -1.6875 0.6875q-0.671875 0.671875 -0.671875 2.15625l0 5.625l-1.640625 0l0 -6.28125q0 -1.09375 -0.40625 -1.640625q-0.40625 -0.546875 -1.3125 -0.546875q-0.6875 0 -1.28125 0.359375q-0.59375 0.359375 -0.859375 1.0625q-0.25 0.703125 -0.25 2.03125l0 5.015625l-1.640625 0zm14.931427 -4.84375q0 -2.6875 1.484375 -3.96875q1.25 -1.078125 3.046875 -1.078125q2.0 0 3.265625 1.3125q1.265625 1.296875 1.265625 3.609375q0 1.859375 -0.5625 2.9375q-0.5625 1.0625 -1.640625 1.65625q-1.0625 0.59375 -2.328125 0.59375q-2.03125 0 -3.28125 -1.296875q-1.25 -1.3125 -1.25 -3.765625zm1.6875 0q0 1.859375 0.796875 2.796875q0.8125 0.921875 2.046875 0.921875q1.21875 0 2.03125 -0.921875q0.8125 -0.9375 0.8125 -2.84375q0 -1.796875 -0.8125 -2.71875q-0.8125 -0.921875 -2.03125 -0.921875q-1.234375 0 -2.046875 0.921875q-0.796875 0.90625 -0.796875 2.765625zm15.563217 4.84375l0 -1.21875q-0.90625 1.4375 -2.703125 1.4375q-1.15625 0 -2.125 -0.640625q-0.96875 -0.640625 -1.5 -1.78125q-0.53125 -1.140625 -0.53125 -2.625q0 -1.453125 0.484375 -2.625q0.484375 -1.1875 1.4375 -1.8125q0.96875 -0.625 2.171875 -0.625q0.875 0 1.546875 0.375q0.6875 0.359375 1.109375 0.953125l0 -4.796875l1.640625 0l0 13.359375l-1.53125 0zm-5.171875 -4.828125q0 1.859375 0.78125 2.78125q0.78125 0.921875 1.84375 0.921875q1.078125 0 1.828125 -0.875q0.75 -0.890625 0.75 -2.6875q0 -1.984375 -0.765625 -2.90625q-0.765625 -0.9375 -1.890625 -0.9375q-1.078125 0 -1.8125 0.890625q-0.734375 0.890625 -0.734375 2.8125zm15.906967 1.71875l1.6875 0.203125q-0.40625 1.484375 -1.484375 2.3125q-1.078125 0.8125 -2.765625 0.8125q-2.125 0 -3.375 -1.296875q-1.234375 -1.3125 -1.234375 -3.671875q0 -2.453125 1.25 -3.796875q1.265625 -1.34375 3.265625 -1.34375q1.9375 0 3.15625 1.328125q1.234375 1.3125 1.234375 3.703125q0 0.15625 0 0.4375l-7.21875 0q0.09375 1.59375 0.90625 2.453125q0.8125 0.84375 2.015625 0.84375q0.90625 0 1.546875 -0.46875q0.640625 -0.484375 1.015625 -1.515625zm-5.390625 -2.65625l5.40625 0q-0.109375 -1.21875 -0.625 -1.828125q-0.78125 -0.953125 -2.03125 -0.953125q-1.125 0 -1.90625 0.765625q-0.765625 0.75 -0.84375 2.015625z" fill-rule="nonzero"/><path fill="#000000" fill-opacity="0.0" d="m60.598427 197.98425l237.79529 0l0 42.015747l-237.79529 0z" fill-rule="evenodd"/><path fill="#ffffff" d="m85.62968 211.623q2.671875 2.671875 2.671875 6.453125q0 3.78125 -2.671875 6.453125q-2.671875 2.671875 -6.453125 2.671875q-3.78125 0 -6.453125 -2.671875q-2.671875 -2.671875 -2.671875 -6.453125q0 -3.78125 2.671875 -6.453125q2.671875 -2.671875 6.453125 -2.671875q3.78125 0 6.453125 2.671875zm-0.515625 12.390625q2.453125 -2.453125 2.453125 -5.9375q0 -3.484375 -2.453125 -5.9375q-2.453125 -2.453125 -5.9375 -2.453125q-3.484375 0 -5.9375 2.453125q-2.453125 2.453125 -2.453125 5.9375q0 3.484375 2.453125 5.9375q2.453125 2.453125 5.9375 2.453125q3.484375 0 5.9375 -2.453125zm-7.203125 -7.203125q2.0 0.078125 2.59375 -0.515625q0.53125 -0.515625 0.53125 -1.40625q0 -0.890625 -0.59375 -1.484375q-0.453125 -0.453125 -1.421875 -0.453125q-1.03125 0 -1.625 0.59375q-0.515625 0.515625 -0.671875 1.109375l-1.921875 0q0.296875 -1.1875 1.109375 -2.0q1.1875 -1.1875 3.1875 -1.1875q1.78125 0 2.828125 1.046875q0.890625 0.890625 0.890625 2.140625q0 1.34375 -0.671875 2.015625q-0.8125 0.8125 -1.78125 0.953125q1.328125 0.296875 1.921875 0.890625q0.890625 0.890625 0.890625 2.15625q0 1.640625 -1.03125 2.671875q-1.1875 1.1875 -3.265625 1.1875q-2.0 0 -3.046875 -1.03125q-0.890625 -0.890625 -1.03125 -2.375l1.84375 0q0.078125 0.8125 0.53125 1.25q0.59375 0.59375 1.703125 0.59375q1.1875 0 1.859375 -0.65625q0.59375 -0.59375 0.59375 -1.5625q0 -1.046875 -0.59375 -1.640625q-0.75 -0.734375 -2.828125 -0.734375l0 -1.5625z" fill-rule="nonzero"/><path fill="#ffffff" d="m95.25048 224.90425l0 -13.359375l5.921875 0q1.78125 0 2.703125 0.359375q0.9375 0.359375 1.484375 1.28125q0.5625 0.90625 0.5625 2.015625q0 1.40625 -0.921875 2.390625q-0.921875 0.96875 -2.84375 1.234375q0.703125 0.34375 1.078125 0.671875q0.765625 0.703125 1.453125 1.765625l2.328125 3.640625l-2.21875 0l-1.765625 -2.78125q-0.78125 -1.203125 -1.28125 -1.828125q-0.5 -0.640625 -0.90625 -0.890625q-0.390625 -0.265625 -0.796875 -0.359375q-0.296875 -0.078125 -0.984375 -0.078125l-2.046875 0l0 5.9375l-1.765625 0zm1.765625 -7.453125l3.796875 0q1.21875 0 1.890625 -0.25q0.6875 -0.265625 1.046875 -0.8125q0.359375 -0.546875 0.359375 -1.1875q0 -0.953125 -0.6875 -1.5625q-0.6875 -0.609375 -2.1875 -0.609375l-4.21875 0l0 4.421875zm17.785446 6.265625q-0.921875 0.765625 -1.765625 1.09375q-0.828125 0.3125 -1.796875 0.3125q-1.59375 0 -2.453125 -0.78125q-0.859375 -0.78125 -0.859375 -1.984375q0 -0.71875 0.328125 -1.296875q0.328125 -0.59375 0.84375 -0.9375q0.53125 -0.359375 1.1875 -0.546875q0.46875 -0.125 1.453125 -0.25q1.984375 -0.234375 2.921875 -0.5625q0.015625 -0.34375 0.015625 -0.421875q0 -1.0 -0.46875 -1.421875q-0.625 -0.546875 -1.875 -0.546875q-1.15625 0 -1.703125 0.40625q-0.546875 0.40625 -0.8125 1.421875l-1.609375 -0.21875q0.21875 -1.015625 0.71875 -1.640625q0.5 -0.640625 1.453125 -0.984375q0.953125 -0.34375 2.1875 -0.34375q1.25 0 2.015625 0.296875q0.78125 0.28125 1.140625 0.734375q0.375 0.4375 0.515625 1.109375q0.078125 0.421875 0.078125 1.515625l0 2.1875q0 2.28125 0.109375 2.890625q0.109375 0.59375 0.40625 1.15625l-1.703125 0q-0.265625 -0.515625 -0.328125 -1.1875zm-0.140625 -3.671875q-0.890625 0.375 -2.671875 0.625q-1.015625 0.140625 -1.4375 0.328125q-0.421875 0.1875 -0.65625 0.53125q-0.21875 0.34375 -0.21875 0.78125q0 0.65625 0.5 1.09375q0.5 0.4375 1.453125 0.4375q0.9375 0 1.671875 -0.40625q0.75 -0.421875 1.09375 -1.140625q0.265625 -0.5625 0.265625 -1.640625l0 -0.609375zm4.203842 8.5625l0 -13.375l1.484375 0l0 1.25q0.53125 -0.734375 1.1875 -1.09375q0.671875 -0.375 1.625 -0.375q1.234375 0 2.171875 0.640625q0.953125 0.625 1.4375 1.796875q0.484375 1.15625 0.484375 2.546875q0 1.484375 -0.53125 2.671875q-0.53125 1.1875 -1.546875 1.828125q-1.015625 0.625 -2.140625 0.625q-0.8125 0 -1.46875 -0.34375q-0.65625 -0.34375 -1.0625 -0.875l0 4.703125l-1.640625 0zm1.484375 -8.484375q0 1.859375 0.75 2.765625q0.765625 0.890625 1.828125 0.890625q1.09375 0 1.875 -0.921875q0.78125 -0.9375 0.78125 -2.875q0 -1.84375 -0.765625 -2.765625q-0.75 -0.921875 -1.8125 -0.921875q-1.046875 0 -1.859375 0.984375q-0.796875 0.96875 -0.796875 2.84375zm8.891335 -6.6875l0 -1.890625l1.640625 0l0 1.890625l-1.640625 0zm0 11.46875l0 -9.671875l1.640625 0l0 9.671875l-1.640625 0zm10.410446 0l0 -1.21875q-0.90625 1.4375 -2.703125 1.4375q-1.15625 0 -2.125 -0.640625q-0.96875 -0.640625 -1.5 -1.78125q-0.53125 -1.140625 -0.53125 -2.625q0 -1.453125 0.484375 -2.625q0.484375 -1.1875 1.4375 -1.8125q0.96875 -0.625 2.171875 -0.625q0.875 0 1.546875 0.375q0.6875 0.359375 1.109375 0.953125l0 -4.796875l1.640625 0l0 13.359375l-1.53125 0zm-5.171875 -4.828125q0 1.859375 0.78125 2.78125q0.78125 0.921875 1.84375 0.921875q1.078125 0 1.828125 -0.875q0.75 -0.890625 0.75 -2.6875q0 -1.984375 -0.765625 -2.90625q-0.765625 -0.9375 -1.890625 -0.9375q-1.078125 0 -1.8125 0.890625q-0.734375 0.890625 -0.734375 2.8125zm8.641342 0.8125l0 -1.640625l5.03125 0l0 1.640625l-5.03125 0zm7.243927 4.015625l0 -8.40625l-1.453125 0l0 -1.265625l1.453125 0l0 -1.03125q0 -0.96875 0.171875 -1.453125q0.234375 -0.640625 0.828125 -1.03125q0.59375 -0.390625 1.671875 -0.390625q0.6875 0 1.53125 0.15625l-0.25 1.4375q-0.5 -0.09375 -0.953125 -0.09375q-0.75 0 -1.0625 0.328125q-0.3125 0.3125 -0.3125 1.1875l0 0.890625l1.890625 0l0 1.265625l-1.890625 0l0 8.40625l-1.625 0zm4.792679 -11.46875l0 -1.890625l1.640625 0l0 1.890625l-1.640625 0zm0 11.46875l0 -9.671875l1.640625 0l0 9.671875l-1.640625 0zm4.129196 0l0 -9.671875l1.46875 0l0 1.46875q0.5625 -1.03125 1.03125 -1.359375q0.484375 -0.328125 1.0625 -0.328125q0.828125 0 1.6875 0.53125l-0.5625 1.515625q-0.609375 -0.359375 -1.203125 -0.359375q-0.546875 0 -0.96875 0.328125q-0.421875 0.328125 -0.609375 0.890625q-0.28125 0.875 -0.28125 1.921875l0 5.0625l-1.625 0zm12.853302 -3.109375l1.6875 0.203125q-0.40625 1.484375 -1.484375 2.3125q-1.078125 0.8125 -2.765625 0.8125q-2.125 0 -3.375 -1.296875q-1.234375 -1.3125 -1.234375 -3.671875q0 -2.453125 1.25 -3.796875q1.265625 -1.34375 3.265625 -1.34375q1.9375 0 3.15625 1.328125q1.234375 1.3125 1.234375 3.703125q0 0.15625 0 0.4375l-7.21875 0q0.09375 1.59375 0.90625 2.453125q0.8125 0.84375 2.015625 0.84375q0.90625 0 1.546875 -0.46875q0.640625 -0.484375 1.015625 -1.515625zm-5.390625 -2.65625l5.40625 0q-0.109375 -1.21875 -0.625 -1.828125q-0.78125 -0.953125 -2.03125 -0.953125q-1.125 0 -1.90625 0.765625q-0.765625 0.75 -0.84375 2.015625zm20.637146 2.21875l1.609375 0.21875q-0.265625 1.65625 -1.359375 2.609375q-1.078125 0.9375 -2.671875 0.9375q-1.984375 0 -3.1875 -1.296875q-1.203125 -1.296875 -1.203125 -3.71875q0 -1.578125 0.515625 -2.75q0.515625 -1.171875 1.578125 -1.75q1.0625 -0.59375 2.3125 -0.59375q1.578125 0 2.578125 0.796875q1.0 0.796875 1.28125 2.265625l-1.59375 0.234375q-0.234375 -0.96875 -0.8125 -1.453125q-0.578125 -0.5 -1.390625 -0.5q-1.234375 0 -2.015625 0.890625q-0.78125 0.890625 -0.78125 2.8125q0 1.953125 0.75 2.84375q0.75 0.875 1.953125 0.875q0.96875 0 1.609375 -0.59375q0.65625 -0.59375 0.828125 -1.828125zm2.40625 -1.296875q0 -2.6875 1.484375 -3.96875q1.25 -1.078125 3.046875 -1.078125q2.0 0 3.265625 1.3125q1.265625 1.296875 1.265625 3.609375q0 1.859375 -0.5625 2.9375q-0.5625 1.0625 -1.640625 1.65625q-1.0625 0.59375 -2.328125 0.59375q-2.03125 0 -3.28125 -1.296875q-1.25 -1.3125 -1.25 -3.765625zm1.6875 0q0 1.859375 0.796875 2.796875q0.8125 0.921875 2.046875 0.921875q1.21875 0 2.03125 -0.921875q0.8125 -0.9375 0.8125 -2.84375q0 -1.796875 -0.8125 -2.71875q-0.8125 -0.921875 -2.03125 -0.921875q-1.234375 0 -2.046875 0.921875q-0.796875 0.90625 -0.796875 2.765625zm9.297592 4.84375l0 -9.671875l1.46875 0l0 1.375q1.0625 -1.59375 3.078125 -1.59375q0.875 0 1.609375 0.3125q0.734375 0.3125 1.09375 0.828125q0.375 0.5 0.515625 1.203125q0.09375 0.453125 0.09375 1.59375l0 5.953125l-1.640625 0l0 -5.890625q0 -1.0 -0.203125 -1.484375q-0.1875 -0.5 -0.671875 -0.796875q-0.484375 -0.296875 -1.140625 -0.296875q-1.046875 0 -1.8125 0.671875q-0.75 0.65625 -0.75 2.515625l0 5.28125l-1.640625 0zm10.766342 0l0 -8.40625l-1.453125 0l0 -1.265625l1.453125 0l0 -1.03125q0 -0.96875 0.171875 -1.453125q0.234375 -0.640625 0.828125 -1.03125q0.59375 -0.390625 1.671875 -0.390625q0.6875 0 1.53125 0.15625l-0.25 1.4375q-0.5 -0.09375 -0.953125 -0.09375q-0.75 0 -1.0625 0.328125q-0.3125 0.3125 -0.3125 1.1875l0 0.890625l1.890625 0l0 1.265625l-1.890625 0l0 8.40625l-1.625 0zm4.792679 -11.46875l0 -1.890625l1.640625 0l0 1.890625l-1.640625 0zm0 11.46875l0 -9.671875l1.640625 0l0 9.671875l-1.640625 0zm3.8323212 0.796875l1.59375 0.234375q0.109375 0.75 0.5625 1.078125q0.609375 0.453125 1.671875 0.453125q1.140625 0 1.75 -0.453125q0.625 -0.453125 0.84375 -1.265625q0.125 -0.5 0.109375 -2.109375q-1.0625 1.265625 -2.671875 1.265625q-2.0 0 -3.09375 -1.4375q-1.09375 -1.4375 -1.09375 -3.453125q0 -1.390625 0.5 -2.5625q0.515625 -1.171875 1.453125 -1.796875q0.953125 -0.640625 2.25 -0.640625q1.703125 0 2.8125 1.375l0 -1.15625l1.515625 0l0 8.359375q0 2.265625 -0.46875 3.203125q-0.453125 0.9375 -1.453125 1.484375q-0.984375 0.546875 -2.453125 0.546875q-1.71875 0 -2.796875 -0.78125q-1.0625 -0.765625 -1.03125 -2.34375zm1.359375 -5.8125q0 1.90625 0.75 2.78125q0.765625 0.875 1.90625 0.875q1.125 0 1.890625 -0.859375q0.765625 -0.875 0.765625 -2.734375q0 -1.78125 -0.796875 -2.671875q-0.78125 -0.90625 -1.890625 -0.90625q-1.09375 0 -1.859375 0.890625q-0.765625 0.875 -0.765625 2.625zm14.512146 5.015625l0 -9.671875l1.46875 0l0 1.359375q0.453125 -0.71875 1.203125 -1.140625q0.765625 -0.4375 1.71875 -0.4375q1.078125 0 1.765625 0.453125q0.6875 0.4375 0.96875 1.234375q1.15625 -1.6875 2.984375 -1.6875q1.453125 0 2.21875 0.796875q0.78125 0.796875 0.78125 2.453125l0 6.640625l-1.640625 0l0 -6.09375q0 -0.984375 -0.15625 -1.40625q-0.15625 -0.4375 -0.578125 -0.703125q-0.421875 -0.265625 -0.984375 -0.265625q-1.015625 0 -1.6875 0.6875q-0.671875 0.671875 -0.671875 2.15625l0 5.625l-1.640625 0l0 -6.28125q0 -1.09375 -0.40625 -1.640625q-0.40625 -0.546875 -1.3125 -0.546875q-0.6875 0 -1.28125 0.359375q-0.59375 0.359375 -0.859375 1.0625q-0.25 0.703125 -0.25 2.03125l0 5.015625l-1.640625 0zm14.931427 -4.84375q0 -2.6875 1.484375 -3.96875q1.25 -1.078125 3.046875 -1.078125q2.0 0 3.265625 1.3125q1.265625 1.296875 1.265625 3.609375q0 1.859375 -0.5625 2.9375q-0.5625 1.0625 -1.640625 1.65625q-1.0625 0.59375 -2.328125 0.59375q-2.03125 0 -3.28125 -1.296875q-1.25 -1.3125 -1.25 -3.765625zm1.6875 0q0 1.859375 0.796875 2.796875q0.8125 0.921875 2.046875 0.921875q1.21875 0 2.03125 -0.921875q0.8125 -0.9375 0.8125 -2.84375q0 -1.796875 -0.8125 -2.71875q-0.8125 -0.921875 -2.03125 -0.921875q-1.234375 0 -2.046875 0.921875q-0.796875 0.90625 -0.796875 2.765625zm15.563232 4.84375l0 -1.21875q-0.90625 1.4375 -2.703125 1.4375q-1.15625 0 -2.125 -0.640625q-0.96875 -0.640625 -1.5 -1.78125q-0.53125 -1.140625 -0.53125 -2.625q0 -1.453125 0.484375 -2.625q0.484375 -1.1875 1.4375 -1.8125q0.96875 -0.625 2.171875 -0.625q0.875 0 1.546875 0.375q0.6875 0.359375 1.109375 0.953125l0 -4.796875l1.640625 0l0 13.359375l-1.53125 0zm-5.171875 -4.828125q0 1.859375 0.78125 2.78125q0.78125 0.921875 1.84375 0.921875q1.078125 0 1.828125 -0.875q0.75 -0.890625 0.75 -2.6875q0 -1.984375 -0.765625 -2.90625q-0.765625 -0.9375 -1.890625 -0.9375q-1.078125 0 -1.8125 0.890625q-0.734375 0.890625 -0.734375 2.8125zm15.906952 1.71875l1.6875 0.203125q-0.40625 1.484375 -1.484375 2.3125q-1.078125 0.8125 -2.765625 0.8125q-2.125 0 -3.375 -1.296875q-1.234375 -1.3125 -1.234375 -3.671875q0 -2.453125 1.25 -3.796875q1.265625 -1.34375 3.265625 -1.34375q1.9375 0 3.15625 1.328125q1.234375 1.3125 1.234375 3.703125q0 0.15625 0 0.4375l-7.21875 0q0.09375 1.59375 0.90625 2.453125q0.8125 0.84375 2.015625 0.84375q0.90625 0 1.546875 -0.46875q0.640625 -0.484375 1.015625 -1.515625zm-5.390625 -2.65625l5.40625 0q-0.109375 -1.21875 -0.625 -1.828125q-0.78125 -0.953125 -2.03125 -0.953125q-1.125 0 -1.90625 0.765625q-0.765625 0.75 -0.84375 2.015625z" fill-rule="nonzero"/><path fill="#000000" fill-opacity="0.0" d="m60.598427 261.98425l211.40158 0l0 42.015747l-211.40158 0z" fill-rule="evenodd"/><path fill="#ffffff" d="m85.62968 275.623q2.671875 2.671875 2.671875 6.453125q0 3.78125 -2.671875 6.453125q-2.671875 2.671875 -6.453125 2.671875q-3.78125 0 -6.453125 -2.671875q-2.671875 -2.671875 -2.671875 -6.453125q0 -3.78125 2.671875 -6.453125q2.671875 -2.671875 6.453125 -2.671875q3.78125 0 6.453125 2.671875zm-0.515625 12.390625q2.453125 -2.453125 2.453125 -5.9375q0 -3.484375 -2.453125 -5.9375q-2.453125 -2.453125 -5.9375 -2.453125q-3.484375 0 -5.9375 2.453125q-2.453125 2.453125 -2.453125 5.9375q0 3.484375 2.453125 5.9375q2.453125 2.453125 5.9375 2.453125q3.484375 0 5.9375 -2.453125zm-3.5625 -2.375l0 2.671875l-1.703125 0l0 -2.671875l-5.796875 0l0 -1.640625l5.5625 -8.375l1.9375 0l0 8.375l1.625 0l0 1.640625l-1.625 0zm-1.703125 -1.640625l0 -6.0l-4.015625 6.0l4.015625 0z" fill-rule="nonzero"/><path fill="#ffffff" d="m94.62548 284.60736l1.65625 -0.140625q0.125 1.0 0.546875 1.640625q0.4375 0.640625 1.34375 1.046875q0.921875 0.390625 2.0625 0.390625q1.0 0 1.78125 -0.296875q0.78125 -0.296875 1.15625 -0.8125q0.375 -0.53125 0.375 -1.15625q0 -0.625 -0.375 -1.09375q-0.359375 -0.46875 -1.1875 -0.796875q-0.546875 -0.203125 -2.390625 -0.640625q-1.828125 -0.453125 -2.5625 -0.84375q-0.96875 -0.5 -1.4375 -1.234375q-0.46875 -0.75 -0.46875 -1.671875q0 -1.0 0.578125 -1.875q0.578125 -0.890625 1.671875 -1.34375q1.109375 -0.453125 2.453125 -0.453125q1.484375 0 2.609375 0.484375q1.140625 0.46875 1.75 1.40625q0.609375 0.921875 0.65625 2.09375l-1.6875 0.125q-0.140625 -1.265625 -0.9375 -1.90625q-0.78125 -0.65625 -2.3125 -0.65625q-1.609375 0 -2.34375 0.59375q-0.734375 0.59375 -0.734375 1.421875q0 0.71875 0.53125 1.171875q0.5 0.46875 2.65625 0.96875q2.15625 0.484375 2.953125 0.84375q1.171875 0.53125 1.71875 1.359375q0.5625 0.828125 0.5625 1.90625q0 1.0625 -0.609375 2.015625q-0.609375 0.9375 -1.75 1.46875q-1.140625 0.515625 -2.578125 0.515625q-1.8125 0 -3.046875 -0.53125q-1.21875 -0.53125 -1.921875 -1.59375q-0.6875 -1.0625 -0.71875 -2.40625zm12.834198 8.0l0 -13.375l1.484375 0l0 1.25q0.53125 -0.734375 1.1875 -1.09375q0.671875 -0.375 1.625 -0.375q1.234375 0 2.171875 0.640625q0.953125 0.625 1.4375 1.796875q0.484375 1.15625 0.484375 2.546875q0 1.484375 -0.53125 2.671875q-0.53125 1.1875 -1.546875 1.828125q-1.015625 0.625 -2.140625 0.625q-0.8125 0 -1.46875 -0.34375q-0.65625 -0.34375 -1.0625 -0.875l0 4.703125l-1.640625 0zm1.484375 -8.484375q0 1.859375 0.75 2.765625q0.765625 0.890625 1.828125 0.890625q1.09375 0 1.875 -0.921875q0.78125 -0.9375 0.78125 -2.875q0 -1.84375 -0.765625 -2.765625q-0.75 -0.921875 -1.8125 -0.921875q-1.046875 0 -1.859375 0.984375q-0.796875 0.96875 -0.796875 2.84375zm15.516342 1.671875l1.6875 0.203125q-0.40625 1.484375 -1.484375 2.3125q-1.078125 0.8125 -2.765625 0.8125q-2.125 0 -3.375 -1.296875q-1.234375 -1.3125 -1.234375 -3.671875q0 -2.453125 1.25 -3.796875q1.265625 -1.34375 3.265625 -1.34375q1.9375 0 3.15625 1.328125q1.234375 1.3125 1.234375 3.703125q0 0.15625 0 0.4375l-7.21875 0q0.09375 1.59375 0.90625 2.453125q0.8125 0.84375 2.015625 0.84375q0.90625 0 1.546875 -0.46875q0.640625 -0.484375 1.015625 -1.515625zm-5.390625 -2.65625l5.40625 0q-0.109375 -1.21875 -0.625 -1.828125q-0.78125 -0.953125 -2.03125 -0.953125q-1.125 0 -1.90625 0.765625q-0.765625 0.75 -0.84375 2.015625zm15.766335 2.65625l1.6875 0.203125q-0.40625 1.484375 -1.484375 2.3125q-1.078125 0.8125 -2.765625 0.8125q-2.125 0 -3.375 -1.296875q-1.2343674 -1.3125 -1.2343674 -3.671875q0 -2.453125 1.2499924 -3.796875q1.265625 -1.34375 3.265625 -1.34375q1.9375 0 3.15625 1.328125q1.234375 1.3125 1.234375 3.703125q0 0.15625 0 0.4375l-7.21875 0q0.09375 1.59375 0.90625 2.453125q0.8125 0.84375 2.015625 0.84375q0.90625 0 1.546875 -0.46875q0.640625 -0.484375 1.015625 -1.515625zm-5.390625 -2.65625l5.40625 0q-0.109375 -1.21875 -0.625 -1.828125q-0.78125 -0.953125 -2.03125 -0.953125q-1.125 0 -1.90625 0.765625q-0.765625 0.75 -0.84375 2.015625zm15.406967 5.765625l0 -1.21875q-0.90625 1.4375 -2.703125 1.4375q-1.15625 0 -2.125 -0.640625q-0.96875 -0.640625 -1.5 -1.78125q-0.53125 -1.140625 -0.53125 -2.625q0 -1.453125 0.484375 -2.625q0.484375 -1.1875 1.4375 -1.8125q0.96875 -0.625 2.171875 -0.625q0.875 0 1.546875 0.375q0.6875 0.359375 1.109375 0.953125l0 -4.796875l1.640625 0l0 13.359375l-1.53125 0zm-5.171875 -4.828125q0 1.859375 0.78125 2.78125q0.78125 0.921875 1.84375 0.921875q1.078125 0 1.828125 -0.875q0.75 -0.890625 0.75 -2.6875q0 -1.984375 -0.765625 -2.90625q-0.765625 -0.9375 -1.890625 -0.9375q-1.078125 0 -1.8125 0.890625q-0.734375 0.890625 -0.734375 2.8125zm20.777771 1.28125l1.609375 0.21875q-0.265625 1.65625 -1.359375 2.609375q-1.078125 0.9375 -2.671875 0.9375q-1.984375 0 -3.1875 -1.296875q-1.203125 -1.296875 -1.203125 -3.71875q0 -1.578125 0.515625 -2.75q0.515625 -1.171875 1.578125 -1.75q1.0625 -0.59375 2.3125 -0.59375q1.578125 0 2.578125 0.796875q1.0 0.796875 1.28125 2.265625l-1.59375 0.234375q-0.234375 -0.96875 -0.8125 -1.453125q-0.578125 -0.5 -1.390625 -0.5q-1.234375 0 -2.015625 0.890625q-0.78125 0.890625 -0.78125 2.8125q0 1.953125 0.75 2.84375q0.75 0.875 1.953125 0.875q0.96875 0 1.609375 -0.59375q0.65625 -0.59375 0.828125 -1.828125zm2.40625 -1.296875q0 -2.6875 1.484375 -3.96875q1.25 -1.078125 3.046875 -1.078125q2.0 0 3.265625 1.3125q1.265625 1.296875 1.265625 3.609375q0 1.859375 -0.5625 2.9375q-0.5625 1.0625 -1.640625 1.65625q-1.0625 0.59375 -2.328125 0.59375q-2.03125 0 -3.28125 -1.296875q-1.25 -1.3125 -1.25 -3.765625zm1.6875 0q0 1.859375 0.796875 2.796875q0.8125 0.921875 2.046875 0.921875q1.21875 0 2.03125 -0.921875q0.8125 -0.9375 0.8125 -2.84375q0 -1.796875 -0.8125 -2.71875q-0.8125 -0.921875 -2.03125 -0.921875q-1.234375 0 -2.046875 0.921875q-0.796875 0.90625 -0.796875 2.765625zm9.297592 4.84375l0 -9.671875l1.46875 0l0 1.375q1.0625 -1.59375 3.078125 -1.59375q0.875 0 1.609375 0.3125q0.734375 0.3125 1.09375 0.828125q0.375 0.5 0.515625 1.203125q0.09375 0.453125 0.09375 1.59375l0 5.953125l-1.640625 0l0 -5.890625q0 -1.0 -0.203125 -1.484375q-0.1875 -0.5 -0.671875 -0.796875q-0.484375 -0.296875 -1.140625 -0.296875q-1.046875 0 -1.8125 0.671875q-0.75 0.65625 -0.75 2.515625l0 5.28125l-1.640625 0zm10.766342 0l0 -8.40625l-1.453125 0l0 -1.265625l1.453125 0l0 -1.03125q0 -0.96875 0.171875 -1.453125q0.234375 -0.640625 0.828125 -1.03125q0.59375 -0.390625 1.671875 -0.390625q0.6875 0 1.53125 0.15625l-0.25 1.4375q-0.5 -0.09375 -0.953125 -0.09375q-0.75 0 -1.0625 0.328125q-0.3125 0.3125 -0.3125 1.1875l0 0.890625l1.890625 0l0 1.265625l-1.890625 0l0 8.40625l-1.625 0zm4.792679 -11.46875l0 -1.890625l1.640625 0l0 1.890625l-1.640625 0zm0 11.46875l0 -9.671875l1.640625 0l0 9.671875l-1.640625 0zm3.8323212 0.796875l1.59375 0.234375q0.109375 0.75 0.5625 1.078125q0.609375 0.453125 1.671875 0.453125q1.140625 0 1.75 -0.453125q0.625 -0.453125 0.84375 -1.265625q0.125 -0.5 0.109375 -2.109375q-1.0625 1.265625 -2.671875 1.265625q-2.0 0 -3.09375 -1.4375q-1.09375 -1.4375 -1.09375 -3.453125q0 -1.390625 0.5 -2.5625q0.515625 -1.171875 1.453125 -1.796875q0.953125 -0.640625 2.25 -0.640625q1.703125 0 2.8125 1.375l0 -1.15625l1.515625 0l0 8.359375q0 2.265625 -0.46875 3.203125q-0.453125 0.9375 -1.453125 1.484375q-0.984375 0.546875 -2.453125 0.546875q-1.71875 0 -2.796875 -0.78125q-1.0625 -0.765625 -1.03125 -2.34375zm1.359375 -5.8125q0 1.90625 0.75 2.78125q0.765625 0.875 1.90625 0.875q1.125 0 1.890625 -0.859375q0.765625 -0.875 0.765625 -2.734375q0 -1.78125 -0.796875 -2.671875q-0.78125 -0.90625 -1.890625 -0.90625q-1.09375 0 -1.859375 0.890625q-0.765625 0.875 -0.765625 2.625zm14.512146 5.015625l0 -9.671875l1.46875 0l0 1.359375q0.453125 -0.71875 1.203125 -1.140625q0.765625 -0.4375 1.71875 -0.4375q1.078125 0 1.765625 0.453125q0.6875 0.4375 0.96875 1.234375q1.15625 -1.6875 2.984375 -1.6875q1.453125 0 2.21875 0.796875q0.78125 0.796875 0.78125 2.453125l0 6.640625l-1.640625 0l0 -6.09375q0 -0.984375 -0.15625 -1.40625q-0.15625 -0.4375 -0.578125 -0.703125q-0.421875 -0.265625 -0.984375 -0.265625q-1.015625 0 -1.6875 0.6875q-0.671875 0.671875 -0.671875 2.15625l0 5.625l-1.640625 0l0 -6.28125q0 -1.09375 -0.40625 -1.640625q-0.40625 -0.546875 -1.3125 -0.546875q-0.6875 0 -1.28125 0.359375q-0.59375 0.359375 -0.859375 1.0625q-0.25 0.703125 -0.25 2.03125l0 5.015625l-1.640625 0zm14.931427 -4.84375q0 -2.6875 1.484375 -3.96875q1.25 -1.078125 3.046875 -1.078125q2.0 0 3.265625 1.3125q1.265625 1.296875 1.265625 3.609375q0 1.859375 -0.5625 2.9375q-0.5625 1.0625 -1.640625 1.65625q-1.0625 0.59375 -2.328125 0.59375q-2.03125 0 -3.28125 -1.296875q-1.25 -1.3125 -1.25 -3.765625zm1.6875 0q0 1.859375 0.796875 2.796875q0.8125 0.921875 2.046875 0.921875q1.21875 0 2.03125 -0.921875q0.8125 -0.9375 0.8125 -2.84375q0 -1.796875 -0.8125 -2.71875q-0.8125 -0.921875 -2.03125 -0.921875q-1.234375 0 -2.046875 0.921875q-0.796875 0.90625 -0.796875 2.765625zm15.563217 4.84375l0 -1.21875q-0.90625 1.4375 -2.703125 1.4375q-1.15625 0 -2.125 -0.640625q-0.96875 -0.640625 -1.5 -1.78125q-0.53125 -1.140625 -0.53125 -2.625q0 -1.453125 0.484375 -2.625q0.484375 -1.1875 1.4375 -1.8125q0.96875 -0.625 2.171875 -0.625q0.875 0 1.546875 0.375q0.6875 0.359375 1.109375 0.953125l0 -4.796875l1.640625 0l0 13.359375l-1.53125 0zm-5.171875 -4.828125q0 1.859375 0.78125 2.78125q0.78125 0.921875 1.84375 0.921875q1.078125 0 1.828125 -0.875q0.75 -0.890625 0.75 -2.6875q0 -1.984375 -0.765625 -2.90625q-0.765625 -0.9375 -1.890625 -0.9375q-1.078125 0 -1.8125 0.890625q-0.734375 0.890625 -0.734375 2.8125zm15.906967 1.71875l1.6875 0.203125q-0.40625 1.484375 -1.484375 2.3125q-1.078125 0.8125 -2.765625 0.8125q-2.125 0 -3.375 -1.296875q-1.234375 -1.3125 -1.234375 -3.671875q0 -2.453125 1.25 -3.796875q1.265625 -1.34375 3.265625 -1.34375q1.9375 0 3.15625 1.328125q1.234375 1.3125 1.234375 3.703125q0 0.15625 0 0.4375l-7.21875 0q0.09375 1.59375 0.90625 2.453125q0.8125 0.84375 2.015625 0.84375q0.90625 0 1.546875 -0.46875q0.640625 -0.484375 1.015625 -1.515625zm-5.390625 -2.65625l5.40625 0q-0.109375 -1.21875 -0.625 -1.828125q-0.78125 -0.953125 -2.03125 -0.953125q-1.125 0 -1.90625 0.765625q-0.765625 0.75 -0.84375 2.015625z" fill-rule="nonzero"/><path fill="#000000" fill-opacity="0.0" d="m380.59842 157.98425l152.34647 0l0 42.015747l-152.34647 0z" fill-rule="evenodd"/><path fill="#ffffff" d="m394.94217 178.51363l0.59375 -6.671875l7.34375 0l0 1.625l-5.9375 0l-0.296875 3.421875q1.265625 -0.890625 2.671875 -0.890625q1.640625 0 2.75 1.109375q1.109375 1.109375 1.109375 3.046875q0 2.078125 -1.03125 3.109375q-1.1875 1.1875 -3.125 1.1875q-2.078125 0 -3.1875 -1.109375q-0.8125 -0.8125 -0.96875 -1.921875l2.078125 0q0.15625 0.65625 0.53125 1.03125q0.4375 0.453125 1.546875 0.453125q1.1875 0 1.859375 -0.671875q0.59375 -0.59375 0.59375 -2.078125q0 -1.34375 -0.671875 -2.0q-0.734375 -0.75 -1.84375 -0.75q-1.125 0 -2.15625 1.109375l-1.859375 0zm10.6875 -6.890625q2.671875 2.671875 2.671875 6.453125q0 3.78125 -2.671875 6.453125q-2.671875 2.671875 -6.453125 2.671875q-3.78125 0 -6.453125 -2.671875q-2.671875 -2.671875 -2.671875 -6.453125q0 -3.78125 2.671875 -6.453125q2.671875 -2.671875 6.453125 -2.671875q3.78125 0 6.453125 2.671875zm-0.515625 12.390625q2.453125 -2.453125 2.453125 -5.9375q0 -3.484375 -2.453125 -5.9375q-2.453125 -2.453125 -5.9375 -2.453125q-3.484375 0 -5.9375 2.453125q-2.453125 2.453125 -2.453125 5.9375q0 3.484375 2.453125 5.9375q2.453125 2.453125 5.9375 2.453125q3.484375 0 5.9375 -2.453125z" fill-rule="nonzero"/><path fill="#ffffff" d="m415.313 184.90425l0 -13.359375l9.015625 0l0 1.578125l-7.25 0l0 4.140625l6.265625 0l0 1.578125l-6.265625 0l0 6.0625l-1.765625 0zm17.41159 -1.1875q-0.921875 0.765625 -1.765625 1.09375q-0.828125 0.3125 -1.796875 0.3125q-1.59375 0 -2.453125 -0.78125q-0.859375 -0.78125 -0.859375 -1.984375q0 -0.71875 0.328125 -1.296875q0.328125 -0.59375 0.84375 -0.9375q0.53125 -0.359375 1.1875 -0.546875q0.46875 -0.125 1.453125 -0.25q1.984375 -0.234375 2.921875 -0.5625q0.015625 -0.34375 0.015625 -0.421875q0 -1.0 -0.46875 -1.421875q-0.625 -0.546875 -1.875 -0.546875q-1.15625 0 -1.703125 0.40625q-0.546875 0.40625 -0.8125 1.421875l-1.609375 -0.21875q0.21875 -1.015625 0.71875 -1.640625q0.5 -0.640625 1.453125 -0.984375q0.953125 -0.34375 2.1875 -0.34375q1.25 0 2.015625 0.296875q0.78125 0.28125 1.140625 0.734375q0.375 0.4375 0.515625 1.109375q0.078125 0.421875 0.078125 1.515625l0 2.1875q0 2.28125 0.109375 2.890625q0.109375 0.59375 0.40625 1.15625l-1.703125 0q-0.265625 -0.515625 -0.328125 -1.1875zm-0.140625 -3.671875q-0.890625 0.375 -2.671875 0.625q-1.015625 0.140625 -1.4375 0.328125q-0.421875 0.1875 -0.65625 0.53125q-0.21875 0.34375 -0.21875 0.78125q0 0.65625 0.5 1.09375q0.5 0.4375 1.453125 0.4375q0.9375 0 1.671875 -0.40625q0.75 -0.421875 1.09375 -1.140625q0.265625 -0.5625 0.265625 -1.640625l0 -0.609375zm10.516357 1.3125l1.609375 0.21875q-0.265625 1.65625 -1.359375 2.609375q-1.078125 0.9375 -2.671875 0.9375q-1.984375 0 -3.1875 -1.296875q-1.203125 -1.296875 -1.203125 -3.71875q0 -1.578125 0.515625 -2.75q0.515625 -1.171875 1.578125 -1.75q1.0625 -0.59375 2.3125 -0.59375q1.578125 0 2.578125 0.796875q1.0 0.796875 1.28125 2.265625l-1.59375 0.234375q-0.234375 -0.96875 -0.8125 -1.453125q-0.578125 -0.5 -1.390625 -0.5q-1.234375 0 -2.015625 0.890625q-0.78125 0.890625 -0.78125 2.8125q0 1.953125 0.75 2.84375q0.75 0.875 1.953125 0.875q0.96875 0 1.609375 -0.59375q0.65625 -0.59375 0.828125 -1.828125zm6.59375 2.078125l0.234375 1.453125q-0.6875 0.140625 -1.234375 0.140625q-0.890625 0 -1.390625 -0.28125q-0.484375 -0.28125 -0.6875 -0.734375q-0.203125 -0.46875 -0.203125 -1.9375l0 -5.578125l-1.203125 0l0 -1.265625l1.203125 0l0 -2.390625l1.625 -0.984375l0 3.375l1.65625 0l0 1.265625l-1.65625 0l0 5.671875q0 0.6875 0.078125 0.890625q0.09375 0.203125 0.28125 0.328125q0.203125 0.109375 0.578125 0.109375q0.265625 0 0.71875 -0.0625zm0.9957886 -3.375q0 -2.6875 1.484375 -3.96875q1.25 -1.078125 3.046875 -1.078125q2.0 0 3.265625 1.3125q1.265625 1.296875 1.265625 3.609375q0 1.859375 -0.5625 2.9375q-0.5625 1.0625 -1.640625 1.65625q-1.0625 0.59375 -2.328125 0.59375q-2.03125 0 -3.28125 -1.296875q-1.25 -1.3125 -1.25 -3.765625zm1.6875 0q0 1.859375 0.796875 2.796875q0.8125 0.921875 2.046875 0.921875q1.21875 0 2.03125 -0.921875q0.8125 -0.9375 0.8125 -2.84375q0 -1.796875 -0.8125 -2.71875q-0.8125 -0.921875 -2.03125 -0.921875q-1.234375 0 -2.046875 0.921875q-0.796875 0.90625 -0.796875 2.765625zm9.281982 4.84375l0 -9.671875l1.46875 0l0 1.46875q0.5625 -1.03125 1.03125 -1.359375q0.484375 -0.328125 1.0625 -0.328125q0.828125 0 1.6875 0.53125l-0.5625 1.515625q-0.609375 -0.359375 -1.203125 -0.359375q-0.546875 0 -0.96875 0.328125q-0.421875 0.328125 -0.609375 0.890625q-0.28125 0.875 -0.28125 1.921875l0 5.0625l-1.625 0zm6.150177 3.71875l-0.1875 -1.53125q0.546875 0.140625 0.9375 0.140625q0.546875 0 0.875 -0.1875q0.328125 -0.171875 0.546875 -0.5q0.15625 -0.25 0.5 -1.21875q0.046875 -0.140625 0.140625 -0.40625l-3.671875 -9.6875l1.765625 0l2.015625 5.59375q0.390625 1.078125 0.703125 2.25q0.28125 -1.125 0.671875 -2.203125l2.078125 -5.640625l1.640625 0l-3.6875 9.828125q-0.59375 1.609375 -0.921875 2.203125q-0.4375 0.8125 -1.0 1.1875q-0.5625 0.375 -1.34375 0.375q-0.484375 0 -1.0625 -0.203125zm14.573914 -3.71875l0 -9.671875l1.46875 0l0 1.46875q0.5625 -1.03125 1.03125 -1.359375q0.484375 -0.328125 1.0625 -0.328125q0.828125 0 1.6875 0.53125l-0.5625 1.515625q-0.609375 -0.359375 -1.203125 -0.359375q-0.546875 0 -0.96875 0.328125q-0.421875 0.328125 -0.609375 0.890625q-0.28125 0.875 -0.28125 1.921875l0 5.0625l-1.625 0zm12.853302 -3.109375l1.6875 0.203125q-0.40625 1.484375 -1.484375 2.3125q-1.078125 0.8125 -2.765625 0.8125q-2.125 0 -3.375 -1.296875q-1.234375 -1.3125 -1.234375 -3.671875q0 -2.453125 1.25 -3.796875q1.265625 -1.34375 3.265625 -1.34375q1.9375 0 3.15625 1.328125q1.234375 1.3125 1.234375 3.703125q0 0.15625 0 0.4375l-7.21875 0q0.09375 1.59375 0.90625 2.453125q0.8125 0.84375 2.015625 0.84375q0.90625 0 1.546875 -0.46875q0.640625 -0.484375 1.015625 -1.515625zm-5.390625 -2.65625l5.40625 0q-0.109375 -1.21875 -0.625 -1.828125q-0.78125 -0.953125 -2.03125 -0.953125q-1.125 0 -1.90625 0.765625q-0.765625 0.75 -0.84375 2.015625zm8.485107 2.875l1.625 -0.25q0.125 0.96875 0.75 1.5q0.625 0.515625 1.75 0.515625q1.125 0 1.671875 -0.453125q0.546875 -0.46875 0.546875 -1.09375q0 -0.546875 -0.484375 -0.875q-0.328125 -0.21875 -1.671875 -0.546875q-1.8125 -0.46875 -2.515625 -0.796875q-0.6875 -0.328125 -1.046875 -0.90625q-0.359375 -0.59375 -0.359375 -1.3125q0 -0.640625 0.296875 -1.1875q0.296875 -0.5625 0.8125 -0.921875q0.375 -0.28125 1.03125 -0.46875q0.671875 -0.203125 1.421875 -0.203125q1.140625 0 2.0 0.328125q0.859375 0.328125 1.265625 0.890625q0.421875 0.5625 0.578125 1.5l-1.609375 0.21875q-0.109375 -0.75 -0.640625 -1.171875q-0.515625 -0.421875 -1.46875 -0.421875q-1.140625 0 -1.625 0.375q-0.46875 0.375 -0.46875 0.875q0 0.3125 0.1875 0.578125q0.203125 0.265625 0.640625 0.4375q0.234375 0.09375 1.4375 0.421875q1.75 0.453125 2.4375 0.75q0.6875 0.296875 1.078125 0.859375q0.390625 0.5625 0.390625 1.40625q0 0.828125 -0.484375 1.546875q-0.46875 0.71875 -1.375 1.125q-0.90625 0.390625 -2.046875 0.390625q-1.875 0 -2.875 -0.78125q-0.984375 -0.78125 -1.25 -2.328125zm16.609344 -0.21875l1.6875 0.203125q-0.40625 1.484375 -1.484375 2.3125q-1.078125 0.8125 -2.765625 0.8125q-2.1249695 0 -3.3749695 -1.296875q-1.234375 -1.3125 -1.234375 -3.671875q0 -2.453125 1.25 -3.796875q1.265625 -1.34375 3.2655945 -1.34375q1.9375 0 3.15625 1.328125q1.234375 1.3125 1.234375 3.703125q0 0.15625 0 0.4375l-7.2187195 0q0.09375 1.59375 0.90625 2.453125q0.8125 0.84375 2.0155945 0.84375q0.90625 0 1.546875 -0.46875q0.640625 -0.484375 1.015625 -1.515625zm-5.3905945 -2.65625l5.4062195 0q-0.109375 -1.21875 -0.625 -1.828125q-0.78125 -0.953125 -2.03125 -0.953125q-1.1249695 0 -1.9062195 0.765625q-0.765625 0.75 -0.84375 2.015625zm12.719452 4.296875l0.234375 1.453125q-0.6875 0.140625 -1.234375 0.140625q-0.890625 0 -1.390625 -0.28125q-0.484375 -0.28125 -0.6875 -0.734375q-0.203125 -0.46875 -0.203125 -1.9375l0 -5.578125l-1.203125 0l0 -1.265625l1.203125 0l0 -2.390625l1.625 -0.984375l0 3.375l1.65625 0l0 1.265625l-1.65625 0l0 5.671875q0 0.6875 0.078125 0.890625q0.09375 0.203125 0.28125 0.328125q0.203125 0.109375 0.578125 0.109375q0.265625 0 0.71875 -0.0625z" fill-rule="nonzero"/><path fill="#000000" fill-opacity="0.0" d="m380.59842 221.98425l211.40158 0l0 42.015747l-211.40158 0z" fill-rule="evenodd"/><path fill="#ffffff" d="m405.62967 235.623q2.671875 2.671875 2.671875 6.453125q0 3.78125 -2.671875 6.453125q-2.671875 2.671875 -6.453125 2.671875q-3.78125 0 -6.453125 -2.671875q-2.671875 -2.671875 -2.671875 -6.453125q0 -3.78125 2.671875 -6.453125q2.671875 -2.671875 6.453125 -2.671875q3.78125 0 6.453125 2.671875zm-0.515625 12.390625q2.453125 -2.453125 2.453125 -5.9375q0 -3.484375 -2.453125 -5.9375q-2.453125 -2.453125 -5.9375 -2.453125q-3.484375 0 -5.9375 2.453125q-2.453125 2.453125 -2.453125 5.9375q0 3.484375 2.453125 5.9375q2.453125 2.453125 5.9375 2.453125q3.484375 0 5.9375 -2.453125zm-8.53125 -6.09375q1.109375 -1.25 2.8125 -1.25q1.640625 0 2.671875 1.03125q1.109375 1.109375 1.109375 2.890625q0 1.78125 -1.109375 2.90625q-1.03125 1.03125 -2.8125 1.03125q-1.859375 0 -2.90625 -1.03125q-1.484375 -1.484375 -1.484375 -5.421875q0 -3.9375 1.5625 -5.5q1.109375 -1.109375 2.890625 -1.109375q1.5625 0 2.375 0.8125q0.96875 0.96875 1.265625 2.453125l-1.859375 0q-0.0625 -0.8125 -0.515625 -1.265625q-0.515625 -0.515625 -1.265625 -0.515625q-0.953125 0 -1.625 0.671875q-1.109375 1.109375 -1.109375 3.34375l0 0.953125zm2.671875 0.078125q-1.046875 0 -1.78125 0.75q-0.671875 0.65625 -0.671875 1.84375q0 1.125 0.8125 1.9375q0.59375 0.59375 1.5625 0.59375q0.96875 0 1.5625 -0.59375q0.65625 -0.671875 0.65625 -1.9375q0 -1.25 -0.734375 -2.0q-0.59375 -0.59375 -1.40625 -0.59375z" fill-rule="nonzero"/><path fill="#ffffff" d="m424.7505 244.21675l1.765625 0.453125q-0.5625 2.171875 -2.0 3.328125q-1.4375 1.140625 -3.53125 1.140625q-2.15625 0 -3.515625 -0.875q-1.34375 -0.890625 -2.0625 -2.546875q-0.703125 -1.671875 -0.703125 -3.59375q0 -2.078125 0.796875 -3.625q0.796875 -1.5625 2.265625 -2.359375q1.484375 -0.8125 3.25 -0.8125q2.0 0 3.359375 1.015625q1.375 1.015625 1.90625 2.875l-1.734375 0.40625q-0.46875 -1.453125 -1.359375 -2.109375q-0.875 -0.671875 -2.203125 -0.671875q-1.546875 0 -2.578125 0.734375q-1.03125 0.734375 -1.453125 1.984375q-0.421875 1.234375 -0.421875 2.5625q0 1.703125 0.5 2.96875q0.5 1.265625 1.546875 1.90625q1.046875 0.625 2.265625 0.625q1.484375 0 2.515625 -0.859375q1.03125 -0.859375 1.390625 -2.546875zm10.051056 3.5q-0.921875 0.765625 -1.765625 1.09375q-0.828125 0.3125 -1.796875 0.3125q-1.59375 0 -2.453125 -0.78125q-0.859375 -0.78125 -0.859375 -1.984375q0 -0.71875 0.328125 -1.296875q0.328125 -0.59375 0.84375 -0.9375q0.53125 -0.359375 1.1875 -0.546875q0.46875 -0.125 1.453125 -0.25q1.984375 -0.234375 2.921875 -0.5625q0.015625 -0.34375 0.015625 -0.421875q0 -1.0 -0.46875 -1.421875q-0.625 -0.546875 -1.875 -0.546875q-1.15625 0 -1.703125 0.40625q-0.546875 0.40625 -0.8125 1.421875l-1.609375 -0.21875q0.21875 -1.015625 0.71875 -1.640625q0.5 -0.640625 1.453125 -0.984375q0.953125 -0.34375 2.1875 -0.34375q1.25 0 2.015625 0.296875q0.78125 0.28125 1.140625 0.734375q0.375 0.4375 0.515625 1.109375q0.078125 0.421875 0.078125 1.515625l0 2.1875q0 2.28125 0.109375 2.890625q0.109375 0.59375 0.40625 1.15625l-1.703125 0q-0.265625 -0.515625 -0.328125 -1.1875zm-0.140625 -3.671875q-0.890625 0.375 -2.671875 0.625q-1.015625 0.140625 -1.4375 0.328125q-0.421875 0.1875 -0.65625 0.53125q-0.21875 0.34375 -0.21875 0.78125q0 0.65625 0.5 1.09375q0.5 0.4375 1.453125 0.4375q0.9375 0 1.671875 -0.40625q0.75 -0.421875 1.09375 -1.140625q0.265625 -0.5625 0.265625 -1.640625l0 -0.609375zm4.1569824 4.859375l0 -13.359375l1.640625 0l0 13.359375l-1.640625 0zm4.144806 0l0 -13.359375l1.640625 0l0 13.359375l-1.640625 0zm8.71875 -2.890625l1.625 -0.25q0.125 0.96875 0.75 1.5q0.625 0.515625 1.75 0.515625q1.125 0 1.671875 -0.453125q0.546875 -0.46875 0.546875 -1.09375q0 -0.546875 -0.484375 -0.875q-0.328125 -0.21875 -1.671875 -0.546875q-1.8125 -0.46875 -2.515625 -0.796875q-0.6875 -0.328125 -1.046875 -0.90625q-0.359375 -0.59375 -0.359375 -1.3125q0 -0.640625 0.296875 -1.1875q0.296875 -0.5625 0.8125 -0.921875q0.375 -0.28125 1.03125 -0.46875q0.671875 -0.203125 1.421875 -0.203125q1.140625 0 2.0 0.328125q0.859375 0.328125 1.265625 0.890625q0.421875 0.5625 0.578125 1.5l-1.609375 0.21875q-0.109375 -0.75 -0.640625 -1.171875q-0.515625 -0.421875 -1.46875 -0.421875q-1.140625 0 -1.625 0.375q-0.46875 0.375 -0.46875 0.875q0 0.3125 0.1875 0.578125q0.203125 0.265625 0.640625 0.4375q0.234375 0.09375 1.4375 0.421875q1.75 0.453125 2.4375 0.75q0.6875 0.296875 1.078125 0.859375q0.390625 0.5625 0.390625 1.40625q0 0.828125 -0.484375 1.546875q-0.46875 0.71875 -1.375 1.125q-0.90625 0.390625 -2.046875 0.390625q-1.875 0 -2.875 -0.78125q-0.984375 -0.78125 -1.25 -2.328125zm13.5625 1.421875l0.234375 1.453125q-0.6875 0.140625 -1.234375 0.140625q-0.890625 0 -1.390625 -0.28125q-0.484375 -0.28125 -0.6875 -0.734375q-0.203125 -0.46875 -0.203125 -1.9375l0 -5.578125l-1.203125 0l0 -1.265625l1.203125 0l0 -2.390625l1.625 -0.984375l0 3.375l1.65625 0l0 1.265625l-1.65625 0l0 5.671875q0 0.6875 0.078125 0.890625q0.09375 0.203125 0.28125 0.328125q0.203125 0.109375 0.578125 0.109375q0.265625 0 0.71875 -0.0625zm0.9958191 -3.375q0 -2.6875 1.484375 -3.96875q1.25 -1.078125 3.046875 -1.078125q2.0 0 3.265625 1.3125q1.265625 1.296875 1.265625 3.609375q0 1.859375 -0.5625 2.9375q-0.5625 1.0625 -1.640625 1.65625q-1.0625 0.59375 -2.328125 0.59375q-2.03125 0 -3.28125 -1.296875q-1.25 -1.3125 -1.25 -3.765625zm1.6875 0q0 1.859375 0.796875 2.796875q0.8125 0.921875 2.046875 0.921875q1.21875 0 2.03125 -0.921875q0.8125 -0.9375 0.8125 -2.84375q0 -1.796875 -0.8125 -2.71875q-0.8125 -0.921875 -2.03125 -0.921875q-1.234375 0 -2.046875 0.921875q-0.796875 0.90625 -0.796875 2.765625zm9.281952 4.84375l0 -9.671875l1.46875 0l0 1.46875q0.5625 -1.03125 1.03125 -1.359375q0.484375 -0.328125 1.0625 -0.328125q0.828125 0 1.6875 0.53125l-0.5625 1.515625q-0.609375 -0.359375 -1.203125 -0.359375q-0.546875 0 -0.96875 0.328125q-0.421875 0.328125 -0.609375 0.890625q-0.28125 0.875 -0.28125 1.921875l0 5.0625l-1.625 0zm12.853302 -3.109375l1.6875 0.203125q-0.40625 1.484375 -1.484375 2.3125q-1.078125 0.8125 -2.765625 0.8125q-2.125 0 -3.375 -1.296875q-1.234375 -1.3125 -1.234375 -3.671875q0 -2.453125 1.25 -3.796875q1.265625 -1.34375 3.265625 -1.34375q1.9375 0 3.15625 1.328125q1.234375 1.3125 1.234375 3.703125q0 0.15625 0 0.4375l-7.21875 0q0.09375 1.59375 0.90625 2.453125q0.8125 0.84375 2.015625 0.84375q0.90625 0 1.546875 -0.46875q0.640625 -0.484375 1.015625 -1.515625zm-5.390625 -2.65625l5.40625 0q-0.109375 -1.21875 -0.625 -1.828125q-0.78125 -0.953125 -2.03125 -0.953125q-1.125 0 -1.90625 0.765625q-0.765625 0.75 -0.84375 2.015625zm15.406982 5.765625l0 -1.21875q-0.90625 1.4375 -2.703125 1.4375q-1.15625 0 -2.125 -0.640625q-0.96875 -0.640625 -1.5 -1.78125q-0.53125 -1.140625 -0.53125 -2.625q0 -1.453125 0.484375 -2.625q0.484375 -1.1875 1.4375 -1.8125q0.96875 -0.625 2.171875 -0.625q0.875 0 1.546875 0.375q0.6875 0.359375 1.109375 0.953125l0 -4.796875l1.640625 0l0 13.359375l-1.53125 0zm-5.171875 -4.828125q0 1.859375 0.78125 2.78125q0.78125 0.921875 1.84375 0.921875q1.078125 0 1.828125 -0.875q0.75 -0.890625 0.75 -2.6875q0 -1.984375 -0.765625 -2.90625q-0.765625 -0.9375 -1.890625 -0.9375q-1.078125 0 -1.8125 0.890625q-0.734375 0.890625 -0.734375 2.8125zm20.77774 1.28125l1.609375 0.21875q-0.265625 1.65625 -1.359375 2.609375q-1.078125 0.9375 -2.671875 0.9375q-1.9843445 0 -3.1874695 -1.296875q-1.203125 -1.296875 -1.203125 -3.71875q0 -1.578125 0.515625 -2.75q0.515625 -1.171875 1.578125 -1.75q1.0624695 -0.59375 2.3124695 -0.59375q1.578125 0 2.578125 0.796875q1.0 0.796875 1.28125 2.265625l-1.59375 0.234375q-0.234375 -0.96875 -0.8125 -1.453125q-0.578125 -0.5 -1.390625 -0.5q-1.234375 0 -2.0155945 0.890625q-0.78125 0.890625 -0.78125 2.8125q0 1.953125 0.75 2.84375q0.7499695 0.875 1.9530945 0.875q0.96875 0 1.609375 -0.59375q0.65625 -0.59375 0.828125 -1.828125zm2.40625 -1.296875q0 -2.6875 1.484375 -3.96875q1.25 -1.078125 3.046875 -1.078125q2.0 0 3.265625 1.3125q1.265625 1.296875 1.265625 3.609375q0 1.859375 -0.5625 2.9375q-0.5625 1.0625 -1.640625 1.65625q-1.0625 0.59375 -2.328125 0.59375q-2.03125 0 -3.28125 -1.296875q-1.25 -1.3125 -1.25 -3.765625zm1.6875 0q0 1.859375 0.796875 2.796875q0.8125 0.921875 2.046875 0.921875q1.21875 0 2.03125 -0.921875q0.8125 -0.9375 0.8125 -2.84375q0 -1.796875 -0.8125 -2.71875q-0.8125 -0.921875 -2.03125 -0.921875q-1.234375 0 -2.046875 0.921875q-0.796875 0.90625 -0.796875 2.765625zm9.297607 4.84375l0 -9.671875l1.46875 0l0 1.375q1.0625 -1.59375 3.078125 -1.59375q0.875 0 1.609375 0.3125q0.734375 0.3125 1.09375 0.828125q0.375 0.5 0.515625 1.203125q0.09375 0.453125 0.09375 1.59375l0 5.953125l-1.640625 0l0 -5.890625q0 -1.0 -0.203125 -1.484375q-0.1875 -0.5 -0.671875 -0.796875q-0.484375 -0.296875 -1.140625 -0.296875q-1.046875 0 -1.8125 0.671875q-0.75 0.65625 -0.75 2.515625l0 5.28125l-1.640625 0zm10.766357 0l0 -8.40625l-1.453125 0l0 -1.265625l1.453125 0l0 -1.03125q0 -0.96875 0.171875 -1.453125q0.234375 -0.640625 0.828125 -1.03125q0.59375 -0.390625 1.671875 -0.390625q0.6875 0 1.53125 0.15625l-0.25 1.4375q-0.5 -0.09375 -0.953125 -0.09375q-0.75 0 -1.0625 0.328125q-0.3125 0.3125 -0.3125 1.1875l0 0.890625l1.890625 0l0 1.265625l-1.890625 0l0 8.40625l-1.625 0zm4.7926636 -11.46875l0 -1.890625l1.640625 0l0 1.890625l-1.640625 0zm0 11.46875l0 -9.671875l1.640625 0l0 9.671875l-1.640625 0zm3.8323364 0.796875l1.59375 0.234375q0.109375 0.75 0.5625 1.078125q0.609375 0.453125 1.671875 0.453125q1.140625 0 1.75 -0.453125q0.625 -0.453125 0.84375 -1.265625q0.125 -0.5 0.109375 -2.109375q-1.0625 1.265625 -2.671875 1.265625q-2.0 0 -3.09375 -1.4375q-1.09375 -1.4375 -1.09375 -3.453125q0 -1.390625 0.5 -2.5625q0.515625 -1.171875 1.453125 -1.796875q0.953125 -0.640625 2.25 -0.640625q1.703125 0 2.8125 1.375l0 -1.15625l1.515625 0l0 8.359375q0 2.265625 -0.46875 3.203125q-0.453125 0.9375 -1.453125 1.484375q-0.984375 0.546875 -2.453125 0.546875q-1.71875 0 -2.796875 -0.78125q-1.0625 -0.765625 -1.03125 -2.34375zm1.359375 -5.8125q0 1.90625 0.75 2.78125q0.765625 0.875 1.90625 0.875q1.125 0 1.890625 -0.859375q0.765625 -0.875 0.765625 -2.734375q0 -1.78125 -0.796875 -2.671875q-0.78125 -0.90625 -1.890625 -0.90625q-1.09375 0 -1.859375 0.890625q-0.765625 0.875 -0.765625 2.625z" fill-rule="nonzero"/><path fill="#000000" fill-opacity="0.0" d="m112.0 232.0l0 32.0" fill-rule="evenodd"/><path stroke="#ffffff" stroke-width="1.0" stroke-linejoin="round" stroke-linecap="butt" d="m112.0 232.0l0 26.0" fill-rule="evenodd"/><path fill="#ffffff" stroke="#ffffff" stroke-width="1.0" stroke-linecap="butt" d="m110.34827 258.0l1.6517334 4.538086l1.6517334 -4.538086z" fill-rule="evenodd"/><path fill="#000000" fill-opacity="0.0" d="m112.0 104.0l0 32.0" fill-rule="evenodd"/><path stroke="#ffffff" stroke-width="1.0" stroke-linejoin="round" stroke-linecap="butt" d="m112.0 104.0l0 26.0" fill-rule="evenodd"/><path fill="#ffffff" stroke="#ffffff" stroke-width="1.0" stroke-linecap="butt" d="m110.34827 130.0l1.6517334 4.538101l1.6517334 -4.538101z" fill-rule="evenodd"/><path fill="#000000" fill-opacity="0.0" d="m112.0 168.0l0 32.0" fill-rule="evenodd"/><path stroke="#ffffff" stroke-width="1.0" stroke-linejoin="round" stroke-linecap="butt" d="m112.0 168.0l0 26.0" fill-rule="evenodd"/><path fill="#ffffff" stroke="#ffffff" stroke-width="1.0" stroke-linecap="butt" d="m110.34827 194.0l1.6517334 4.538101l1.6517334 -4.538101z" fill-rule="evenodd"/><path fill="#000000" fill-opacity="0.0" d="m277.5748 154.99213c25.75592 0 38.63385 6.0 51.51181 12.0c12.87796 6.0 25.75592 12.0 51.51181 12.0" fill-rule="evenodd"/><path stroke="#ffffff" stroke-width="1.0" stroke-linejoin="round" stroke-linecap="butt" d="m277.5748 154.99213c25.75592 0 38.63385 6.0 51.51181 12.0c12.87796 6.0 25.75592 12.0 51.51181 12.0" fill-rule="evenodd"/><path fill="#000000" fill-opacity="0.0" d="m298.3937 218.99213c20.551178 0 30.826752 -10.0 41.102356 -20.0c10.275604 -10.0 20.551178 -20.0 41.102356 -20.0" fill-rule="evenodd"/><path stroke="#ffffff" stroke-width="1.0" stroke-linejoin="round" stroke-linecap="butt" d="m298.3937 218.99213c20.551178 0 30.826752 -10.0 41.102356 -20.0c5.137787 -5.0 10.275604 -10.0 16.697845 -13.75c3.2111206 -1.875 6.743347 -3.4375 10.757233 -4.53125c2.006958 -0.546875 4.1343384 -0.9765625 6.402191 -1.269516c0.28347778 -0.036621094 0.56915283 -0.071121216 0.85705566 -0.10343933l0.39578247 -0.04109192" fill-rule="evenodd"/><path fill="#ffffff" stroke="#ffffff" stroke-width="1.0" stroke-linecap="butt" d="m374.69006 180.94644l4.4483337 -1.8800659l-4.6161194 -1.4191284z" fill-rule="evenodd"/><path fill="#000000" fill-opacity="0.0" d="m272.0 282.99213c27.149597 0 40.724396 -26.0 54.299225 -52.0c13.574799 -26.0 27.149597 -52.0 54.299194 -52.0" fill-rule="evenodd"/><path stroke="#ffffff" stroke-width="1.0" stroke-linejoin="round" stroke-linecap="butt" d="m272.0 282.99213c27.149597 0 40.724396 -26.0 54.299225 -52.0c13.574799 -26.0 27.149597 -52.0 54.299194 -52.0" fill-rule="evenodd"/><path fill="#000000" fill-opacity="0.0" d="m277.5748 154.99213c25.75592 0 38.63385 22.0 51.51181 44.0c12.87796 22.0 25.75592 44.0 51.51181 44.0" fill-rule="evenodd"/><path stroke="#ffffff" stroke-width="1.0" stroke-linejoin="round" stroke-linecap="butt" d="m277.5748 154.99213c25.75592 0 38.63385 22.0 51.51181 44.0c12.87796 22.0 25.75592 44.0 51.51181 44.0" fill-rule="evenodd"/><path fill="#000000" fill-opacity="0.0" d="m298.3937 218.99213c20.551178 0 30.826752 6.0 41.102356 12.0c10.275604 6.0 20.551178 12.0 41.102356 12.0" fill-rule="evenodd"/><path stroke="#ffffff" stroke-width="1.0" stroke-linejoin="round" stroke-linecap="butt" d="m298.3937 218.99213c20.551178 0 30.826752 6.0 41.102356 12.0c5.137787 3.0 10.275604 6.0 16.697845 8.25c3.2111206 1.125 6.743347 2.0625 10.757233 2.71875c2.006958 0.328125 4.1343384 0.5859375 6.402191 0.761734c0.28347778 0.021957397 0.56915283 0.042648315 0.85705566 0.062042236l0.39083862 0.024337769" fill-rule="evenodd"/><path fill="#ffffff" stroke="#ffffff" stroke-width="1.0" stroke-linecap="butt" d="m374.5508 244.45995l4.5863953 -1.5124359l-4.485565 -1.7894897z" fill-rule="evenodd"/><path fill="#000000" fill-opacity="0.0" d="m272.0 282.99213c27.149597 0 40.724396 -10.0 54.299225 -20.0c13.574799 -10.0 27.149597 -20.0 54.299194 -20.0" fill-rule="evenodd"/><path stroke="#ffffff" stroke-width="1.0" stroke-linejoin="round" stroke-linecap="butt" d="m272.0 282.99213c27.149597 0 40.724396 -10.0 54.299225 -20.0c13.574799 -10.0 27.149597 -20.0 54.299194 -20.0" fill-rule="evenodd"/><path fill="#000000" fill-opacity="0.0" d="m112.000656 304.0c-5.333336 2.6666565 -21.333336 18.666656 -32.0 16.0c-10.666664 -2.6666565 -25.333332 -9.3333435 -32.0 -32.0c-6.666668 -22.666656 -9.333332 -66.66667 -8.0 -104.0c1.3333321 -37.33333 9.333332 -96.0 16.0 -120.0c6.666668 -24.0 16.0 -22.666668 24.0 -24.0c8.0 -1.3333321 18.666664 10.666668 24.0 16.0c5.333336 5.333332 6.666664 13.333336 8.0 16.0" fill-rule="evenodd"/><path stroke="#ffffff" stroke-width="1.0" stroke-linejoin="round" stroke-linecap="butt" d="m112.000656 304.0c-5.333336 2.6666565 -21.333336 18.666656 -32.0 16.0c-10.666664 -2.6666565 -25.333332 -9.3333435 -32.0 -32.0c-6.666668 -22.666656 -9.333332 -66.66667 -8.0 -104.0c1.3333321 -37.33333 9.333332 -96.0 16.0 -120.0c6.666668 -24.0 16.0 -22.666668 24.0 -24.0c8.0 -1.3333321 18.666664 10.666668 24.0 16.0c2.6666641 2.666668 4.333336 6.0 5.5 9.0c0.14583588 0.375 0.28385162 0.7447891 0.41503906 1.1074219l0.08407593 0.23603821" fill-rule="evenodd"/><path fill="#ffffff" stroke="#ffffff" stroke-width="1.0" stroke-linecap="butt" d="m108.4426 66.89427l3.070549 3.7275085l0.043815613 -4.8291397z" fill-rule="evenodd"/><path fill="#000000" fill-opacity="0.0" d="m120.0 104.0l112.0 0l0 35.55905l-112.0 0z" fill-rule="evenodd"/><path fill="#ffffff" d="m135.76562 118.28438l-2.515625 0l0 7.515625l-1.171875 0l0 -7.515625l-2.515625 0l0 -0.984375l6.203125 0l0 0.984375zm6.7028656 7.515625l-4.828125 0l0 -8.5l4.828125 0l0 0.96875l-3.671875 0l0 2.640625l3.53125 0l0 0.96875l-3.53125 0l0 2.9375l3.671875 0l0 0.984375zm7.6716156 -2.296875q0 0.59375 -0.25 1.0625q-0.234375 0.453125 -0.6875 0.75q-0.4375 0.296875 -1.0625 0.453125q-0.625 0.140625 -1.359375 0.140625q-0.34375 0 -0.6875 -0.03125q-0.328125 -0.015625 -0.640625 -0.0625q-0.3125 -0.03125 -0.59375 -0.078125q-0.265625 -0.046875 -0.484375 -0.109375l0 -1.125q0.484375 0.1875 1.09375 0.296875q0.609375 0.09375 1.390625 0.09375q0.5625 0 0.953125 -0.078125q0.390625 -0.09375 0.640625 -0.265625q0.25 -0.171875 0.359375 -0.421875q0.125 -0.25 0.125 -0.5625q0 -0.34375 -0.203125 -0.59375q-0.1875 -0.25 -0.5 -0.4375q-0.3125 -0.1875 -0.71875 -0.34375q-0.390625 -0.171875 -0.8125 -0.328125q-0.40625 -0.171875 -0.8125 -0.375q-0.40625 -0.203125 -0.71875 -0.46875q-0.3125 -0.265625 -0.5 -0.625q-0.1875 -0.375 -0.1875 -0.875q0 -0.4375 0.171875 -0.859375q0.1875 -0.421875 0.5625 -0.75q0.390625 -0.328125 0.984375 -0.53125q0.609375 -0.203125 1.453125 -0.203125q0.203125 0 0.453125 0.03125q0.265625 0.015625 0.515625 0.046875q0.25 0.03125 0.5 0.078125q0.265625 0.046875 0.46875 0.09375l0 1.046875q-0.5 -0.140625 -1.0 -0.21875q-0.5 -0.078125 -0.96875 -0.078125q-1.0 0 -1.46875 0.34375q-0.46875 0.328125 -0.46875 0.890625q0 0.34375 0.1875 0.59375q0.203125 0.234375 0.515625 0.4375q0.3125 0.1875 0.703125 0.359375q0.40625 0.15625 0.8125 0.328125q0.421875 0.15625 0.828125 0.359375q0.40625 0.203125 0.71875 0.484375q0.3125 0.28125 0.5 0.65625q0.1875 0.359375 0.1875 0.875zm7.6091156 -5.21875l-2.515625 0l0 7.515625l-1.171875 0l0 -7.515625l-2.515625 0l0 -0.984375l6.203125 0l0 0.984375zm7.3434906 4.46875l-2.5625 0l0 2.65625l-1.109375 0l0 -2.65625l-2.5625 0l0 -1.0l2.5625 0l0 -2.625l1.109375 0l0 2.625l2.5625 0l0 1.0zm7.0309906 0.75q0 0.59375 -0.25 1.0625q-0.234375 0.453125 -0.6875 0.75q-0.4375 0.296875 -1.0625 0.453125q-0.625 0.140625 -1.359375 0.140625q-0.34375 0 -0.6875 -0.03125q-0.328125 -0.015625 -0.640625 -0.0625q-0.3125 -0.03125 -0.59375 -0.078125q-0.265625 -0.046875 -0.484375 -0.109375l0 -1.125q0.484375 0.1875 1.09375 0.296875q0.609375 0.09375 1.390625 0.09375q0.5625 0 0.953125 -0.078125q0.390625 -0.09375 0.640625 -0.265625q0.25 -0.171875 0.359375 -0.421875q0.125 -0.25 0.125 -0.5625q0 -0.34375 -0.203125 -0.59375q-0.1875 -0.25 -0.5 -0.4375q-0.3125 -0.1875 -0.71875 -0.34375q-0.390625 -0.171875 -0.8125 -0.328125q-0.40625 -0.171875 -0.8125 -0.375q-0.40625 -0.203125 -0.71875 -0.46875q-0.3125 -0.265625 -0.5 -0.625q-0.1875 -0.375 -0.1875 -0.875q0 -0.4375 0.171875 -0.859375q0.1875 -0.421875 0.5625 -0.75q0.390625 -0.328125 0.984375 -0.53125q0.609375 -0.203125 1.453125 -0.203125q0.203125 0 0.453125 0.03125q0.265625 0.015625 0.515625 0.046875q0.25 0.03125 0.5 0.078125q0.265625 0.046875 0.46875 0.09375l0 1.046875q-0.5 -0.140625 -1.0 -0.21875q-0.5 -0.078125 -0.96875 -0.078125q-1.0 0 -1.46875 0.34375q-0.46875 0.328125 -0.46875 0.890625q0 0.34375 0.1875 0.59375q0.203125 0.234375 0.515625 0.4375q0.3125 0.1875 0.703125 0.359375q0.40625 0.15625 0.8125 0.328125q0.421875 0.15625 0.828125 0.359375q0.40625 0.203125 0.71875 0.484375q0.3125 0.28125 0.5 0.65625q0.1875 0.359375 0.1875 0.875zm6.9841156 2.296875l-4.828125 0l0 -8.5l4.828125 0l0 0.96875l-3.671875 0l0 2.640625l3.53125 0l0 0.96875l-3.53125 0l0 2.9375l3.671875 0l0 0.984375zm8.030991 0l-1.3125 0l-1.265625 -2.71875q-0.140625 -0.3125 -0.296875 -0.515625q-0.15625 -0.203125 -0.328125 -0.328125q-0.171875 -0.125 -0.375 -0.171875q-0.203125 -0.046875 -0.453125 -0.046875l-0.546875 0l0 3.78125l-1.15625 0l0 -8.5l2.28125 0q0.734375 0 1.265625 0.15625q0.53125 0.15625 0.875 0.453125q0.34375 0.296875 0.5 0.71875q0.171875 0.40625 0.171875 0.90625q0 0.390625 -0.125 0.75q-0.109375 0.359375 -0.34375 0.65625q-0.234375 0.28125 -0.578125 0.5q-0.34375 0.203125 -0.78125 0.3125q0.359375 0.109375 0.609375 0.421875q0.25 0.3125 0.515625 0.828125l1.34375 2.796875zm-1.859375 -6.171875q0 -0.6875 -0.4375 -1.015625q-0.421875 -0.34375 -1.1875 -0.34375l-1.09375 0l0 2.8125l0.9375 0q0.40625 0 0.734375 -0.09375q0.328125 -0.09375 0.5625 -0.28125q0.234375 -0.1875 0.359375 -0.453125q0.125 -0.265625 0.125 -0.625zm9.640366 -2.328125l-2.890625 8.5l-1.5625 0l-2.8125 -8.5l1.296875 0l1.84375 5.734375l0.515625 1.671875l0.53125 -1.671875l1.84375 -5.734375l1.234375 0zm3.1091156 0.96875l-1.953125 0l0 -0.96875l5.078125 0l0 0.96875l-1.953125 0l0 6.546875l1.953125 0l0 0.984375l-5.078125 0l0 -0.984375l1.953125 0l0 -6.546875zm10.718491 7.21875q-1.015625 0.421875 -2.140625 0.421875q-1.796875 0 -2.765625 -1.078125q-0.96875 -1.078125 -0.96875 -3.1875q0 -1.03125 0.265625 -1.84375q0.265625 -0.828125 0.765625 -1.40625q0.5 -0.578125 1.203125 -0.890625q0.703125 -0.3125 1.578125 -0.3125q0.578125 0 1.078125 0.109375q0.515625 0.09375 0.984375 0.296875l0 1.140625q-0.453125 -0.25 -0.953125 -0.375q-0.484375 -0.140625 -1.078125 -0.140625q-0.59375 0 -1.078125 0.234375q-0.484375 0.21875 -0.828125 0.640625q-0.34375 0.421875 -0.53125 1.046875q-0.171875 0.609375 -0.171875 1.390625q0 1.65625 0.671875 2.5q0.671875 0.828125 1.96875 0.828125q0.546875 0 1.046875 -0.125q0.5 -0.125 0.953125 -0.34375l0 1.09375zm6.9997406 0.3125l-4.828125 0l0 -8.5l4.828125 0l0 0.96875l-3.671875 0l0 2.640625l3.53125 0l0 0.96875l-3.53125 0l0 2.9375l3.671875 0l0 0.984375z" fill-rule="nonzero"/><path fill="#000000" fill-opacity="0.0" d="m320.0 132.44095l112.0 0l0 35.55905l-112.0 0z" fill-rule="evenodd"/><path fill="#ffffff" d="m335.76562 146.72533l-2.515625 0l0 7.515625l-1.171875 0l0 -7.515625l-2.515625 0l0 -0.984375l6.203125 0l0 0.984375zm6.702881 7.515625l-4.828125 0l0 -8.5l4.828125 0l0 0.96875l-3.671875 0l0 2.640625l3.53125 0l0 0.96875l-3.53125 0l0 2.9375l3.671875 0l0 0.984375zm7.6716003 -2.296875q0 0.59375 -0.25 1.0625q-0.234375 0.453125 -0.6875 0.75q-0.4375 0.296875 -1.0625 0.453125q-0.625 0.140625 -1.359375 0.140625q-0.34375 0 -0.6875 -0.03125q-0.328125 -0.015625 -0.640625 -0.0625q-0.3125 -0.03125 -0.59375 -0.078125q-0.265625 -0.046875 -0.484375 -0.109375l0 -1.125q0.484375 0.1875 1.09375 0.296875q0.609375 0.09375 1.390625 0.09375q0.5625 0 0.953125 -0.078125q0.390625 -0.09375 0.640625 -0.265625q0.25 -0.171875 0.359375 -0.421875q0.125 -0.25 0.125 -0.5625q0 -0.34375 -0.203125 -0.59375q-0.1875 -0.25 -0.5 -0.4375q-0.3125 -0.1875 -0.71875 -0.34375q-0.390625 -0.171875 -0.8125 -0.328125q-0.40625 -0.171875 -0.8125 -0.375q-0.40625 -0.203125 -0.71875 -0.46875q-0.3125 -0.265625 -0.5 -0.625q-0.1875 -0.375 -0.1875 -0.875q0 -0.4375 0.171875 -0.859375q0.1875 -0.421875 0.5625 -0.75q0.390625 -0.328125 0.984375 -0.53125q0.609375 -0.203125 1.453125 -0.203125q0.203125 0 0.453125 0.03125q0.265625 0.015625 0.515625 0.046875q0.25 0.03125 0.5 0.078125q0.265625 0.046875 0.46875 0.09375l0 1.046875q-0.5 -0.140625 -1.0 -0.21875q-0.5 -0.078125 -0.96875 -0.078125q-1.0 0 -1.46875 0.34375q-0.46875 0.328125 -0.46875 0.890625q0 0.34375 0.1875 0.59375q0.203125 0.234375 0.515625 0.4375q0.3125 0.1875 0.703125 0.359375q0.40625 0.15625 0.8125 0.328125q0.421875 0.15625 0.828125 0.359375q0.40625 0.203125 0.71875 0.484375q0.3125 0.28125 0.5 0.65625q0.1875 0.359375 0.1875 0.875zm7.6091003 -5.21875l-2.515625 0l0 7.515625l-1.171875 0l0 -7.515625l-2.515625 0l0 -0.984375l6.203125 0l0 0.984375zm7.343506 4.46875l-2.5625 0l0 2.65625l-1.109375 0l0 -2.65625l-2.5625 0l0 -1.0l2.5625 0l0 -2.625l1.109375 0l0 2.625l2.5625 0l0 1.0zm7.031006 0.75q0 0.59375 -0.25 1.0625q-0.234375 0.453125 -0.6875 0.75q-0.4375 0.296875 -1.0625 0.453125q-0.625 0.140625 -1.359375 0.140625q-0.34375 0 -0.6875 -0.03125q-0.328125 -0.015625 -0.640625 -0.0625q-0.3125 -0.03125 -0.59375 -0.078125q-0.265625 -0.046875 -0.484375 -0.109375l0 -1.125q0.484375 0.1875 1.09375 0.296875q0.609375 0.09375 1.390625 0.09375q0.5625 0 0.953125 -0.078125q0.390625 -0.09375 0.640625 -0.265625q0.25 -0.171875 0.359375 -0.421875q0.125 -0.25 0.125 -0.5625q0 -0.34375 -0.203125 -0.59375q-0.1875 -0.25 -0.5 -0.4375q-0.3125 -0.1875 -0.71875 -0.34375q-0.390625 -0.171875 -0.8125 -0.328125q-0.40625 -0.171875 -0.8125 -0.375q-0.40625 -0.203125 -0.71875 -0.46875q-0.3125 -0.265625 -0.5 -0.625q-0.1875 -0.375 -0.1875 -0.875q0 -0.4375 0.171875 -0.859375q0.1875 -0.421875 0.5625 -0.75q0.390625 -0.328125 0.984375 -0.53125q0.609375 -0.203125 1.453125 -0.203125q0.203125 0 0.453125 0.03125q0.265625 0.015625 0.515625 0.046875q0.25 0.03125 0.5 0.078125q0.265625 0.046875 0.46875 0.09375l0 1.046875q-0.5 -0.140625 -1.0 -0.21875q-0.5 -0.078125 -0.96875 -0.078125q-1.0 0 -1.46875 0.34375q-0.46875 0.328125 -0.46875 0.890625q0 0.34375 0.1875 0.59375q0.203125 0.234375 0.515625 0.4375q0.3125 0.1875 0.703125 0.359375q0.40625 0.15625 0.8125 0.328125q0.421875 0.15625 0.828125 0.359375q0.40625 0.203125 0.71875 0.484375q0.3125 0.28125 0.5 0.65625q0.1875 0.359375 0.1875 0.875zm6.9841003 2.296875l-4.828125 0l0 -8.5l4.828125 0l0 0.96875l-3.671875 0l0 2.640625l3.53125 0l0 0.96875l-3.53125 0l0 2.9375l3.671875 0l0 0.984375zm8.030975 0l-1.3125 0l-1.265625 -2.71875q-0.140625 -0.3125 -0.296875 -0.515625q-0.15625 -0.203125 -0.328125 -0.328125q-0.171875 -0.125 -0.375 -0.171875q-0.203125 -0.046875 -0.453125 -0.046875l-0.546875 0l0 3.78125l-1.15625 0l0 -8.5l2.28125 0q0.734375 0 1.265625 0.15625q0.53125 0.15625 0.875 0.453125q0.34375 0.296875 0.5 0.71875q0.171875 0.40625 0.171875 0.90625q0 0.390625 -0.125 0.75q-0.109375 0.359375 -0.34375 0.65625q-0.234375 0.28125 -0.578125 0.5q-0.34375 0.203125 -0.78125 0.3125q0.359375 0.109375 0.609375 0.421875q0.25 0.3125 0.515625 0.828125l1.34375 2.796875zm-1.859375 -6.171875q0 -0.6875 -0.4375 -1.015625q-0.421875 -0.34375 -1.1875 -0.34375l-1.09375 0l0 2.8125l0.9375 0q0.40625 0 0.734375 -0.09375q0.328125 -0.09375 0.5625 -0.28125q0.234375 -0.1875 0.359375 -0.453125q0.125 -0.265625 0.125 -0.625zm9.640381 -2.328125l-2.890625 8.5l-1.5625 0l-2.8125 -8.5l1.296875 0l1.84375 5.734375l0.515625 1.671875l0.53125 -1.671875l1.84375 -5.734375l1.234375 0zm3.1091309 0.96875l-1.953125 0l0 -0.96875l5.078125 0l0 0.96875l-1.953125 0l0 6.546875l1.953125 0l0 0.984375l-5.078125 0l0 -0.984375l1.953125 0l0 -6.546875zm10.718475 7.21875q-1.015625 0.421875 -2.140625 0.421875q-1.796875 0 -2.765625 -1.078125q-0.96875 -1.078125 -0.96875 -3.1875q0 -1.03125 0.265625 -1.84375q0.265625 -0.828125 0.765625 -1.40625q0.5 -0.578125 1.203125 -0.890625q0.703125 -0.3125 1.578125 -0.3125q0.578125 0 1.078125 0.109375q0.515625 0.09375 0.984375 0.296875l0 1.140625q-0.453125 -0.25 -0.953125 -0.375q-0.484375 -0.140625 -1.078125 -0.140625q-0.59375 0 -1.078125 0.234375q-0.484375 0.21875 -0.828125 0.640625q-0.34375 0.421875 -0.53125 1.046875q-0.171875 0.609375 -0.171875 1.390625q0 1.65625 0.671875 2.5q0.671875 0.828125 1.96875 0.828125q0.546875 0 1.046875 -0.125q0.5 -0.125 0.953125 -0.34375l0 1.09375zm6.9997253 0.3125l-4.828125 0l0 -8.5l4.828125 0l0 0.96875l-3.671875 0l0 2.640625l3.53125 0l0 0.96875l-3.53125 0l0 2.9375l3.671875 0l0 0.984375z" fill-rule="nonzero"/><path fill="#000000" fill-opacity="0.0" d="m328.0 252.44095l112.0 0l0 35.55905l-112.0 0z" fill-rule="evenodd"/><path fill="#ffffff" d="m343.48438 271.94406q0 0.59375 -0.25 1.0625q-0.234375 0.453125 -0.6875 0.75q-0.4375 0.296875 -1.0625 0.453125q-0.625 0.140625 -1.359375 0.140625q-0.34375 0 -0.6875 -0.03125q-0.328125 -0.015625 -0.640625 -0.0625q-0.3125 -0.03125 -0.59375 -0.078125q-0.265625 -0.046875 -0.484375 -0.109375l0 -1.125q0.484375 0.1875 1.09375 0.296875q0.609375 0.09375 1.390625 0.09375q0.5625 0 0.953125 -0.078125q0.390625 -0.09375 0.640625 -0.265625q0.25 -0.171875 0.359375 -0.421875q0.125 -0.25 0.125 -0.5625q0 -0.34375 -0.203125 -0.59375q-0.1875 -0.25 -0.5 -0.4375q-0.3125 -0.1875 -0.71875 -0.34375q-0.390625 -0.171875 -0.8125 -0.328125q-0.40625 -0.171875 -0.8125 -0.375q-0.40625 -0.203125 -0.71875 -0.46875q-0.3125 -0.265625 -0.5 -0.625q-0.1875 -0.375 -0.1875 -0.875q0 -0.4375 0.171875 -0.859375q0.1875 -0.421875 0.5625 -0.75q0.390625 -0.328125 0.984375 -0.53125q0.609375 -0.203125 1.453125 -0.203125q0.203125 0 0.453125 0.03125q0.265625 0.015625 0.515625 0.046875q0.25 0.03125 0.5 0.078125q0.265625 0.046875 0.46875 0.09375l0 1.046875q-0.5 -0.140625 -1.0 -0.21875q-0.5 -0.078125 -0.96875 -0.078125q-1.0 0 -1.46875 0.34375q-0.46875 0.328125 -0.46875 0.890625q0 0.34375 0.1875 0.59375q0.203125 0.234375 0.515625 0.4375q0.3125 0.1875 0.703125 0.359375q0.40625 0.15625 0.8125 0.328125q0.421875 0.15625 0.828125 0.359375q0.40625 0.203125 0.71875 0.484375q0.3125 0.28125 0.5 0.65625q0.1875 0.359375 0.1875 0.875zm6.984131 2.296875l-4.828125 0l0 -8.5l4.828125 0l0 0.96875l-3.671875 0l0 2.640625l3.53125 0l0 0.96875l-3.53125 0l0 2.9375l3.671875 0l0 0.984375zm8.030975 0l-1.3125 0l-1.265625 -2.71875q-0.140625 -0.3125 -0.296875 -0.515625q-0.15625 -0.203125 -0.328125 -0.328125q-0.171875 -0.125 -0.375 -0.171875q-0.203125 -0.046875 -0.453125 -0.046875l-0.546875 0l0 3.78125l-1.15625 0l0 -8.5l2.28125 0q0.734375 0 1.265625 0.15625q0.53125 0.15625 0.875 0.453125q0.34375 0.296875 0.5 0.71875q0.171875 0.40625 0.171875 0.90625q0 0.390625 -0.125 0.75q-0.109375 0.359375 -0.34375 0.65625q-0.234375 0.28125 -0.578125 0.5q-0.34375 0.203125 -0.78125 0.3125q0.359375 0.109375 0.609375 0.421875q0.25 0.3125 0.515625 0.828125l1.34375 2.796875zm-1.859375 -6.171875q0 -0.6875 -0.4375 -1.015625q-0.421875 -0.34375 -1.1875 -0.34375l-1.09375 0l0 2.8125l0.9375 0q0.40625 0 0.734375 -0.09375q0.328125 -0.09375 0.5625 -0.28125q0.234375 -0.1875 0.359375 -0.453125q0.125 -0.265625 0.125 -0.625zm9.64035 -2.328125l-2.890625 8.5l-1.5625 0l-2.8125 -8.5l1.296875 0l1.84375 5.734375l0.515625 1.671875l0.53125 -1.671875l1.84375 -5.734375l1.234375 0zm3.1091309 0.96875l-1.953125 0l0 -0.96875l5.078125 0l0 0.96875l-1.953125 0l0 6.546875l1.953125 0l0 0.984375l-5.078125 0l0 -0.984375l1.953125 0l0 -6.546875zm10.718506 7.21875q-1.015625 0.421875 -2.140625 0.421875q-1.796875 0 -2.765625 -1.078125q-0.96875 -1.078125 -0.96875 -3.1875q0 -1.03125 0.265625 -1.84375q0.265625 -0.828125 0.765625 -1.40625q0.5 -0.578125 1.203125 -0.890625q0.703125 -0.3125 1.578125 -0.3125q0.578125 0 1.078125 0.109375q0.515625 0.09375 0.984375 0.296875l0 1.140625q-0.453125 -0.25 -0.953125 -0.375q-0.484375 -0.140625 -1.078125 -0.140625q-0.59375 0 -1.078125 0.234375q-0.484375 0.21875 -0.828125 0.640625q-0.34375 0.421875 -0.53125 1.046875q-0.171875 0.609375 -0.171875 1.390625q0 1.65625 0.671875 2.5q0.671875 0.828125 1.96875 0.828125q0.546875 0 1.046875 -0.125q0.5 -0.125 0.953125 -0.34375l0 1.09375zm6.9997253 0.3125l-4.828125 0l0 -8.5l4.828125 0l0 0.96875l-3.671875 0l0 2.640625l3.53125 0l0 0.96875l-3.53125 0l0 2.9375l3.671875 0l0 0.984375z" fill-rule="nonzero"/><path fill="#000000" fill-opacity="0.0" d="m120.0 164.44095l56.0 0l0 35.55905l-56.0 0z" fill-rule="evenodd"/><path fill="#ffffff" d="m135.76562 178.72533l-2.515625 0l0 7.515625l-1.171875 0l0 -7.515625l-2.515625 0l0 -0.984375l6.203125 0l0 0.984375zm6.7028656 7.515625l-4.828125 0l0 -8.5l4.828125 0l0 0.96875l-3.671875 0l0 2.640625l3.53125 0l0 0.96875l-3.53125 0l0 2.9375l3.671875 0l0 0.984375zm7.6716156 -2.296875q0 0.59375 -0.25 1.0625q-0.234375 0.453125 -0.6875 0.75q-0.4375 0.296875 -1.0625 0.453125q-0.625 0.140625 -1.359375 0.140625q-0.34375 0 -0.6875 -0.03125q-0.328125 -0.015625 -0.640625 -0.0625q-0.3125 -0.03125 -0.59375 -0.078125q-0.265625 -0.046875 -0.484375 -0.109375l0 -1.125q0.484375 0.1875 1.09375 0.296875q0.609375 0.09375 1.390625 0.09375q0.5625 0 0.953125 -0.078125q0.390625 -0.09375 0.640625 -0.265625q0.25 -0.171875 0.359375 -0.421875q0.125 -0.25 0.125 -0.5625q0 -0.34375 -0.203125 -0.59375q-0.1875 -0.25 -0.5 -0.4375q-0.3125 -0.1875 -0.71875 -0.34375q-0.390625 -0.171875 -0.8125 -0.328125q-0.40625 -0.171875 -0.8125 -0.375q-0.40625 -0.203125 -0.71875 -0.46875q-0.3125 -0.265625 -0.5 -0.625q-0.1875 -0.375 -0.1875 -0.875q0 -0.4375 0.171875 -0.859375q0.1875 -0.421875 0.5625 -0.75q0.390625 -0.328125 0.984375 -0.53125q0.609375 -0.203125 1.453125 -0.203125q0.203125 0 0.453125 0.03125q0.265625 0.015625 0.515625 0.046875q0.25 0.03125 0.5 0.078125q0.265625 0.046875 0.46875 0.09375l0 1.046875q-0.5 -0.140625 -1.0 -0.21875q-0.5 -0.078125 -0.96875 -0.078125q-1.0 0 -1.46875 0.34375q-0.46875 0.328125 -0.46875 0.890625q0 0.34375 0.1875 0.59375q0.203125 0.234375 0.515625 0.4375q0.3125 0.1875 0.703125 0.359375q0.40625 0.15625 0.8125 0.328125q0.421875 0.15625 0.828125 0.359375q0.40625 0.203125 0.71875 0.484375q0.3125 0.28125 0.5 0.65625q0.1875 0.359375 0.1875 0.875zm7.6091156 -5.21875l-2.515625 0l0 7.515625l-1.171875 0l0 -7.515625l-2.515625 0l0 -0.984375l6.203125 0l0 0.984375z" fill-rule="nonzero"/><path fill="#000000" fill-opacity="0.0" d="m120.0 228.44095l56.0 0l0 35.55905l-56.0 0z" fill-rule="evenodd"/><path fill="#ffffff" d="m135.76562 242.72533l-2.515625 0l0 7.515625l-1.171875 0l0 -7.515625l-2.515625 0l0 -0.984375l6.203125 0l0 0.984375zm6.7028656 7.515625l-4.828125 0l0 -8.5l4.828125 0l0 0.96875l-3.671875 0l0 2.640625l3.53125 0l0 0.96875l-3.53125 0l0 2.9375l3.671875 0l0 0.984375zm7.6716156 -2.296875q0 0.59375 -0.25 1.0625q-0.234375 0.453125 -0.6875 0.75q-0.4375 0.296875 -1.0625 0.453125q-0.625 0.140625 -1.359375 0.140625q-0.34375 0 -0.6875 -0.03125q-0.328125 -0.015625 -0.640625 -0.0625q-0.3125 -0.03125 -0.59375 -0.078125q-0.265625 -0.046875 -0.484375 -0.109375l0 -1.125q0.484375 0.1875 1.09375 0.296875q0.609375 0.09375 1.390625 0.09375q0.5625 0 0.953125 -0.078125q0.390625 -0.09375 0.640625 -0.265625q0.25 -0.171875 0.359375 -0.421875q0.125 -0.25 0.125 -0.5625q0 -0.34375 -0.203125 -0.59375q-0.1875 -0.25 -0.5 -0.4375q-0.3125 -0.1875 -0.71875 -0.34375q-0.390625 -0.171875 -0.8125 -0.328125q-0.40625 -0.171875 -0.8125 -0.375q-0.40625 -0.203125 -0.71875 -0.46875q-0.3125 -0.265625 -0.5 -0.625q-0.1875 -0.375 -0.1875 -0.875q0 -0.4375 0.171875 -0.859375q0.1875 -0.421875 0.5625 -0.75q0.390625 -0.328125 0.984375 -0.53125q0.609375 -0.203125 1.453125 -0.203125q0.203125 0 0.453125 0.03125q0.265625 0.015625 0.515625 0.046875q0.25 0.03125 0.5 0.078125q0.265625 0.046875 0.46875 0.09375l0 1.046875q-0.5 -0.140625 -1.0 -0.21875q-0.5 -0.078125 -0.96875 -0.078125q-1.0 0 -1.46875 0.34375q-0.46875 0.328125 -0.46875 0.890625q0 0.34375 0.1875 0.59375q0.203125 0.234375 0.515625 0.4375q0.3125 0.1875 0.703125 0.359375q0.40625 0.15625 0.8125 0.328125q0.421875 0.15625 0.828125 0.359375q0.40625 0.203125 0.71875 0.484375q0.3125 0.28125 0.5 0.65625q0.1875 0.359375 0.1875 0.875zm7.6091156 -5.21875l-2.515625 0l0 7.515625l-1.171875 0l0 -7.515625l-2.515625 0l0 -0.984375l6.203125 0l0 0.984375z" fill-rule="nonzero"/><path fill="#000000" fill-opacity="0.0" d="m104.0 296.0l56.0 0l0 35.55905l-56.0 0z" fill-rule="evenodd"/><path fill="#ffffff" d="m119.765625 310.28436l-2.515625 0l0 7.515625l-1.171875 0l0 -7.515625l-2.515625 0l0 -0.984375l6.203125 0l0 0.984375zm6.7028656 7.515625l-4.828125 0l0 -8.5l4.828125 0l0 0.96875l-3.671875 0l0 2.640625l3.53125 0l0 0.96875l-3.53125 0l0 2.9375l3.671875 0l0 0.984375zm7.6716156 -2.296875q0 0.59375 -0.25 1.0625q-0.234375 0.453125 -0.6875 0.75q-0.4375 0.296875 -1.0625 0.453125q-0.625 0.140625 -1.359375 0.140625q-0.34375 0 -0.6875 -0.03125q-0.328125 -0.015625 -0.640625 -0.0625q-0.3125 -0.03125 -0.59375 -0.078125q-0.265625 -0.046875 -0.484375 -0.109375l0 -1.125q0.484375 0.1875 1.09375 0.296875q0.609375 0.09375 1.390625 0.09375q0.5625 0 0.953125 -0.078125q0.390625 -0.09375 0.640625 -0.265625q0.25 -0.171875 0.359375 -0.421875q0.125 -0.25 0.125 -0.5625q0 -0.34375 -0.203125 -0.59375q-0.1875 -0.25 -0.5 -0.4375q-0.3125 -0.1875 -0.71875 -0.34375q-0.390625 -0.171875 -0.8125 -0.328125q-0.40625 -0.171875 -0.8125 -0.375q-0.40625 -0.203125 -0.71875 -0.46875q-0.3125 -0.265625 -0.5 -0.625q-0.1875 -0.375 -0.1875 -0.875q0 -0.4375 0.171875 -0.859375q0.1875 -0.421875 0.5625 -0.75q0.390625 -0.328125 0.984375 -0.53125q0.609375 -0.203125 1.453125 -0.203125q0.203125 0 0.453125 0.03125q0.265625 0.015625 0.515625 0.046875q0.25 0.03125 0.5 0.078125q0.265625 0.046875 0.46875 0.09375l0 1.046875q-0.5 -0.140625 -1.0 -0.21875q-0.5 -0.078125 -0.96875 -0.078125q-1.0 0 -1.46875 0.34375q-0.46875 0.328125 -0.46875 0.890625q0 0.34375 0.1875 0.59375q0.203125 0.234375 0.515625 0.4375q0.3125 0.1875 0.703125 0.359375q0.40625 0.15625 0.8125 0.328125q0.421875 0.15625 0.828125 0.359375q0.40625 0.203125 0.71875 0.484375q0.3125 0.28125 0.5 0.65625q0.1875 0.359375 0.1875 0.875zm7.6091156 -5.21875l-2.515625 0l0 7.515625l-1.171875 0l0 -7.515625l-2.515625 0l0 -0.984375l6.203125 0l0 0.984375z" fill-rule="nonzero"/><path fill="#000000" fill-opacity="0.0" d="m532.9449 178.99213c12.499084 0 49.47754 -34.90207 24.998108 -67.00387c-24.47937 -32.101807 -110.416595 -61.40334 -208.59354 -67.003876c-98.176926 -5.6005325 -208.59355 12.499931 -208.59355 24.999866" fill-rule="evenodd"/><path stroke="#ffffff" stroke-width="1.0" stroke-linejoin="round" stroke-linecap="butt" d="m532.9449 178.99213c12.499023 0 49.47754 -34.90207 24.998108 -67.00387c-24.47937 -32.101807 -110.416626 -61.403336 -208.59354 -67.003876c-49.08847 -2.8002663 -101.23685 0.32471466 -141.11311 5.7122574c-19.938156 2.6937714 -36.808258 5.953182 -48.693832 9.320396c-5.9427795 1.6836052 -10.639435 3.3941612 -13.850388 5.074436c-0.2006836 0.105018616 -0.39556885 0.20992279 -0.58457947 0.31468964c-0.09451294 0.052383423 -0.18756104 0.1047287 -0.27912903 0.15704346l-0.0098724365 0.0057296753" fill-rule="evenodd"/><path fill="#ffffff" stroke="#ffffff" stroke-width="1.0" stroke-linecap="butt" d="m143.60306 64.45054l-1.8572845 4.457924l4.288254 -2.2211227z" fill-rule="evenodd"/><path fill="#000000" fill-opacity="0.0" d="m592.0 242.99213c12.499451 0 53.415283 -51.96869 24.998901 -99.00375c-28.41632 -47.03508 -126.164825 -89.13654 -238.12149 -99.00375c-111.956665 -9.867218 -238.1215 12.499817 -238.1215 24.999638" fill-rule="evenodd"/><path stroke="#ffffff" stroke-width="1.0" stroke-linejoin="round" stroke-linecap="butt" d="m592.0 242.99213c12.499451 0 53.415283 -51.96869 24.998962 -99.00375c-28.416382 -47.035072 -126.16489 -89.13654 -238.12155 -99.00375c-55.978333 -4.933609 -115.5087 -1.8086548 -161.04451 4.112179c-22.767883 2.960415 -42.03714 6.6198044 -55.61441 10.320324c-6.7886353 1.8502617 -12.154282 3.710804 -15.822769 5.4994087c-0.4585724 0.22357178 -0.89060974 0.44602203 -1.2955933 0.6671829l-0.16755676 0.092933655" fill-rule="evenodd"/><path fill="#ffffff" stroke="#ffffff" stroke-width="1.0" stroke-linecap="butt" d="m143.74672 64.526855l-1.973175 4.4078445l4.344864 -2.1082764z" fill-rule="evenodd"/><path fill="#000000" fill-opacity="0.0" d="m548.3779 196.44095l112.0 0l0 35.55905l-112.0 0z" fill-rule="evenodd"/><path fill="#ffffff" d="m563.8623 215.94408q0 0.59375 -0.25 1.0625q-0.234375 0.453125 -0.6875 0.75q-0.4375 0.296875 -1.0625 0.453125q-0.625 0.140625 -1.359375 0.140625q-0.34375 0 -0.6875 -0.03125q-0.328125 -0.015625 -0.640625 -0.0625q-0.3125 -0.03125 -0.59375 -0.078125q-0.265625 -0.046875 -0.484375 -0.109375l0 -1.125q0.484375 0.1875 1.09375 0.296875q0.609375 0.09375 1.390625 0.09375q0.5625 0 0.953125 -0.078125q0.390625 -0.09375 0.640625 -0.265625q0.25 -0.171875 0.359375 -0.421875q0.125 -0.25 0.125 -0.5625q0 -0.34375 -0.203125 -0.59375q-0.1875 -0.25 -0.5 -0.4375q-0.3125 -0.1875 -0.71875 -0.34375q-0.390625 -0.171875 -0.8125 -0.328125q-0.40625 -0.171875 -0.8125 -0.375q-0.40625 -0.203125 -0.71875 -0.46875q-0.3125 -0.265625 -0.5 -0.625q-0.1875 -0.375 -0.1875 -0.875q0 -0.4375 0.171875 -0.859375q0.1875 -0.421875 0.5625 -0.75q0.390625 -0.328125 0.984375 -0.53125q0.609375 -0.203125 1.453125 -0.203125q0.203125 0 0.453125 0.03125q0.265625 0.015625 0.515625 0.046875q0.25 0.03125 0.5 0.078125q0.265625 0.046875 0.46875 0.09375l0 1.046875q-0.5 -0.140625 -1.0 -0.21875q-0.5 -0.078125 -0.96875 -0.078125q-1.0 0 -1.46875 0.34375q-0.46875 0.328125 -0.46875 0.890625q0 0.34375 0.1875 0.59375q0.203125 0.234375 0.515625 0.4375q0.3125 0.1875 0.703125 0.359375q0.40625 0.15625 0.8125 0.328125q0.421875 0.15625 0.828125 0.359375q0.40625 0.203125 0.71875 0.484375q0.3125 0.28125 0.5 0.65625q0.1875 0.359375 0.1875 0.875zm6.984131 2.296875l-4.828125 0l0 -8.5l4.828125 0l0 0.96875l-3.671875 0l0 2.640625l3.53125 0l0 0.96875l-3.53125 0l0 2.9375l3.671875 0l0 0.984375zm8.031006 0l-1.3125 0l-1.265625 -2.71875q-0.140625 -0.3125 -0.296875 -0.515625q-0.15625 -0.203125 -0.328125 -0.328125q-0.171875 -0.125 -0.375 -0.171875q-0.203125 -0.046875 -0.453125 -0.046875l-0.546875 0l0 3.78125l-1.15625 0l0 -8.5l2.28125 0q0.734375 0 1.265625 0.15625q0.53125 0.15625 0.875 0.453125q0.34375 0.296875 0.5 0.71875q0.171875 0.40625 0.171875 0.90625q0 0.390625 -0.125 0.75q-0.109375 0.359375 -0.34375 0.65625q-0.234375 0.28125 -0.578125 0.5q-0.34375 0.203125 -0.78125 0.3125q0.359375 0.109375 0.609375 0.421875q0.25 0.3125 0.515625 0.828125l1.34375 2.796875zm-1.859375 -6.171875q0 -0.6875 -0.4375 -1.015625q-0.421875 -0.34375 -1.1875 -0.34375l-1.09375 0l0 2.8125l0.9375 0q0.40625 0 0.734375 -0.09375q0.328125 -0.09375 0.5625 -0.28125q0.234375 -0.1875 0.359375 -0.453125q0.125 -0.265625 0.125 -0.625zm9.640381 -2.328125l-2.890625 8.5l-1.5625 0l-2.8125 -8.5l1.296875 0l1.84375 5.734375l0.515625 1.671875l0.53125 -1.671875l1.84375 -5.734375l1.234375 0zm3.1090698 0.96875l-1.953125 0l0 -0.96875l5.078125 0l0 0.96875l-1.953125 0l0 6.546875l1.953125 0l0 0.984375l-5.078125 0l0 -0.984375l1.953125 0l0 -6.546875zm10.718506 7.21875q-1.015625 0.421875 -2.140625 0.421875q-1.796875 0 -2.765625 -1.078125q-0.96875 -1.078125 -0.96875 -3.1875q0 -1.03125 0.265625 -1.84375q0.265625 -0.828125 0.765625 -1.40625q0.5 -0.578125 1.203125 -0.890625q0.703125 -0.3125 1.578125 -0.3125q0.578125 0 1.078125 0.109375q0.515625 0.09375 0.984375 0.296875l0 1.140625q-0.453125 -0.25 -0.953125 -0.375q-0.484375 -0.140625 -1.078125 -0.140625q-0.59375 0 -1.078125 0.234375q-0.484375 0.21875 -0.828125 0.640625q-0.34375 0.421875 -0.53125 1.046875q-0.171875 0.609375 -0.171875 1.390625q0 1.65625 0.671875 2.5q0.671875 0.828125 1.96875 0.828125q0.546875 0 1.046875 -0.125q0.5 -0.125 0.953125 -0.34375l0 1.09375zm6.999756 0.3125l-4.828125 0l0 -8.5l4.828125 0l0 0.96875l-3.671875 0l0 2.640625l3.53125 0l0 0.96875l-3.53125 0l0 2.9375l3.671875 0l0 0.984375z" fill-rule="nonzero"/></g></svg>