<svg version="1.1" viewBox="0.0 0.0 610.0997375328084 303.81102362204723" fill="none" stroke="none" stroke-linecap="square" stroke-miterlimit="10" xmlns:xlink="http://www.w3.org/1999/xlink" xmlns="http://www.w3.org/2000/svg"><clipPath id="p.0"><path d="m0 0l610.09973 0l0 303.81104l-610.09973 0l0 -303.81104z" clip-rule="nonzero"/></clipPath><g clip-path="url(#p.0)"><path fill="#000000" fill-opacity="0.0" d="m0 0l610.09973 0l0 303.81104l-610.09973 0z" fill-rule="evenodd"/><path fill="#000000" fill-opacity="0.0" d="m30.96063 40.963253l138.64566 0l0 42.01575l-138.64566 0z" fill-rule="evenodd"/><path fill="#ffffff" d="m55.99188 54.602q2.671875 2.671875 2.671875 6.453125q0 3.7812538 -2.671875 6.453129q-2.671875 2.671875 -6.453125 2.671875q-3.78125 0 -6.453125 -2.671875q-2.671875 -2.671875 -2.671875 -6.453129q0 -3.78125 2.671875 -6.453125q2.671875 -2.671875 6.453125 -2.671875q3.78125 0 6.453125 2.671875zm-0.515625 12.390629q2.453125 -2.453125 2.453125 -5.937504q0 -3.484375 -2.453125 -5.9375q-2.453125 -2.453125 -5.9375 -2.453125q-3.484375 0 -5.9375 2.453125q-2.453125 2.453125 -2.453125 5.9375q0 3.4843788 2.453125 5.937504q2.453125 2.453125 5.9375 2.453125q3.484375 0 5.9375 -2.453125zm-4.828125 -12.390629l0 12.687504l-1.703125 0l0 -9.953129l-2.890625 0l0 -1.1875q2.734375 0.15625 3.484375 -1.546875l1.109375 0zm16.843754 14.625004q-2.296875 0 -4.218754 -1.796875q-0.890625 1.046875 -2.75 2.09375l-0.59375 -1.859375q0.8125 -0.234375 2.515625 -1.34375l0 -4.828129l-2.296875 0l0 -1.40625l3.78125 0l0 6.156254q1.4843788 1.34375 3.8593788 1.34375l9.203125 0l-0.296875 1.640625l-9.203125 0zm1.046875 -14.406254q1.859375 0.4375 2.375 0.671875l1.40625 -1.046875l-6.828125 0l0 -1.40625l8.46875 0l0.359375 -0.21875l1.125 0.8125q0.4375 0.375 -0.375 0.4375l-2.890625 1.9375l0.953125 0.4375l-0.890625 0.890625l3.34375 0l0 8.468754q0 1.03125 -1.03125 1.03125l-1.640625 0l-0.078125 -1.40625l0.96875 0q0.296875 0 0.296875 -0.296875l0 -1.4062538l-2.8125 0l0 2.8906288l-1.484375 0l0 -2.8906288l-2.671875 0l0 3.1875038l-1.484375 0l0 -9.578129l5.484375 0q-3.109375 -1.25 -3.703125 -1.40625l1.109375 -1.109375zm2.75 3.703125l0 1.421875l2.8125 0l0 -1.421875l-2.8125 0zm-4.15625 0l0 1.421875l2.671875 0l0 -1.421875l-2.671875 0zm2.671875 2.609375l-2.671875 0l0 1.40625l2.671875 0l0 -1.40625zm4.296875 0l-2.8125 0l0 1.40625l2.8125 0l0 -1.40625zm-12.093754 -8.25q2.0000038 1.265625 2.7500038 2.453125l-1.2656288 1.34375q-1.1875 -1.484375 -2.53125 -2.53125l1.046875 -1.265625zm28.937504 14.109379l1.484375 0q0.296875 0 0.296875 -0.296875l0 -2.0l-4.515625 0l0 4.59375l-1.484375 0l0 -4.59375l-4.234375 0l0 3.640625l-1.484375 0l0 -5.062504l5.71875 0l0 -1.1875l-1.9375 0l-1.921875 0l0 -4.078125l9.046875 0l0 4.078125l-3.703125 0l0 1.1875l6.0 0l0 4.093754q0 1.03125 -1.03125 1.03125l-1.9375 0l-0.296875 -1.40625zm-7.421875 -11.281254q-0.65625 -1.109375 -1.625 -1.859375l1.1875 -0.96875q1.1875 0.75 1.859375 2.015625l-1.125 0.8125l2.90625 0l0 -3.265625l1.40625 0q0.59375 0.078125 0.078125 0.4375l0 2.828125l2.8125 0l-1.1875 -0.75l1.484375 -2.296875l1.34375 0.8125q0.515625 0.375 -0.15625 0.375l-1.265625 1.859375l4.15625 0l0 3.484375l-1.484375 0l0 -2.296875l-13.0625 0l0 2.59375l-1.484375 0l0 -3.78125l4.15625 0zm6.90625 3.484375l-6.078125 0l0 1.703125l6.078125 0l0 -1.703125zm21.75 8.468754l-6.453125 0q-1.859375 0 -1.859375 -1.9375l0 -4.000004l-5.9375 0l0 -1.640625l5.9375 0l0 -3.40625l-4.53125 0l0 -1.640625l11.796875 0l0 1.640625l-5.5625 0l0 3.40625l7.421875 0l0 1.640625l-7.421875 0l0 3.4062538q0 0.890625 0.8125 0.890625l5.875 0l-0.078125 1.640625zm2.7421875 -5.875004l0 -1.625l16.546875 0l0 1.625l-16.546875 0zm27.757812 1.71875q-3.9375 -2.015625 -6.453125 -2.671875l0 7.718754l-1.703125 0l0 -14.843754l1.484375 0q0.890625 0.0625 0.21875 0.59375l0 4.671875q3.640625 1.03125 7.34375 2.8125l-0.890625 1.71875zm-0.140625 -6.53125q-1.265625 -1.5625 -2.53125 -2.53125l0.96875 -0.734375q1.265625 0.953125 2.515625 2.515625l-0.953125 0.75zm1.78125 -1.421875q-0.96875 -1.25 -2.453125 -2.4375l0.96875 -0.75q1.25 0.890625 2.4375 2.453125l-0.953125 0.734375z" fill-rule="nonzero"/><path fill="#000000" fill-opacity="0.0" d="m30.96063 104.96326l243.40158 0l0 42.015747l-243.40158 0z" fill-rule="evenodd"/><path fill="#ffffff" d="m53.39813 122.164505q0 1.484375 -1.046875 2.671875q-0.890625 0.8125 -2.296875 1.84375q-2.515625 1.859375 -2.890625 2.96875l6.609375 0l0 1.640625l-8.546875 0l0 -1.484375q0.75 -1.78125 2.671875 -3.34375q2.078125 -1.625 2.90625 -2.453125q0.8125 -0.734375 0.8125 -1.84375q0 -0.96875 -0.671875 -1.640625q-0.4375 -0.4375 -1.484375 -0.4375q-1.03125 0 -1.484375 0.4375q-0.671875 0.671875 -0.515625 1.859375l-1.859375 0q-0.078125 -1.78125 0.96875 -2.828125q1.109375 -1.109375 2.890625 -1.109375q1.78125 0 2.828125 1.046875q1.109375 1.109375 1.109375 2.671875zm2.59375 -3.5625q2.671875 2.671875 2.671875 6.453125q0 3.78125 -2.671875 6.453125q-2.671875 2.671875 -6.453125 2.671875q-3.78125 0 -6.453125 -2.671875q-2.671875 -2.671875 -2.671875 -6.453125q0 -3.78125 2.671875 -6.453125q2.671875 -2.671875 6.453125 -2.671875q3.78125 0 6.453125 2.671875zm-0.515625 12.390625q2.453125 -2.453125 2.453125 -5.9375q0 -3.484375 -2.453125 -5.9375q-2.453125 -2.453125 -5.9375 -2.453125q-3.484375 0 -5.9375 2.453125q-2.453125 2.453125 -2.453125 5.9375q0 3.484375 2.453125 5.9375q2.453125 2.453125 5.9375 2.453125q3.484375 0 5.9375 -2.453125zm16.406254 -6.6875q2.671875 2.828125 4.0 5.203125l-1.625 1.109375q-1.5625 -2.75 -3.796875 -5.125l1.421875 -1.1875zm-3.5625 -3.1875l6.828125 0l0 1.640625l-6.828125 0l0 10.3125l-1.71875 0l0 -10.3125l-6.671879 0l0 -1.640625l6.671879 0l0 -4.15625l1.5625 0q0.8125 0.15625 0.15625 0.59375l0 3.5625zm-3.9375 4.078125q0.4375 0.375 -0.296875 0.53125q-1.1093788 2.4375 -2.8281288 5.109375l-1.625 -0.890625q1.859375 -2.671875 3.109375 -5.640625l1.6406288 0.890625zm8.984375 -4.890625q-1.34375 -1.40625 -2.453125 -2.296875l0.890625 -0.890625q1.265625 0.953125 2.453125 2.21875l-0.890625 0.96875zm2.078125 -1.046875q-1.34375 -1.484375 -2.453125 -2.4375l0.96875 -0.828125q1.25 0.96875 2.4375 2.375l-0.953125 0.890625zm8.90625 -1.1875q-0.296875 0.890625 -0.75 1.71875l4.96875 0l0.828125 -0.296875l0.953125 0.953125q0.296875 0.375 -0.296875 0.59375q-0.59375 2.96875 -1.78125 5.421875l1.78125 1.1875l-1.109375 1.640625l-1.625 -1.1875q-2.15625 3.109375 -6.171875 5.125l-1.703125 -1.265625q4.453125 -1.859375 6.390625 -4.90625q-1.859375 -1.1875 -3.640625 -2.15625l0.890625 -1.328125q2.296875 1.03125 3.78125 1.921875q1.109375 -2.296875 1.34375 -4.078125l-5.421875 0q-1.40625 2.53125 -3.484375 4.609375l-1.421875 -0.96875q3.796875 -3.9375 4.984375 -8.3125l1.78125 0.734375q0.59375 0.296875 -0.296875 0.59375zm22.703125 5.203125q-3.9375 8.15625 -13.203125 8.609375q-0.375 0.96875 -0.75 0.15625l-0.59375 -1.9375q9.65625 -0.21875 12.984375 -7.9375l1.5625 1.109375zm-10.46875 0q-2.0 -1.859375 -3.78125 -3.046875l1.265625 -1.5625q1.5625 0.96875 3.9375 3.203125l-1.421875 1.40625zm15.371094 6.90625q6.828125 -1.265625 9.9375 -6.90625l1.265625 1.265625q-3.5625 6.234375 -11.875 7.640625l-1.1875 -0.890625l0.15625 -0.453125l0 -12.3125l1.625 0q0.671875 0.078125 0.078125 0.515625l0 11.140625zm13.3515625 -3.71875q7.796875 -3.265625 11.8125 -9.203125l1.40625 1.1875q0.59375 0.453125 -0.515625 0.671875q-1.421875 1.859375 -3.640625 3.78125l0 10.09375l-1.703125 0l0 -8.6875q-2.609375 2.015625 -6.09375 3.640625l-1.265625 -1.484375zm23.613281 -2.15625q0.140625 5.640625 -4.828125 8.765625l-1.265625 -1.40625q4.375 -2.375 4.375 -6.6875l0 -3.1875l1.5625 0q0.671875 0.078125 0.15625 0.515625l0 1.9375q2.671875 -2.015625 4.078125 -3.9375l-12.09375 0.4375l-0.15625 -1.703125l13.515625 -0.375l0.515625 -0.140625l1.109375 1.328125q0.21875 0.296875 -0.375 0.234375q-2.21875 2.890625 -5.34375 5.40625l-1.25 -1.1875zm23.898438 -2.890625q0 8.09375 -7.796875 11.953125l-1.40625 -1.40625q7.1875 -3.265625 7.265625 -9.796875l-10.3125 0l0.140625 4.375l-1.703125 0l-0.21875 -6.015625l5.859375 0l0 -3.703125l1.484375 0q0.890625 0.0625 0.21875 0.59375l0 3.109375l5.578125 0l0.890625 0.890625zm6.0742188 1.5625q3.640625 1.03125 7.359375 2.8125l-0.890625 1.71875q-3.9375 -2.015625 -6.46875 -2.671875l0 7.71875l-1.703125 0l0 -14.84375l1.484375 0q0.890625 0.0625 0.21875 0.59375l0 4.671875zm23.460938 8.6875l-6.453125 0q-1.859375 0 -1.859375 -1.9375l0 -4.0l-5.9375 0l0 -1.640625l5.9375 0l0 -3.40625l-4.53125 0l0 -1.640625l11.796875 0l0 1.640625l-5.5625 0l0 3.40625l7.421875 0l0 1.640625l-7.421875 0l0 3.40625q0 0.890625 0.8125 0.890625l5.875 0l-0.078125 1.640625zm2.7421875 -5.875l0 -1.625l16.546875 0l0 1.625l-16.546875 0zm27.757812 1.71875q-3.9375 -2.015625 -6.453125 -2.671875l0 7.71875l-1.703125 0l0 -14.84375l1.484375 0q0.890625 0.0625 0.21875 0.59375l0 4.671875q3.640625 1.03125 7.34375 2.8125l-0.890625 1.71875zm-0.140625 -6.53125q-1.265625 -1.5625 -2.53125 -2.53125l0.96875 -0.734375q1.265625 0.953125 2.515625 2.515625l-0.953125 0.75zm1.78125 -1.421875q-0.96875 -1.25 -2.453125 -2.4375l0.96875 -0.75q1.25 0.890625 2.4375 2.453125l-0.953125 0.734375z" fill-rule="nonzero"/><path fill="#000000" fill-opacity="0.0" d="m30.96063 168.96326l227.40158 0l0 42.015747l-227.40158 0z" fill-rule="evenodd"/><path fill="#ffffff" d="m55.99188 182.602q2.671875 2.671875 2.671875 6.453125q0 3.78125 -2.671875 6.453125q-2.671875 2.671875 -6.453125 2.671875q-3.78125 0 -6.453125 -2.671875q-2.671875 -2.671875 -2.671875 -6.453125q0 -3.78125 2.671875 -6.453125q2.671875 -2.671875 6.453125 -2.671875q3.78125 0 6.453125 2.671875zm-0.515625 12.390625q2.453125 -2.453125 2.453125 -5.9375q0 -3.484375 -2.453125 -5.9375q-2.453125 -2.453125 -5.9375 -2.453125q-3.484375 0 -5.9375 2.453125q-2.453125 2.453125 -2.453125 5.9375q0 3.484375 2.453125 5.9375q2.453125 2.453125 5.9375 2.453125q3.484375 0 5.9375 -2.453125zm-7.203125 -7.203125q2.0 0.078125 2.59375 -0.515625q0.53125 -0.515625 0.53125 -1.40625q0 -0.890625 -0.59375 -1.484375q-0.453125 -0.453125 -1.421875 -0.453125q-1.03125 0 -1.625 0.59375q-0.515625 0.515625 -0.671875 1.109375l-1.921875 0q0.296875 -1.1875 1.109375 -2.0q1.1875 -1.1875 3.1875 -1.1875q1.78125 0 2.828125 1.046875q0.890625 0.890625 0.890625 2.140625q0 1.34375 -0.671875 2.015625q-0.8125 0.8125 -1.78125 0.953125q1.328125 0.296875 1.921875 0.890625q0.890625 0.890625 0.890625 2.15625q0 1.640625 -1.03125 2.671875q-1.1875 1.1875 -3.265625 1.1875q-2.0 0 -3.046875 -1.03125q-0.890625 -0.890625 -1.03125 -2.375l1.84375 0q0.078125 0.8125 0.53125 1.25q0.59375 0.59375 1.703125 0.59375q1.1875 0 1.859375 -0.65625q0.59375 -0.59375 0.59375 -1.5625q0 -1.046875 -0.59375 -1.640625q-0.75 -0.734375 -2.828125 -0.734375l0 -1.5625zm28.796879 7.875l-0.296875 1.40625l-8.75 0q-2.96875 0 -4.750004 -2.078125l-2.375 2.375l-1.125 -1.5625l2.75 -1.703125l0 -4.609375l-2.375 0l0 -1.40625l3.8593788 0l0 5.9375q1.703125 1.640625 4.453125 1.640625l8.609375 0zm-7.203125 -7.28125l-2.59375 0l0 1.40625l2.59375 0l0 -1.40625zm1.484375 2.59375l0 1.125l5.28125 0l0 1.40625l-5.28125 0l0 1.5625l-1.484375 0l0 -1.5625l-5.046875 0l0 -1.40625l5.046875 0l0 -1.125l-1.921875 0l-1.9375 0l0 -6.296875l3.859375 0l0 -1.1875l-4.890625 0l0 -1.421875l4.890625 0l0 -1.625l1.421875 0q0.59375 0.078125 0.0625 0.4375l0 1.1875l4.90625 0l0 1.421875l-4.90625 0l0 1.1875l4.015625 0l0 6.296875l-4.015625 0zm2.75 -5.109375l-2.75 0l0 1.328125l2.75 0l0 -1.328125zm0 2.515625l-2.75 0l0 1.40625l2.75 0l0 -1.40625zm-4.234375 -2.515625l-2.59375 0l0 1.328125l2.59375 0l0 -1.328125zm-8.078129 -4.53125q1.546875 0.96875 2.5937538 2.515625l-1.2656288 1.265625q-1.109375 -1.484375 -2.453125 -2.515625l1.125 -1.265625zm27.750004 6.609375q1.109375 1.484375 1.859375 4.078125l-1.40625 0.734375q-0.453125 -2.296875 -1.640625 -4.078125l1.1875 -0.734375zm-2.8125 8.234375q0 1.109375 -0.96875 1.109375l-1.703125 0l-0.296875 -1.1875l1.484375 0q0.21875 0 0.21875 -0.296875l0 -3.40625q-2.234375 2.4375 -6.015625 4.234375l-0.515625 -1.34375q3.859375 -1.703125 6.015625 -4.3125l-4.984375 0.890625q-0.296875 0.59375 -0.515625 0.078125l-0.375 -1.5625l1.484375 -0.0625l0 -7.796875l2.015625 0l0.4375 -2.0l1.5625 0.140625q0.515625 0.078125 -0.078125 0.453125l-0.515625 1.40625l2.75 0l0 6.3125l0.953125 0.734375q-0.359375 0.59375 -0.953125 1.40625l0 5.203125zm6.96875 -0.140625q0 1.1875 -1.1875 1.1875l-1.859375 0l-0.296875 -1.421875l1.5625 0q0.296875 0 0.296875 -0.296875l0 -9.28125l-4.75 0l0 -1.40625l4.75 0l0 -3.78125l1.40625 0q0.59375 0.078125 0.078125 0.4375l0 3.34375l2.375 0l0 1.40625l-2.375 0l0 9.8125zm-8.234375 -6.25l0 -1.328125l-3.640625 0l0 1.703125l3.640625 -0.375zm-3.640625 -3.703125l0 1.1875l3.640625 0l0 -1.1875l-3.640625 0zm3.640625 -1.1875l0 -1.1875l-3.640625 0l0 1.1875l3.640625 0zm24.421875 3.40625q2.671875 2.828125 4.0 5.203125l-1.625 1.109375q-1.5625 -2.75 -3.796875 -5.125l1.421875 -1.1875zm-3.5625 -3.1875l6.828125 0l0 1.640625l-6.828125 0l0 10.3125l-1.71875 0l0 -10.3125l-6.671875 0l0 -1.640625l6.671875 0l0 -4.15625l1.5625 0q0.8125 0.15625 0.15625 0.59375l0 3.5625zm-3.9375 4.078125q0.4375 0.375 -0.296875 0.53125q-1.109375 2.4375 -2.828125 5.109375l-1.625 -0.890625q1.859375 -2.671875 3.109375 -5.640625l1.640625 0.890625zm8.984375 -4.890625q-1.34375 -1.40625 -2.453125 -2.296875l0.890625 -0.890625q1.265625 0.953125 2.453125 2.21875l-0.890625 0.96875zm2.078125 -1.046875q-1.34375 -1.484375 -2.453125 -2.4375l0.96875 -0.828125q1.25 0.96875 2.4375 2.375l-0.953125 0.890625zm8.90625 -1.1875q-0.296875 0.890625 -0.75 1.71875l4.96875 0l0.828125 -0.296875l0.953125 0.953125q0.296875 0.375 -0.296875 0.59375q-0.59375 2.96875 -1.78125 5.421875l1.78125 1.1875l-1.109375 1.640625l-1.625 -1.1875q-2.15625 3.109375 -6.171875 5.125l-1.703125 -1.265625q4.453125 -1.859375 6.390625 -4.90625q-1.859375 -1.1875 -3.640625 -2.15625l0.890625 -1.328125q2.296875 1.03125 3.78125 1.921875q1.109375 -2.296875 1.34375 -4.078125l-5.421875 0q-1.40625 2.53125 -3.484375 4.609375l-1.421875 -0.96875q3.796875 -3.9375 4.984375 -8.3125l1.78125 0.734375q0.59375 0.296875 -0.296875 0.59375zm22.703125 5.203125q-3.9375 8.15625 -13.203125 8.609375q-0.375 0.96875 -0.75 0.15625l-0.59375 -1.9375q9.65625 -0.21875 12.984375 -7.9375l1.5625 1.109375zm-10.46875 0q-2.0 -1.859375 -3.78125 -3.046875l1.265625 -1.5625q1.5625 0.96875 3.9375 3.203125l-1.421875 1.40625zm19.964844 2.8125l0 -1.40625l6.828125 0l0.234375 -0.21875l1.109375 0.8125q0.375 0.375 -0.15625 0.296875q-1.109375 2.671875 -2.671875 4.453125q1.046875 0.8125 4.3125 1.78125l-0.453125 1.5625q-3.265625 -1.109375 -4.890625 -2.296875q-2.078125 1.625 -4.3125 2.453125l-0.734375 -1.421875q2.21875 -0.59375 4.0 -2.0q-1.109375 -1.40625 -2.078125 -4.015625l-1.1875 0zm0.96875 -8.90625l5.5 0l0 4.15625q0 0.59375 0.515625 0.59375l0.515625 0q0.59375 0 0.59375 -1.40625l1.484375 0.375q-0.078125 2.453125 -1.703125 2.453125l-1.5625 0q-1.328125 0 -1.328125 -1.265625l0 -3.484375l-2.53125 0l0 1.78125q0 2.734375 -2.453125 4.078125l-0.8125 -1.1875q1.78125 -0.671875 1.78125 -3.046875l0 -3.046875zm-2.078125 16.109375l-1.265625 0l0 -0.4375l-3.03125 0l0 0.734375l-1.265625 0l0 -6.015625l5.5625 0l0 5.71875zm0.671875 -13.65625l0 1.40625l-6.984375 0l0 -1.40625l6.984375 0zm-1.046875 -2.671875l0 1.40625l-4.890625 0l0 -1.40625l4.890625 0zm0 5.265625l0 1.421875l-4.890625 0l0 -1.421875l4.890625 0zm0 2.609375l0 1.40625l-4.890625 0l0 -1.40625l4.890625 0zm-0.890625 3.921875l-3.03125 0l0 2.90625l3.03125 0l0 -2.90625zm6.6875 0.453125q1.265625 -1.484375 1.921875 -3.125l-3.625 0q0.59375 1.78125 1.703125 3.125zm7.421875 3.046875q3.640625 -2.234375 3.5625 -7.125l1.703125 0.296875q0.21875 0.21875 -0.140625 0.4375l-0.375 2.671875q1.109375 1.34375 2.890625 2.296875l0 -7.1875l-5.046875 0l0 -1.421875l11.203125 0l0 1.421875l-4.671875 0l0 2.734375l5.203125 0l0 1.421875l-5.203125 0l0 3.5625q1.109375 0.296875 2.234375 0.296875l4.890625 0l-0.296875 1.40625l-4.59375 0q-4.3125 0 -7.0625 -3.125q-1.109375 2.453125 -3.109375 3.71875l-1.1875 -1.40625zm9.046875 -13.59375l6.828125 0l0 3.9375l-1.484375 0l0 -2.515625l-12.3125 0l0 2.671875l-1.484375 0l0 -4.09375l6.75 0l0 -2.140625l1.640625 0q0.734375 0.140625 0.0625 0.59375l0 1.546875zm23.90625 13.0l-6.453125 0q-1.859375 0 -1.859375 -1.9375l0 -4.0l-5.9375 0l0 -1.640625l5.9375 0l0 -3.40625l-4.53125 0l0 -1.640625l11.796875 0l0 1.640625l-5.5625 0l0 3.40625l7.421875 0l0 1.640625l-7.421875 0l0 3.40625q0 0.890625 0.8125 0.890625l5.875 0l-0.078125 1.640625zm2.7421875 -5.875l0 -1.625l16.546875 0l0 1.625l-16.546875 0zm27.757812 1.71875q-3.9375 -2.015625 -6.453125 -2.671875l0 7.71875l-1.703125 0l0 -14.84375l1.484375 0q0.890625 0.0625 0.21875 0.59375l0 4.671875q3.640625 1.03125 7.34375 2.8125l-0.890625 1.71875zm-0.140625 -6.53125q-1.265625 -1.5625 -2.53125 -2.53125l0.96875 -0.734375q1.265625 0.953125 2.515625 2.515625l-0.953125 0.75zm1.78125 -1.421875q-0.96875 -1.25 -2.453125 -2.4375l0.96875 -0.75q1.25 0.890625 2.4375 2.453125l-0.953125 0.734375z" fill-rule="nonzero"/><path fill="#000000" fill-opacity="0.0" d="m30.96063 232.96326l211.40157 0l0 42.015747l-211.40157 0z" fill-rule="evenodd"/><path fill="#ffffff" d="m55.99188 246.602q2.671875 2.671875 2.671875 6.453125q0 3.7812347 -2.671875 6.4531097q-2.671875 2.671875 -6.453125 2.671875q-3.78125 0 -6.453125 -2.671875q-2.671875 -2.671875 -2.671875 -6.4531097q0 -3.78125 2.671875 -6.453125q2.671875 -2.671875 6.453125 -2.671875q3.78125 0 6.453125 2.671875zm-0.515625 12.39061q2.453125 -2.453125 2.453125 -5.9374847q0 -3.484375 -2.453125 -5.9375q-2.453125 -2.453125 -5.9375 -2.453125q-3.484375 0 -5.9375 2.453125q-2.453125 2.453125 -2.453125 5.9375q0 3.4843597 2.453125 5.9374847q2.453125 2.453125 5.9375 2.453125q3.484375 0 5.9375 -2.453125zm-3.5625 -2.375l0 2.671875l-1.703125 0l0 -2.671875l-5.796875 0l0 -1.6406097l5.5625 -8.375l1.9375 0l0 8.375l1.625 0l0 1.6406097l-1.625 0zm-1.703125 -1.6406097l0 -6.0l-4.015625 6.0l4.015625 0zm26.859379 4.6874847l-0.296875 1.40625l-8.75 0q-2.96875 0 -4.750004 -2.078125l-2.375 2.375l-1.125 -1.5625l2.75 -1.703125l0 -4.6093597l-2.375 0l0 -1.40625l3.8593788 0l0 5.9374847q1.703125 1.640625 4.453125 1.640625l8.609375 0zm-7.203125 -7.2812347l-2.59375 0l0 1.40625l2.59375 0l0 -1.40625zm1.484375 2.59375l0 1.1249847l5.28125 0l0 1.40625l-5.28125 0l0 1.5625l-1.484375 0l0 -1.5625l-5.046875 0l0 -1.40625l5.046875 0l0 -1.1249847l-1.921875 0l-1.9375 0l0 -6.296875l3.859375 0l0 -1.1875l-4.890625 0l0 -1.421875l4.890625 0l0 -1.625l1.421875 0q0.59375 0.078125 0.0625 0.4375l0 1.1875l4.90625 0l0 1.421875l-4.90625 0l0 1.1875l4.015625 0l0 6.296875l-4.015625 0zm2.75 -5.109375l-2.75 0l0 1.328125l2.75 0l0 -1.328125zm0 2.515625l-2.75 0l0 1.40625l2.75 0l0 -1.40625zm-4.234375 -2.515625l-2.59375 0l0 1.328125l2.59375 0l0 -1.328125zm-8.078129 -4.53125q1.546875 0.96875 2.5937538 2.515625l-1.2656288 1.265625q-1.109375 -1.484375 -2.453125 -2.515625l1.125 -1.265625zm27.750004 6.609375q1.109375 1.484375 1.859375 4.0781097l-1.40625 0.734375q-0.453125 -2.2968597 -1.640625 -4.0781097l1.1875 -0.734375zm-2.8125 8.23436q0 1.109375 -0.96875 1.109375l-1.703125 0l-0.296875 -1.1875l1.484375 0q0.21875 0 0.21875 -0.296875l0 -3.40625q-2.234375 2.4375 -6.015625 4.234375l-0.515625 -1.34375q3.859375 -1.703125 6.015625 -4.3124847l-4.984375 0.890625q-0.296875 0.59373474 -0.515625 0.078125l-0.375 -1.5625l1.484375 -0.0625l0 -7.796875l2.015625 0l0.4375 -2.0l1.5625 0.140625q0.515625 0.078125 -0.078125 0.453125l-0.515625 1.40625l2.75 0l0 6.3125l0.953125 0.734375q-0.359375 0.59375 -0.953125 1.40625l0 5.2031097zm6.96875 -0.140625q0 1.1875 -1.1875 1.1875l-1.859375 0l-0.296875 -1.421875l1.5625 0q0.296875 0 0.296875 -0.296875l0 -9.281235l-4.75 0l0 -1.40625l4.75 0l0 -3.78125l1.40625 0q0.59375 0.078125 0.078125 0.4375l0 3.34375l2.375 0l0 1.40625l-2.375 0l0 9.812485zm-8.234375 -6.2499847l0 -1.328125l-3.640625 0l0 1.703125l3.640625 -0.375zm-3.640625 -3.703125l0 1.1875l3.640625 0l0 -1.1875l-3.640625 0zm3.640625 -1.1875l0 -1.1875l-3.640625 0l0 1.1875l3.640625 0zm20.78125 12.249985q-2.671875 0 -4.96875 -1.9375q-1.046875 1.125 -2.375 2.078125l-0.96875 -1.5625q1.40625 -0.65625 2.515625 -1.484375l0 -4.8124847l-2.375 0l0 -1.421875l3.859375 0l0 6.0156097q1.859375 1.703125 4.390625 1.703125l8.75 0l-0.296875 1.421875l-8.53125 0zm-6.15625 -15.812485q1.328125 0.96875 2.375 2.296875l-1.265625 1.265625q-0.8125 -1.265625 -2.234375 -2.453125l1.125 -1.109375zm9.34375 8.390625q2.15625 2.0 5.5 3.2656097l-0.75 1.484375q-3.046875 -1.265625 -4.828125 -3.1249847l0 3.8593597l-1.484375 0l0 -3.6406097q-1.40625 1.6406097 -4.453125 3.1249847l-0.8125 -1.484375q3.265625 -1.3437347 5.203125 -3.4843597l-4.15625 0l0 -4.75l4.21875 0l0 -1.265625l-4.75 0l0 -1.40625l4.75 0l0 -1.9375l1.421875 0q0.59375 0.078125 0.0625 0.453125l0 1.484375l5.046875 0l0 1.40625l-5.046875 0l0 1.265625l4.234375 0l0 4.75l-4.15625 0zm-0.078125 -3.34375l0 1.921875l2.75 0l0 -1.921875l-2.75 0zm-4.21875 0l0 1.921875l2.734375 0l0 -1.921875l-2.734375 0zm28.203125 11.20311q-3.5625 -0.4375 -6.3125 -1.859375q-2.59375 1.5625 -6.234375 1.9375l-0.59375 -1.5625q3.34375 -0.296875 5.5625 -1.40625q-1.1875 -1.1875 -2.15625 -2.53125l-2.078125 0l0 -1.1874847l8.6875 0l0.21875 -0.21875l1.125 0.890625q0.296875 0.45310974 -0.296875 0.37498474q-1.265625 1.484375 -3.046875 2.75q2.59375 0.890625 5.484375 1.109375l-0.359375 1.703125zm-6.765625 -15.14061l6.6875 0l0 1.40625l-13.140625 0l0 6.53125q0 4.1562347 -1.859375 6.9843597l-1.328125 -1.109375q1.703125 -2.3125 1.703125 -6.1718597l0 -7.640625l6.234375 0l0 -1.921875l1.640625 0q0.59375 0.0625 0.0625 0.4375l0 1.484375zm0.453125 11.499985q0.890625 -0.59375 2.078125 -1.78125l-3.859375 0q0.734375 0.890625 1.78125 1.78125zm2.671875 -3.9999847l-1.484375 0l0 -0.453125l-3.1875 0l0 0.53125l-1.484375 0l0 -2.96875l-2.96875 0l0 -1.1875l2.96875 0l0 -1.421875l1.40625 0q0.59375 0.078125 0.078125 0.453125l0 0.96875l3.1875 0l0 -1.5625l1.40625 0q0.59375 0.078125 0.078125 0.4375l0 1.125l3.5625 0l0 1.1875l-3.5625 0l0 2.890625zm-1.484375 -2.890625l-3.1875 0l0 1.25l3.1875 0l0 -1.25zm15.28125 3.03125l0 -1.40625l6.828125 0l0.234375 -0.21875l1.109375 0.8125q0.375 0.375 -0.15625 0.296875q-1.109375 2.6718597 -2.671875 4.4531097q1.046875 0.8125 4.3125 1.78125l-0.453125 1.5625q-3.265625 -1.109375 -4.890625 -2.296875q-2.078125 1.625 -4.3125 2.453125l-0.734375 -1.421875q2.21875 -0.59375 4.0 -2.0q-1.109375 -1.40625 -2.078125 -4.0156097l-1.1875 0zm0.96875 -8.90625l5.5 0l0 4.15625q0 0.59375 0.515625 0.59375l0.515625 0q0.59375 0 0.59375 -1.40625l1.484375 0.375q-0.078125 2.453125 -1.703125 2.453125l-1.5625 0q-1.328125 0 -1.328125 -1.265625l0 -3.484375l-2.53125 0l0 1.78125q0 2.734375 -2.453125 4.078125l-0.8125 -1.1875q1.78125 -0.671875 1.78125 -3.046875l0 -3.046875zm-2.078125 16.10936l-1.265625 0l0 -0.4375l-3.03125 0l0 0.734375l-1.265625 0l0 -6.0156097l5.5625 0l0 5.7187347zm0.671875 -13.656235l0 1.40625l-6.984375 0l0 -1.40625l6.984375 0zm-1.046875 -2.671875l0 1.40625l-4.890625 0l0 -1.40625l4.890625 0zm0 5.265625l0 1.421875l-4.890625 0l0 -1.421875l4.890625 0zm0 2.609375l0 1.40625l-4.890625 0l0 -1.40625l4.890625 0zm-0.890625 3.9218597l-3.03125 0l0 2.90625l3.03125 0l0 -2.90625zm6.6875 0.453125q1.265625 -1.4843597 1.921875 -3.1249847l-3.625 0q0.59375 1.78125 1.703125 3.1249847zm7.421875 3.046875q3.640625 -2.234375 3.5625 -7.1249847l1.703125 0.296875q0.21875 0.21875 -0.140625 0.4375l-0.375 2.6718597q1.109375 1.34375 2.890625 2.296875l0 -7.1874847l-5.046875 0l0 -1.421875l11.203125 0l0 1.421875l-4.671875 0l0 2.734375l5.203125 0l0 1.421875l-5.203125 0l0 3.5624847q1.109375 0.296875 2.234375 0.296875l4.890625 0l-0.296875 1.40625l-4.59375 0q-4.3125 0 -7.0625 -3.125q-1.109375 2.453125 -3.109375 3.71875l-1.1875 -1.40625zm9.046875 -13.593735l6.828125 0l0 3.9375l-1.484375 0l0 -2.515625l-12.3125 0l0 2.671875l-1.484375 0l0 -4.09375l6.75 0l0 -2.140625l1.640625 0q0.734375 0.140625 0.0625 0.59375l0 1.546875zm23.90625 12.999985l-6.453125 0q-1.859375 0 -1.859375 -1.9375l0 -3.9999847l-5.9375 0l0 -1.640625l5.9375 0l0 -3.40625l-4.53125 0l0 -1.640625l11.796875 0l0 1.640625l-5.5625 0l0 3.40625l7.421875 0l0 1.640625l-7.421875 0l0 3.4062347q0 0.890625 0.8125 0.890625l5.875 0l-0.078125 1.640625zm2.7421875 -5.8749847l0 -1.625l16.546875 0l0 1.625l-16.546875 0zm27.757812 1.71875q-3.9375 -2.015625 -6.453125 -2.671875l0 7.7187347l-1.703125 0l0 -14.843735l1.484375 0q0.890625 0.0625 0.21875 0.59375l0 4.671875q3.640625 1.03125 7.34375 2.8125l-0.890625 1.71875zm-0.140625 -6.53125q-1.265625 -1.5625 -2.53125 -2.53125l0.96875 -0.734375q1.265625 0.953125 2.515625 2.515625l-0.953125 0.75zm1.78125 -1.421875q-0.96875 -1.25 -2.453125 -2.4375l0.96875 -0.75q1.25 0.890625 2.4375 2.453125l-0.953125 0.734375z" fill-rule="nonzero"/><path fill="#000000" fill-opacity="0.0" d="m345.22833 96.96326l134.77167 0l0 42.015747l-134.77167 0z" fill-rule="evenodd"/><path fill="#ffffff" d="m359.57208 117.49263l0.59375 -6.671875l7.34375 0l0 1.625l-5.9375 0l-0.296875 3.421875q1.265625 -0.890625 2.671875 -0.890625q1.640625 0 2.75 1.109375q1.109375 1.109375 1.109375 3.046875q0 2.078125 -1.03125 3.109375q-1.1875 1.1875 -3.125 1.1875q-2.078125 0 -3.1875 -1.109375q-0.8125 -0.8125 -0.96875 -1.921875l2.078125 0q0.15625 0.65625 0.53125 1.03125q0.4375 0.453125 1.546875 0.453125q1.1875 0 1.859375 -0.671875q0.59375 -0.59375 0.59375 -2.078125q0 -1.34375 -0.671875 -2.0q-0.734375 -0.75 -1.84375 -0.75q-1.125 0 -2.15625 1.109375l-1.859375 0zm10.6875 -6.890625q2.671875 2.671875 2.671875 6.453125q0 3.78125 -2.671875 6.453125q-2.671875 2.671875 -6.453125 2.671875q-3.78125 0 -6.453125 -2.671875q-2.671875 -2.671875 -2.671875 -6.453125q0 -3.78125 2.671875 -6.453125q2.671875 -2.671875 6.453125 -2.671875q3.78125 0 6.453125 2.671875zm-0.515625 12.390625q2.453125 -2.453125 2.453125 -5.9375q0 -3.484375 -2.453125 -5.9375q-2.453125 -2.453125 -5.9375 -2.453125q-3.484375 0 -5.9375 2.453125q-2.453125 2.453125 -2.453125 5.9375q0 3.484375 2.453125 5.9375q2.453125 2.453125 5.9375 2.453125q3.484375 0 5.9375 -2.453125zm12.015625 -4.90625l0 -1.40625l6.828125 0l0.234375 -0.21875l1.109375 0.8125q0.375 0.375 -0.15625 0.296875q-1.109375 2.671875 -2.671875 4.453125q1.046875 0.8125 4.3125 1.78125l-0.453125 1.5625q-3.265625 -1.109375 -4.890625 -2.296875q-2.078125 1.625 -4.3125 2.453125l-0.734375 -1.421875q2.21875 -0.59375 4.0 -2.0q-1.109375 -1.40625 -2.078125 -4.015625l-1.1875 0zm0.96875 -8.90625l5.5 0l0 4.15625q0 0.59375 0.515625 0.59375l0.515625 0q0.59375 0 0.59375 -1.40625l1.484375 0.375q-0.078125 2.453125 -1.703125 2.453125l-1.5625 0q-1.328125 0 -1.328125 -1.265625l0 -3.484375l-2.53125 0l0 1.78125q0 2.734375 -2.453125 4.078125l-0.8125 -1.1875q1.78125 -0.671875 1.78125 -3.046875l0 -3.046875zm-2.078125 16.109375l-1.265625 0l0 -0.4375l-3.03125 0l0 0.734375l-1.265625 0l0 -6.015625l5.5625 0l0 5.71875zm0.671875 -13.65625l0 1.40625l-6.984375 0l0 -1.40625l6.984375 0zm-1.046875 -2.671875l0 1.40625l-4.890625 0l0 -1.40625l4.890625 0zm0 5.265625l0 1.421875l-4.890625 0l0 -1.421875l4.890625 0zm0 2.609375l0 1.40625l-4.890625 0l0 -1.40625l4.890625 0zm-0.890625 3.921875l-3.03125 0l0 2.90625l3.03125 0l0 -2.90625zm6.6875 0.453125q1.265625 -1.484375 1.921875 -3.125l-3.625 0q0.59375 1.78125 1.703125 3.125zm7.421875 3.046875q3.640625 -2.234375 3.5625 -7.125l1.703125 0.296875q0.21875 0.21875 -0.140625 0.4375l-0.375 2.671875q1.109375 1.34375 2.890625 2.296875l0 -7.1875l-5.046875 0l0 -1.421875l11.203125 0l0 1.421875l-4.671875 0l0 2.734375l5.203125 0l0 1.421875l-5.203125 0l0 3.5625q1.109375 0.296875 2.234375 0.296875l4.890625 0l-0.296875 1.40625l-4.59375 0q-4.3125 0 -7.0625 -3.125q-1.109375 2.453125 -3.109375 3.71875l-1.1875 -1.40625zm9.046875 -13.59375l6.828125 0l0 3.9375l-1.484375 0l0 -2.515625l-12.3125 0l0 2.671875l-1.484375 0l0 -4.09375l6.75 0l0 -2.140625l1.640625 0q0.734375 0.140625 0.0625 0.59375l0 1.546875zm17.890625 6.234375q-0.671875 0.59375 -1.40625 1.1875q0.734375 0.53125 1.484375 1.1875l-1.046875 1.421875q-1.109375 -1.265625 -2.515625 -2.53125l0 7.421875l-1.484375 0l0 -7.421875q-1.109375 1.109375 -2.453125 2.15625l-0.734375 -1.5625q3.265625 -2.453125 5.265625 -5.5625l-4.671875 0l0 -1.40625l2.59375 0l0 -3.5l1.40625 0q0.59375 0.078125 0.078125 0.453125l0 3.046875l1.40625 0l0.453125 -0.453125l0.953125 0.96875q0.296875 0.515625 -0.296875 0.515625q-0.953125 2.0 -2.59375 3.859375l1.109375 0.671875q0.890625 -0.890625 1.484375 -1.703125l1.34375 1.03125q0.078125 0.375 -0.375 0.21875zm6.609375 -4.890625l-2.96875 0l0 4.375q0 5.859375 -5.125 8.84375l-0.96875 -1.421875q4.609375 -2.296875 4.609375 -7.203125l0 -4.59375l-2.296875 0l0 -1.40625l8.234375 0l0 9.203125q0 5.421875 -2.671875 5.421875l-2.15625 0l-0.21875 -1.421875l2.0 0q1.5625 0 1.5625 -4.0l0 -7.796875zm4.453125 12.09375q1.703125 -1.40625 2.96875 -3.484375l1.265625 0.8125q0.515625 0.375 -0.234375 0.453125q-1.1875 1.921875 -2.734375 3.484375l-1.265625 -1.265625zm14.390625 -4.75l-2.59375 0q-0.140625 3.9375 -3.703125 6.3125l-1.046875 -1.265625q3.265625 -2.0 3.265625 -5.34375l0 -9.640625l5.5625 0l0 14.84375q0 1.1875 -1.1875 1.1875l-1.546875 0l-0.15625 -1.640625l1.109375 0q0.296875 0 0.296875 -0.296875l0 -4.15625zm-7.046875 4.3125q-0.890625 -1.046875 -2.078125 -2.015625l1.109375 -1.03125q1.34375 0.96875 2.15625 1.859375l-1.1875 1.1875zm7.046875 -8.546875l-2.59375 0l0 2.828125l2.59375 0l0 -2.828125zm0 -4.296875l-2.59375 0l0 2.890625l2.59375 0l0 -2.890625zm-8.015625 6.671875l-2.96875 0l0 1.5625l2.96875 0l0 -1.5625zm0 -2.59375l-2.96875 0l0 1.40625l2.96875 0l0 -1.40625zm0 -2.515625l-2.96875 0l0 1.328125l2.96875 0l0 -1.328125zm3.125 -1.1875l0 1.1875l-1.859375 0l0 6.671875l2.078125 0l0 1.1875l-9.9375 0l0 -1.1875l2.375 0l0 -6.671875l-1.9375 0l0 -1.1875l1.9375 0l0 -2.53125l1.1875 0q0.734375 0.078125 0.0625 0.453125l0 2.078125l2.96875 0l0 -2.53125l1.1875 0q0.75 0.078125 0.078125 0.453125l0 2.078125l1.859375 0zm9.421875 5.859375q3.1875 -2.890625 4.015625 -7.9375l1.625 0.4375q0.515625 0.15625 -0.21875 0.59375q-0.15625 1.109375 -1.046875 3.265625l0.453125 0.15625q0.296875 0.21875 -0.21875 0.515625l0 10.984375l-1.484375 0l0 -9.28125q-0.890625 1.40625 -2.15625 2.59375l-0.96875 -1.328125zm16.484375 3.640625l-0.234375 1.703125q-0.296875 2.15625 -2.140625 2.15625l-4.984375 0q-1.328125 0 -1.328125 -1.265625l0 -13.953125l1.40625 0q0.75 0.078125 0.078125 0.4375l0 5.5q2.8125 -1.109375 5.1875 -2.890625l1.125 1.328125q0.515625 0.453125 -0.375 0.453125q-3.1875 1.625 -5.9375 2.734375l0 5.421875q0 0.59375 0.515625 0.59375l3.9375 0q0.8125 0 0.890625 -0.734375l0.140625 -1.78125l1.71875 0.296875z" fill-rule="nonzero"/><path fill="#000000" fill-opacity="0.0" d="m345.22833 147.95538l211.40161 0l0 42.015747l-211.40161 0z" fill-rule="evenodd"/><path fill="#ffffff" d="m370.25958 161.59413q2.671875 2.671875 2.671875 6.453125q0 3.78125 -2.671875 6.453125q-2.671875 2.671875 -6.453125 2.671875q-3.78125 0 -6.453125 -2.671875q-2.671875 -2.671875 -2.671875 -6.453125q0 -3.78125 2.671875 -6.453125q2.671875 -2.671875 6.453125 -2.671875q3.78125 0 6.453125 2.671875zm-0.515625 12.390625q2.453125 -2.453125 2.453125 -5.9375q0 -3.484375 -2.453125 -5.9375q-2.453125 -2.453125 -5.9375 -2.453125q-3.484375 0 -5.9375 2.453125q-2.453125 2.453125 -2.453125 5.9375q0 3.484375 2.453125 5.9375q2.453125 2.453125 5.9375 2.453125q3.484375 0 5.9375 -2.453125zm-8.53125 -6.09375q1.109375 -1.25 2.8125 -1.25q1.640625 0 2.671875 1.03125q1.109375 1.109375 1.109375 2.890625q0 1.78125 -1.109375 2.90625q-1.03125 1.03125 -2.8125 1.03125q-1.859375 0 -2.90625 -1.03125q-1.484375 -1.484375 -1.484375 -5.421875q0 -3.9375 1.5625 -5.5q1.109375 -1.109375 2.890625 -1.109375q1.5625 0 2.375 0.8125q0.96875 0.96875 1.265625 2.453125l-1.859375 0q-0.0625 -0.8125 -0.515625 -1.265625q-0.515625 -0.515625 -1.265625 -0.515625q-0.953125 0 -1.625 0.671875q-1.109375 1.109375 -1.109375 3.34375l0 0.953125zm2.671875 0.078125q-1.046875 0 -1.78125 0.75q-0.671875 0.65625 -0.671875 1.84375q0 1.125 0.8125 1.9375q0.59375 0.59375 1.5625 0.59375q0.96875 0 1.5625 -0.59375q0.65625 -0.671875 0.65625 -1.9375q0 -1.25 -0.734375 -2.0q-0.59375 -0.59375 -1.40625 -0.59375zm17.875 1.109375l0 -1.40625l6.828125 0l0.234375 -0.21875l1.109375 0.8125q0.375 0.375 -0.15625 0.296875q-1.109375 2.671875 -2.671875 4.453125q1.046875 0.8125 4.3125 1.78125l-0.453125 1.5625q-3.265625 -1.109375 -4.890625 -2.296875q-2.078125 1.625 -4.3125 2.453125l-0.734375 -1.421875q2.21875 -0.59375 4.0 -2.0q-1.109375 -1.40625 -2.078125 -4.015625l-1.1875 0zm0.96875 -8.90625l5.5 0l0 4.15625q0 0.59375 0.515625 0.59375l0.515625 0q0.59375 0 0.59375 -1.40625l1.484375 0.375q-0.078125 2.453125 -1.703125 2.453125l-1.5625 0q-1.328125 0 -1.328125 -1.265625l0 -3.484375l-2.53125 0l0 1.78125q0 2.734375 -2.453125 4.078125l-0.8125 -1.1875q1.78125 -0.671875 1.78125 -3.046875l0 -3.046875zm-2.078125 16.109375l-1.265625 0l0 -0.4375l-3.03125 0l0 0.734375l-1.265625 0l0 -6.015625l5.5625 0l0 5.71875zm0.671875 -13.65625l0 1.40625l-6.984375 0l0 -1.40625l6.984375 0zm-1.046875 -2.671875l0 1.40625l-4.890625 0l0 -1.40625l4.890625 0zm0 5.265625l0 1.421875l-4.890625 0l0 -1.421875l4.890625 0zm0 2.609375l0 1.40625l-4.890625 0l0 -1.40625l4.890625 0zm-0.890625 3.921875l-3.03125 0l0 2.90625l3.03125 0l0 -2.90625zm6.6875 0.453125q1.265625 -1.484375 1.921875 -3.125l-3.625 0q0.59375 1.78125 1.703125 3.125zm7.421875 3.046875q3.640625 -2.234375 3.5625 -7.125l1.703125 0.296875q0.21875 0.21875 -0.140625 0.4375l-0.375 2.671875q1.109375 1.34375 2.890625 2.296875l0 -7.1875l-5.046875 0l0 -1.421875l11.203125 0l0 1.421875l-4.671875 0l0 2.734375l5.203125 0l0 1.421875l-5.203125 0l0 3.5625q1.109375 0.296875 2.234375 0.296875l4.890625 0l-0.296875 1.40625l-4.59375 0q-4.3125 0 -7.0625 -3.125q-1.109375 2.453125 -3.109375 3.71875l-1.1875 -1.40625zm9.046875 -13.59375l6.828125 0l0 3.9375l-1.484375 0l0 -2.515625l-12.3125 0l0 2.671875l-1.484375 0l0 -4.09375l6.75 0l0 -2.140625l1.640625 0q0.734375 0.140625 0.0625 0.59375l0 1.546875zm15.515625 -0.21875q5.203125 -0.21875 9.5 -1.40625l1.046875 1.484375q0.296875 0.4375 -0.59375 0.21875q-2.015625 0.453125 -3.5625 0.671875l0 6.078125l4.8125 0l0 1.421875l-4.8125 0l0 5.046875q0 1.1875 -1.1875 1.1875l-1.640625 0l-0.375 -1.640625l1.421875 0q0.296875 0 0.296875 -0.296875l0 -4.296875l-4.90625 0l0 -1.421875l4.90625 0l0 -5.9375q-2.671875 0.296875 -4.609375 0.375l-0.296875 -1.484375zm2.078125 2.234375q0.8125 1.03125 1.40625 3.1875l-1.625 0.671875q-0.671875 -2.234375 -1.265625 -3.203125l1.484375 -0.65625zm7.875 0.296875q-0.234375 1.484375 -1.046875 3.625l-1.5625 -0.4375q0.671875 -2.078125 1.046875 -4.234375l1.78125 0.59375q0.4375 0.296875 -0.21875 0.453125zm-12.03125 -0.890625l-1.921875 0l0 6.75l1.921875 0l0 -6.75zm1.484375 -1.421875l0 10.328125l-1.484375 0l0 -0.75l-1.921875 0l0 1.9375l-1.484375 0l0 -11.515625l4.890625 0zm28.578125 10.328125q-1.265625 -1.5625 -2.75 -4.53125q0.078125 0.671875 0.078125 1.40625q0 4.078125 -1.640625 5.71875q-1.40625 1.40625 -3.921875 1.40625q-2.375 0 -3.71875 -1.328125q-1.484375 -1.484375 -1.484375 -3.859375q0 -3.34375 2.53125 -7.359375q-1.71875 0.453125 -3.34375 0.828125l-0.375 -1.78125q3.484375 -0.296875 5.5 -1.265625l0.953125 1.484375q-0.59375 0.140625 -0.890625 0.59375q-2.734375 4.078125 -2.734375 7.046875q0 2.0 1.109375 3.125q0.8125 0.8125 2.59375 0.8125q1.640625 0 2.53125 -0.890625q1.40625 -1.40625 1.40625 -5.5625q0 -3.5625 -0.515625 -5.796875l1.84375 -0.21875q0.078125 1.78125 0.75 3.640625q0.890625 2.375 3.40625 5.1875l-1.328125 1.34375zm0 -8.765625q-1.484375 -1.1875 -2.671875 -1.78125l0.734375 -0.890625q1.421875 0.75 2.671875 1.78125l-0.734375 0.890625zm1.109375 -1.484375q-1.484375 -1.1875 -2.671875 -1.78125l0.75 -0.890625q1.40625 0.75 2.671875 1.78125l-0.75 0.890625zm5.5703125 -0.296875q0.59375 0.078125 0.078125 0.453125l0 4.0l4.375 0l0 -5.9375l1.40625 0q0.59375 0.078125 0.078125 0.453125l0 5.484375l4.296875 0l0 -4.375l1.421875 0q0.59375 0.078125 0.0625 0.4375l0 6.015625l-1.484375 0l0 -0.671875l-4.296875 0l0 6.390625l4.890625 0l0 -4.53125l1.421875 0q0.59375 0.078125 0.0625 0.453125l0 6.3125l-1.484375 0l0 -0.828125l-11.5 0l0 1.046875l-1.484375 0l0 -7.0625l1.40625 0q0.59375 0.078125 0.078125 0.453125l0 4.15625l5.125 0l0 -6.390625l-4.375 0l0 0.828125l-1.484375 0l0 -6.6875l1.40625 0zm28.578125 10.765625q-3.203125 3.484375 -6.90625 3.484375q-2.671875 0 -3.9375 -1.265625q-0.96875 -0.953125 -0.96875 -3.703125l0 -9.953125l1.5625 0q0.671875 0.15625 0.15625 0.59375l0 9.359375q0 1.859375 0.65625 2.515625q0.828125 0.828125 2.453125 0.828125q2.890625 0 5.859375 -3.265625l1.125 1.40625zm15.953125 2.453125l-6.453125 0q-1.859375 0 -1.859375 -1.9375l0 -4.0l-5.9375 0l0 -1.640625l5.9375 0l0 -3.40625l-4.53125 0l0 -1.640625l11.796875 0l0 1.640625l-5.5625 0l0 3.40625l7.421875 0l0 1.640625l-7.421875 0l0 3.40625q0 0.890625 0.8125 0.890625l5.875 0l-0.078125 1.640625zm2.7421875 -5.875l0 -1.625l16.546875 0l0 1.625l-16.546875 0zm27.757812 1.71875q-3.9375 -2.015625 -6.453125 -2.671875l0 7.71875l-1.703125 0l0 -14.84375l1.484375 0q0.890625 0.0625 0.21875 0.59375l0 4.671875q3.640625 1.03125 7.34375 2.8125l-0.890625 1.71875zm-0.140625 -6.53125q-1.265625 -1.5625 -2.53125 -2.53125l0.96875 -0.734375q1.265625 0.953125 2.515625 2.515625l-0.953125 0.75zm1.78125 -1.421875q-0.96875 -1.25 -2.453125 -2.4375l0.96875 -0.75q1.25 0.890625 2.4375 2.453125l-0.953125 0.734375z" fill-rule="nonzero"/><path fill="#000000" fill-opacity="0.0" d="m82.362206 202.979l0 32.0" fill-rule="evenodd"/><path stroke="#ffffff" stroke-width="1.0" stroke-linejoin="round" stroke-linecap="butt" d="m82.362206 202.979l0 26.0" fill-rule="evenodd"/><path fill="#ffffff" stroke="#ffffff" stroke-width="1.0" stroke-linecap="butt" d="m80.71047 228.979l1.6517334 4.538101l1.6517334 -4.538101z" fill-rule="evenodd"/><path fill="#000000" fill-opacity="0.0" d="m82.362206 74.979004l0 32.0" fill-rule="evenodd"/><path stroke="#ffffff" stroke-width="1.0" stroke-linejoin="round" stroke-linecap="butt" d="m82.362206 74.979004l0 26.0" fill-rule="evenodd"/><path fill="#ffffff" stroke="#ffffff" stroke-width="1.0" stroke-linecap="butt" d="m80.71047 100.979004l1.6517334 4.5380936l1.6517334 -4.5380936z" fill-rule="evenodd"/><path fill="#000000" fill-opacity="0.0" d="m82.362206 138.979l0 32.0" fill-rule="evenodd"/><path stroke="#ffffff" stroke-width="1.0" stroke-linejoin="round" stroke-linecap="butt" d="m82.362206 138.979l0 26.0" fill-rule="evenodd"/><path fill="#ffffff" stroke="#ffffff" stroke-width="1.0" stroke-linecap="butt" d="m80.71047 164.979l1.6517334 4.538101l1.6517334 -4.538101z" fill-rule="evenodd"/><path fill="#000000" fill-opacity="0.0" d="m274.3622 125.97113c17.716522 0 26.574799 -2.0 35.433075 -4.0c8.858246 -2.0 17.716522 -4.0 35.433044 -4.0" fill-rule="evenodd"/><path stroke="#ffffff" stroke-width="1.0" stroke-linejoin="round" stroke-linecap="butt" d="m274.3622 125.97113c17.716522 0 26.574799 -2.0 35.433075 -4.0c8.858246 -2.0 17.716522 -4.0 35.433044 -4.0" fill-rule="evenodd"/><path fill="#000000" fill-opacity="0.0" d="m258.3622 189.97113c21.716522 0 32.5748 -18.0 43.433075 -36.0c10.858246 -18.0 21.716522 -36.0 43.433044 -36.0" fill-rule="evenodd"/><path stroke="#ffffff" stroke-width="1.0" stroke-linejoin="round" stroke-linecap="butt" d="m258.3622 189.97113c21.716522 0 32.5748 -18.0 43.433075 -36.0c5.4291077 -9.0 10.858246 -18.0 17.644684 -24.75c3.3931885 -3.375 7.1257324 -6.1875 11.367249 -8.15625c2.120758 -0.984375 4.368744 -1.7578125 6.7651978 -2.2851562c0.29956055 -0.06591797 0.6014404 -0.12799835 0.90567017 -0.1861496c0.15213013 -0.029083252 0.30480957 -0.057174683 0.45812988 -0.08429718l0.31176758 -0.05292511" fill-rule="evenodd"/><path fill="#ffffff" stroke="#ffffff" stroke-width="1.0" stroke-linecap="butt" d="m339.3816 120.10268l4.3896484 -2.013321l-4.65683 -1.2793198z" fill-rule="evenodd"/><path fill="#000000" fill-opacity="0.0" d="m242.3622 253.97113c25.716537 0 38.574814 -34.0 51.43309 -68.0c12.858246 -34.0 25.716522 -68.0 51.433044 -68.0" fill-rule="evenodd"/><path stroke="#ffffff" stroke-width="1.0" stroke-linejoin="round" stroke-linecap="butt" d="m242.3622 253.97113c25.716537 0 38.574814 -34.0 51.43309 -68.0c12.858246 -34.0 25.716522 -68.0 51.433044 -68.0" fill-rule="evenodd"/><path fill="#000000" fill-opacity="0.0" d="m274.3622 125.97113c17.716522 0 26.574799 10.748032 35.433075 21.496063c8.858246 10.748032 17.716522 21.496063 35.433044 21.496063" fill-rule="evenodd"/><path stroke="#ffffff" stroke-width="1.0" stroke-linejoin="round" stroke-linecap="butt" d="m274.3622 125.97113c17.716522 0 26.574799 10.748032 35.433075 21.496063c8.858246 10.748032 17.716522 21.496063 35.433044 21.496063" fill-rule="evenodd"/><path fill="#000000" fill-opacity="0.0" d="m258.3622 189.97113c21.716522 0 32.5748 -5.2519684 43.433075 -10.503937c10.858246 -5.2519684 21.716522 -10.503937 43.433044 -10.503937" fill-rule="evenodd"/><path stroke="#ffffff" stroke-width="1.0" stroke-linejoin="round" stroke-linecap="butt" d="m258.3622 189.97113c21.716522 0 32.5748 -5.2519684 43.433075 -10.503937c5.4291077 -2.6259918 10.858246 -5.2519684 17.644684 -7.221466c3.3931885 -0.9847412 7.1257324 -1.8053589 11.367249 -2.3797913c2.120758 -0.2872162 4.368744 -0.5128937 6.7651978 -0.66674805c0.29956055 -0.019241333 0.6014404 -0.037353516 0.90567017 -0.05432129l0.7519531 -0.03878784" fill-rule="evenodd"/><path fill="#ffffff" stroke="#ffffff" stroke-width="1.0" stroke-linecap="butt" d="m339.26935 170.75734l4.4974976 -1.7592926l-4.576111 -1.5432434z" fill-rule="evenodd"/><path fill="#000000" fill-opacity="0.0" d="m242.3622 253.97113c25.716537 0 38.574814 -21.251968 51.43309 -42.503937c12.858246 -21.251968 25.716522 -42.503937 51.433044 -42.503937" fill-rule="evenodd"/><path stroke="#ffffff" stroke-width="1.0" stroke-linejoin="round" stroke-linecap="butt" d="m242.3622 253.97113c25.716537 0 38.574814 -21.251968 51.43309 -42.503937c12.858246 -21.251968 25.716522 -42.503937 51.433044 -42.503937" fill-rule="evenodd"/><path fill="#000000" fill-opacity="0.0" d="m82.36286 274.979c-5.333336 2.6666565 -21.333336 18.666656 -32.0 16.0c-10.666668 -2.6666565 -25.333334 -9.3333435 -32.0 -32.0c-6.666667 -22.666672 -9.333334 -66.66667 -8.000001 -104.0c1.333334 -37.333336 9.333333 -96.0 16.0 -120.0c6.666664 -24.0 16.0 -22.666668 24.0 -24.0c8.0 -1.333334 18.666664 10.666667 24.0 15.999999c5.333336 5.333334 6.666664 13.333334 8.0 16.000002" fill-rule="evenodd"/><path stroke="#ffffff" stroke-width="1.0" stroke-linejoin="round" stroke-linecap="butt" d="m82.36286 274.979c-5.333336 2.6666565 -21.333336 18.666656 -32.0 16.0c-10.666668 -2.6666565 -25.333334 -9.3333435 -32.0 -32.0c-6.666667 -22.666672 -9.333334 -66.66667 -8.000001 -104.0c1.333334 -37.333336 9.333333 -96.0 16.0 -120.0c6.666664 -24.0 16.0 -22.666668 24.0 -24.0c8.0 -1.333334 18.666664 10.666667 24.0 15.999999c2.6666641 2.666668 4.333336 6.000002 5.5 9.000002c0.14583588 0.375 0.28385162 0.7447891 0.41503906 1.1074219l0.08408356 0.23603058" fill-rule="evenodd"/><path fill="#ffffff" stroke="#ffffff" stroke-width="1.0" stroke-linecap="butt" d="m78.8048 37.87328l3.0705414 3.7275047l0.043823242 -4.8291435z" fill-rule="evenodd"/><path fill="#000000" fill-opacity="0.0" d="m90.362206 74.979004l184.0 0l0 35.55905l-184.0 0z" fill-rule="evenodd"/><path fill="#ffffff" d="m106.12783 89.263374l-2.515625 0l0 7.515625l-1.171875 0l0 -7.515625l-2.515625 0l0 -0.984375l6.203125 0l0 0.984375zm6.7028656 7.515625l-4.828125 0l0 -8.5l4.828125 0l0 0.96875l-3.671875 0l0 2.640625l3.53125 0l0 0.96875l-3.53125 0l0 2.9375l3.671875 0l0 0.984375zm7.6716156 -2.296875q0 0.59375 -0.25 1.0625q-0.234375 0.453125 -0.6875 0.75q-0.4375 0.296875 -1.0625 0.453125q-0.625 0.140625 -1.359375 0.140625q-0.34375 0 -0.6875 -0.03125q-0.328125 -0.015625 -0.640625 -0.0625q-0.3125 -0.03125 -0.59375 -0.078125q-0.265625 -0.046875 -0.484375 -0.109375l0 -1.125q0.484375 0.1875 1.09375 0.296875q0.609375 0.09375 1.390625 0.09375q0.5625 0 0.953125 -0.078125q0.390625 -0.09375 0.640625 -0.265625q0.25 -0.171875 0.359375 -0.421875q0.125 -0.25 0.125 -0.5625q0 -0.34375 -0.203125 -0.59375q-0.1875 -0.25 -0.5 -0.4375q-0.3125 -0.1875 -0.71875 -0.34375q-0.390625 -0.171875 -0.8125 -0.328125q-0.40625 -0.171875 -0.8125 -0.375q-0.40625 -0.203125 -0.71875 -0.46875q-0.3125 -0.265625 -0.5 -0.625q-0.1875 -0.375 -0.1875 -0.875q0 -0.4375 0.171875 -0.859375q0.1875 -0.421875 0.5625 -0.75q0.390625 -0.328125 0.984375 -0.53125q0.609375 -0.203125 1.453125 -0.203125q0.203125 0 0.453125 0.03125q0.265625 0.015625 0.515625 0.046875q0.25 0.03125 0.5 0.078125q0.265625 0.046875 0.46875 0.09375l0 1.046875q-0.5 -0.140625 -1.0 -0.21875q-0.5 -0.078125 -0.96875 -0.078125q-1.0 0 -1.46875 0.34375q-0.46875 0.328125 -0.46875 0.890625q0 0.34375 0.1875 0.59375q0.203125 0.234375 0.515625 0.4375q0.3125 0.1875 0.703125 0.359375q0.40625 0.15625 0.8125 0.328125q0.421875 0.15625 0.828125 0.359375q0.40625 0.203125 0.71875 0.484375q0.3125 0.28125 0.5 0.65625q0.1875 0.359375 0.1875 0.875zm7.609108 -5.21875l-2.5156174 0l0 7.515625l-1.171875 0l0 -7.515625l-2.515625 0l0 -0.984375l6.2031174 0l0 0.984375zm7.3434906 4.46875l-2.5625 0l0 2.65625l-1.109375 0l0 -2.65625l-2.5625 0l0 -1.0l2.5625 0l0 -2.625l1.109375 0l0 2.625l2.5625 0l0 1.0zm7.0309906 0.75q0 0.59375 -0.25 1.0625q-0.234375 0.453125 -0.6875 0.75q-0.4375 0.296875 -1.0625 0.453125q-0.625 0.140625 -1.359375 0.140625q-0.34375 0 -0.6875 -0.03125q-0.328125 -0.015625 -0.640625 -0.0625q-0.3125 -0.03125 -0.59375 -0.078125q-0.265625 -0.046875 -0.484375 -0.109375l0 -1.125q0.484375 0.1875 1.09375 0.296875q0.609375 0.09375 1.390625 0.09375q0.5625 0 0.953125 -0.078125q0.390625 -0.09375 0.640625 -0.265625q0.25 -0.171875 0.359375 -0.421875q0.125 -0.25 0.125 -0.5625q0 -0.34375 -0.203125 -0.59375q-0.1875 -0.25 -0.5 -0.4375q-0.3125 -0.1875 -0.71875 -0.34375q-0.390625 -0.171875 -0.8125 -0.328125q-0.40625 -0.171875 -0.8125 -0.375q-0.40625 -0.203125 -0.71875 -0.46875q-0.3125 -0.265625 -0.5 -0.625q-0.1875 -0.375 -0.1875 -0.875q0 -0.4375 0.171875 -0.859375q0.1875 -0.421875 0.5625 -0.75q0.390625 -0.328125 0.984375 -0.53125q0.609375 -0.203125 1.453125 -0.203125q0.203125 0 0.453125 0.03125q0.265625 0.015625 0.515625 0.046875q0.25 0.03125 0.5 0.078125q0.265625 0.046875 0.46875 0.09375l0 1.046875q-0.5 -0.140625 -1.0 -0.21875q-0.5 -0.078125 -0.96875 -0.078125q-1.0 0 -1.46875 0.34375q-0.46875 0.328125 -0.46875 0.890625q0 0.34375 0.1875 0.59375q0.203125 0.234375 0.515625 0.4375q0.3125 0.1875 0.703125 0.359375q0.40625 0.15625 0.8125 0.328125q0.421875 0.15625 0.828125 0.359375q0.40625 0.203125 0.71875 0.484375q0.3125 0.28125 0.5 0.65625q0.1875 0.359375 0.1875 0.875zm6.9841156 2.296875l-4.828125 0l0 -8.5l4.828125 0l0 0.96875l-3.671875 0l0 2.640625l3.53125 0l0 0.96875l-3.53125 0l0 2.9375l3.671875 0l0 0.984375zm8.030991 0l-1.3125 0l-1.265625 -2.71875q-0.140625 -0.3125 -0.296875 -0.515625q-0.15625 -0.203125 -0.328125 -0.328125q-0.171875 -0.125 -0.375 -0.171875q-0.203125 -0.046875 -0.453125 -0.046875l-0.546875 0l0 3.78125l-1.15625 0l0 -8.5l2.28125 0q0.734375 0 1.265625 0.15625q0.53125 0.15625 0.875 0.453125q0.34375 0.296875 0.5 0.71875q0.171875 0.40625 0.171875 0.90625q0 0.390625 -0.125 0.75q-0.109375 0.359375 -0.34375 0.65625q-0.234375 0.28125 -0.578125 0.5q-0.34375 0.203125 -0.78125 0.3125q0.359375 0.109375 0.609375 0.421875q0.25 0.3125 0.515625 0.828125l1.34375 2.796875zm-1.859375 -6.171875q0 -0.6875 -0.4375 -1.015625q-0.421875 -0.34375 -1.1875 -0.34375l-1.09375 0l0 2.8125l0.9375 0q0.40625 0 0.734375 -0.09375q0.328125 -0.09375 0.5625 -0.28125q0.234375 -0.1875 0.359375 -0.453125q0.125 -0.265625 0.125 -0.625zm9.640366 -2.328125l-2.890625 8.5l-1.5625 0l-2.8125 -8.5l1.296875 0l1.84375 5.734375l0.515625 1.671875l0.53125 -1.671875l1.84375 -5.734375l1.234375 0zm3.1091156 0.96875l-1.953125 0l0 -0.96875l5.078125 0l0 0.96875l-1.953125 0l0 6.546875l1.953125 0l0 0.984375l-5.078125 0l0 -0.984375l1.953125 0l0 -6.546875zm10.718491 7.21875q-1.015625 0.421875 -2.140625 0.421875q-1.796875 0 -2.765625 -1.078125q-0.96875 -1.078125 -0.96875 -3.1875q0 -1.03125 0.265625 -1.84375q0.265625 -0.828125 0.765625 -1.40625q0.5 -0.578125 1.203125 -0.890625q0.703125 -0.3125 1.578125 -0.3125q0.578125 0 1.078125 0.109375q0.515625 0.09375 0.984375 0.296875l0 1.140625q-0.453125 -0.25 -0.953125 -0.375q-0.484375 -0.140625 -1.078125 -0.140625q-0.59375 0 -1.078125 0.234375q-0.484375 0.21875 -0.828125 0.640625q-0.34375 0.421875 -0.53125 1.046875q-0.171875 0.609375 -0.171875 1.390625q0 1.65625 0.671875 2.5q0.671875 0.828125 1.96875 0.828125q0.546875 0 1.046875 -0.125q0.5 -0.125 0.953125 -0.34375l0 1.09375zm6.9997406 0.3125l-4.828125 0l0 -8.5l4.828125 0l0 0.96875l-3.671875 0l0 2.640625l3.53125 0l0 0.96875l-3.53125 0l0 2.9375l3.671875 0l0 0.984375z" fill-rule="nonzero"/><path fill="#ffffff" d="m190.29659 89.06025q0.5625 -1.171875 1.875 -2.390625l0.5625 0.515625q-1.265625 1.15625 -1.78125 2.234375q-0.5625 1.15625 -0.5625 2.78125q0 1.375 0.5625 2.59375q0.515625 1.125 1.78125 2.5l-0.5625 0.546875q-1.265625 -1.421875 -1.875 -2.6875q-0.65625 -1.375 -0.65625 -2.953125q0 -1.765625 0.65625 -3.140625z" fill-rule="nonzero"/><path fill="#ffffff" d="m200.54659 92.529q0 0.96875 -0.203125 1.78125q-0.1875 0.796875 -0.578125 1.375q-0.390625 0.578125 -0.984375 0.890625q-0.59375 0.3125 -1.390625 0.3125q-0.671875 0 -1.234375 -0.25q-0.5625 -0.25 -0.96875 -0.78125q-0.390625 -0.546875 -0.609375 -1.375q-0.203125 -0.828125 -0.203125 -1.953125q0 -0.96875 0.1875 -1.78125q0.203125 -0.8125 0.59375 -1.375q0.390625 -0.578125 0.984375 -0.890625q0.59375 -0.328125 1.390625 -0.328125q0.671875 0 1.234375 0.265625q0.5625 0.25 0.953125 0.796875q0.40625 0.53125 0.609375 1.359375q0.21875 0.828125 0.21875 1.953125zm-1.140625 0.046875q0 -0.234375 -0.015625 -0.453125q-0.015625 -0.21875 -0.03125 -0.421875l-3.609375 2.671875q0.109375 0.34375 0.25 0.640625q0.15625 0.28125 0.359375 0.484375q0.21875 0.203125 0.484375 0.3125q0.265625 0.109375 0.609375 0.109375q0.453125 0 0.8125 -0.203125q0.359375 -0.21875 0.609375 -0.640625q0.265625 -0.421875 0.390625 -1.046875q0.140625 -0.640625 0.140625 -1.453125zm-3.890625 -0.078125q0 0.1875 0 0.390625q0 0.203125 0.03125 0.390625l3.59375 -2.65625q-0.09375 -0.328125 -0.25 -0.59375q-0.140625 -0.28125 -0.359375 -0.484375q-0.203125 -0.203125 -0.46875 -0.3125q-0.265625 -0.109375 -0.609375 -0.109375q-0.4375 0 -0.796875 0.21875q-0.359375 0.21875 -0.625 0.640625q-0.25 0.421875 -0.390625 1.0625q-0.125 0.625 -0.125 1.453125zm9.218491 2.234375q0.21875 0 0.421875 0.09375q0.203125 0.078125 0.34375 0.234375q0.140625 0.140625 0.21875 0.34375q0.09375 0.1875 0.09375 0.421875q0 0.21875 -0.09375 0.421875q-0.078125 0.1875 -0.21875 0.34375q-0.140625 0.140625 -0.34375 0.21875q-0.203125 0.078125 -0.421875 0.078125q-0.21875 0 -0.421875 -0.078125q-0.1875 -0.078125 -0.34375 -0.21875q-0.140625 -0.15625 -0.234375 -0.34375q-0.078125 -0.203125 -0.078125 -0.421875q0 -0.234375 0.078125 -0.421875q0.09375 -0.203125 0.234375 -0.34375q0.15625 -0.15625 0.34375 -0.234375q0.203125 -0.09375 0.421875 -0.09375zm10.062241 -0.671875q0 0.625 -0.28125 1.15625q-0.265625 0.515625 -0.75 0.890625q-0.46875 0.375 -1.125 0.578125q-0.640625 0.203125 -1.40625 0.203125q-0.1875 0 -0.40625 -0.015625q-0.21875 0 -0.4375 -0.015625q-0.203125 -0.015625 -0.40625 -0.03125q-0.203125 -0.015625 -0.375 -0.046875l0 -1.03125q0.359375 0.09375 0.8125 0.140625q0.453125 0.03125 0.90625 0.03125q0.515625 0 0.9375 -0.125q0.421875 -0.125 0.703125 -0.359375q0.296875 -0.234375 0.453125 -0.5625q0.15625 -0.328125 0.15625 -0.734375q0 -0.796875 -0.578125 -1.15625q-0.5625 -0.359375 -1.625 -0.359375l-1.609375 0l0 -4.34375l4.578125 0l0 0.984375l-3.515625 0l0 2.390625l0.75 0q0.609375 0 1.1875 0.109375q0.578125 0.109375 1.03125 0.390625q0.453125 0.265625 0.71875 0.734375q0.28125 0.46875 0.28125 1.171875z" fill-rule="nonzero"/><path fill="#ffffff" d="m220.8583 92.200874q0.765625 -1.421875 1.21875 -3.546875l1.0625 0.296875q0.203125 0.203125 -0.140625 0.265625q-0.40625 2.171875 -1.21875 3.65625l-0.921875 -0.671875zm6.296875 0.15625q-0.765625 -2.03125 -1.671875 -3.40625l0.8125 -0.5q1.265625 1.625 1.828125 3.296875l-0.96875 0.609375zm-7.609375 -2.734375l1.625 0l0 0.953125l-1.625 0l0 1.328125q1.0625 0.453125 1.828125 1.265625l-0.609375 1.015625q-0.609375 -0.65625 -1.21875 -1.0625l0 4.828125l-1.015625 0l0 -4.625q-0.46875 1.109375 -1.375 2.234375l-0.765625 -0.859375q1.421875 -1.734375 2.078125 -4.125l-1.828125 0l0 -0.953125l1.890625 0l0 -1.6875l-1.53125 0.15625l-0.203125 -0.859375q1.984375 -0.109375 4.109375 -0.71875l0.3125 0.875q0.09375 0.296875 -0.359375 0.09375q-0.65625 0.15625 -1.3125 0.25l0 1.890625zm5.171875 -3.109375q0.40625 0.0625 0.046875 0.3125l0 7.0q0 0.8125 -0.8125 0.8125l-0.703125 0l-0.25 -0.953125l0.546875 0q0.203125 0 0.203125 -0.203125l0 -6.96875l0.96875 0zm2.390625 6.765625q0.25 0.203125 -0.15625 0.25q-1.71875 3.5625 -5.84375 4.21875l-0.25 -1.015625q3.90625 -0.71875 5.328125 -4.015625l0.921875 0.5625zm5.125 1.875q-0.609375 1.265625 -1.875 2.6875l-0.5625 -0.546875q1.265625 -1.375 1.78125 -2.5q0.5625 -1.21875 0.5625 -2.59375q0 -1.625 -0.5625 -2.78125q-0.515625 -1.078125 -1.78125 -2.234375l0.5625 -0.515625q1.3125 1.21875 1.875 2.390625q0.65625 1.375 0.65625 3.140625q0 1.578125 -0.65625 2.953125z" fill-rule="nonzero"/><path fill="#000000" fill-opacity="0.0" d="m283.9672 79.07087l112.0 0l0 35.55905l-112.0 0z" fill-rule="evenodd"/><path fill="#ffffff" d="m299.73282 93.35524l-2.515625 0l0 7.515625l-1.171875 0l0 -7.515625l-2.515625 0l0 -0.984375l6.203125 0l0 0.984375zm6.7028503 7.515625l-4.828125 0l0 -8.5l4.828125 0l0 0.96875l-3.671875 0l0 2.640625l3.53125 0l0 0.96875l-3.53125 0l0 2.9375l3.671875 0l0 0.984375zm7.671631 -2.296875q0 0.59375 -0.25 1.0625q-0.234375 0.453125 -0.6875 0.75q-0.4375 0.296875 -1.0625 0.453125q-0.625 0.140625 -1.359375 0.140625q-0.34375 0 -0.6875 -0.03125q-0.328125 -0.015625 -0.640625 -0.0625q-0.3125 -0.03125 -0.59375 -0.078125q-0.265625 -0.046875 -0.484375 -0.109375l0 -1.125q0.484375 0.1875 1.09375 0.296875q0.609375 0.09375 1.390625 0.09375q0.5625 0 0.953125 -0.078125q0.390625 -0.09375 0.640625 -0.265625q0.25 -0.171875 0.359375 -0.421875q0.125 -0.25 0.125 -0.5625q0 -0.34375 -0.203125 -0.59375q-0.1875 -0.25 -0.5 -0.4375q-0.3125 -0.1875 -0.71875 -0.34375q-0.390625 -0.171875 -0.8125 -0.328125q-0.40625 -0.171875 -0.8125 -0.375q-0.40625 -0.203125 -0.71875 -0.46875q-0.3125 -0.265625 -0.5 -0.625q-0.1875 -0.375 -0.1875 -0.875q0 -0.4375 0.171875 -0.859375q0.1875 -0.421875 0.5625 -0.75q0.390625 -0.328125 0.984375 -0.53125q0.609375 -0.203125 1.453125 -0.203125q0.203125 0 0.453125 0.03125q0.265625 0.015625 0.515625 0.046875q0.25 0.03125 0.5 0.078125q0.265625 0.046875 0.46875 0.09375l0 1.046875q-0.5 -0.140625 -1.0 -0.21875q-0.5 -0.078125 -0.96875 -0.078125q-1.0 0 -1.46875 0.34375q-0.46875 0.328125 -0.46875 0.890625q0 0.34375 0.1875 0.59375q0.203125 0.234375 0.515625 0.4375q0.3125 0.1875 0.703125 0.359375q0.40625 0.15625 0.8125 0.328125q0.421875 0.15625 0.828125 0.359375q0.40625 0.203125 0.71875 0.484375q0.3125 0.28125 0.5 0.65625q0.1875 0.359375 0.1875 0.875zm7.6091003 -5.21875l-2.515625 0l0 7.515625l-1.171875 0l0 -7.515625l-2.515625 0l0 -0.984375l6.203125 0l0 0.984375zm7.343506 4.46875l-2.5625 0l0 2.65625l-1.109375 0l0 -2.65625l-2.5625 0l0 -1.0l2.5625 0l0 -2.625l1.109375 0l0 2.625l2.5625 0l0 1.0zm7.0309753 0.75q0 0.59375 -0.25 1.0625q-0.234375 0.453125 -0.6875 0.75q-0.4375 0.296875 -1.0625 0.453125q-0.625 0.140625 -1.359375 0.140625q-0.34375 0 -0.6875 -0.03125q-0.328125 -0.015625 -0.640625 -0.0625q-0.3125 -0.03125 -0.59375 -0.078125q-0.265625 -0.046875 -0.484375 -0.109375l0 -1.125q0.484375 0.1875 1.09375 0.296875q0.609375 0.09375 1.390625 0.09375q0.5625 0 0.953125 -0.078125q0.390625 -0.09375 0.640625 -0.265625q0.25 -0.171875 0.359375 -0.421875q0.125 -0.25 0.125 -0.5625q0 -0.34375 -0.203125 -0.59375q-0.1875 -0.25 -0.5 -0.4375q-0.3125 -0.1875 -0.71875 -0.34375q-0.390625 -0.171875 -0.8125 -0.328125q-0.40625 -0.171875 -0.8125 -0.375q-0.40625 -0.203125 -0.71875 -0.46875q-0.3125 -0.265625 -0.5 -0.625q-0.1875 -0.375 -0.1875 -0.875q0 -0.4375 0.171875 -0.859375q0.1875 -0.421875 0.5625 -0.75q0.390625 -0.328125 0.984375 -0.53125q0.609375 -0.203125 1.453125 -0.203125q0.203125 0 0.453125 0.03125q0.265625 0.015625 0.515625 0.046875q0.25 0.03125 0.5 0.078125q0.265625 0.046875 0.46875 0.09375l0 1.046875q-0.5 -0.140625 -1.0 -0.21875q-0.5 -0.078125 -0.96875 -0.078125q-1.0 0 -1.46875 0.34375q-0.46875 0.328125 -0.46875 0.890625q0 0.34375 0.1875 0.59375q0.203125 0.234375 0.515625 0.4375q0.3125 0.1875 0.703125 0.359375q0.40625 0.15625 0.8125 0.328125q0.421875 0.15625 0.828125 0.359375q0.40625 0.203125 0.71875 0.484375q0.3125 0.28125 0.5 0.65625q0.1875 0.359375 0.1875 0.875zm6.984131 2.296875l-4.828125 0l0 -8.5l4.828125 0l0 0.96875l-3.671875 0l0 2.640625l3.53125 0l0 0.96875l-3.53125 0l0 2.9375l3.671875 0l0 0.984375zm8.030975 0l-1.3125 0l-1.265625 -2.71875q-0.140625 -0.3125 -0.296875 -0.515625q-0.15625 -0.203125 -0.328125 -0.328125q-0.171875 -0.125 -0.375 -0.171875q-0.203125 -0.046875 -0.453125 -0.046875l-0.546875 0l0 3.78125l-1.15625 0l0 -8.5l2.28125 0q0.734375 0 1.265625 0.15625q0.53125 0.15625 0.875 0.453125q0.34375 0.296875 0.5 0.71875q0.171875 0.40625 0.171875 0.90625q0 0.390625 -0.125 0.75q-0.109375 0.359375 -0.34375 0.65625q-0.234375 0.28125 -0.578125 0.5q-0.34375 0.203125 -0.78125 0.3125q0.359375 0.109375 0.609375 0.421875q0.25 0.3125 0.515625 0.828125l1.34375 2.796875zm-1.859375 -6.171875q0 -0.6875 -0.4375 -1.015625q-0.421875 -0.34375 -1.1875 -0.34375l-1.09375 0l0 2.8125l0.9375 0q0.40625 0 0.734375 -0.09375q0.328125 -0.09375 0.5625 -0.28125q0.234375 -0.1875 0.359375 -0.453125q0.125 -0.265625 0.125 -0.625zm9.640381 -2.328125l-2.890625 8.5l-1.5625 0l-2.8125 -8.5l1.296875 0l1.84375 5.734375l0.515625 1.671875l0.53125 -1.671875l1.84375 -5.734375l1.234375 0zm3.1091003 0.96875l-1.953125 0l0 -0.96875l5.078125 0l0 0.96875l-1.953125 0l0 6.546875l1.953125 0l0 0.984375l-5.078125 0l0 -0.984375l1.953125 0l0 -6.546875zm10.718506 7.21875q-1.015625 0.421875 -2.140625 0.421875q-1.796875 0 -2.765625 -1.078125q-0.96875 -1.078125 -0.96875 -3.1875q0 -1.03125 0.265625 -1.84375q0.265625 -0.828125 0.765625 -1.40625q0.5 -0.578125 1.203125 -0.890625q0.703125 -0.3125 1.578125 -0.3125q0.578125 0 1.078125 0.109375q0.515625 0.09375 0.984375 0.296875l0 1.140625q-0.453125 -0.25 -0.953125 -0.375q-0.484375 -0.140625 -1.078125 -0.140625q-0.59375 0 -1.078125 0.234375q-0.484375 0.21875 -0.828125 0.640625q-0.34375 0.421875 -0.53125 1.046875q-0.171875 0.609375 -0.171875 1.390625q0 1.65625 0.671875 2.5q0.671875 0.828125 1.96875 0.828125q0.546875 0 1.046875 -0.125q0.5 -0.125 0.953125 -0.34375l0 1.09375zm6.9997253 0.3125l-4.828125 0l0 -8.5l4.828125 0l0 0.96875l-3.671875 0l0 2.640625l3.53125 0l0 0.96875l-3.53125 0l0 2.9375l3.671875 0l0 0.984375z" fill-rule="nonzero"/><path fill="#000000" fill-opacity="0.0" d="m311.16534 172.1916l112.0 0l0 35.55905l-112.0 0z" fill-rule="evenodd"/><path fill="#ffffff" d="m326.64972 191.69473q0 0.59375 -0.25 1.0625q-0.234375 0.453125 -0.6875 0.75q-0.4375 0.296875 -1.0625 0.453125q-0.625 0.140625 -1.359375 0.140625q-0.34375 0 -0.6875 -0.03125q-0.328125 -0.015625 -0.640625 -0.0625q-0.3125 -0.03125 -0.59375 -0.078125q-0.265625 -0.046875 -0.484375 -0.109375l0 -1.125q0.484375 0.1875 1.09375 0.296875q0.609375 0.09375 1.390625 0.09375q0.5625 0 0.953125 -0.078125q0.390625 -0.09375 0.640625 -0.265625q0.25 -0.171875 0.359375 -0.421875q0.125 -0.25 0.125 -0.5625q0 -0.34375 -0.203125 -0.59375q-0.1875 -0.25 -0.5 -0.4375q-0.3125 -0.1875 -0.71875 -0.34375q-0.390625 -0.171875 -0.8125 -0.328125q-0.40625 -0.171875 -0.8125 -0.375q-0.40625 -0.203125 -0.71875 -0.46875q-0.3125 -0.265625 -0.5 -0.625q-0.1875 -0.375 -0.1875 -0.875q0 -0.4375 0.171875 -0.859375q0.1875 -0.421875 0.5625 -0.75q0.390625 -0.328125 0.984375 -0.53125q0.609375 -0.203125 1.453125 -0.203125q0.203125 0 0.453125 0.03125q0.265625 0.015625 0.515625 0.046875q0.25 0.03125 0.5 0.078125q0.265625 0.046875 0.46875 0.09375l0 1.046875q-0.5 -0.140625 -1.0 -0.21875q-0.5 -0.078125 -0.96875 -0.078125q-1.0 0 -1.46875 0.34375q-0.46875 0.328125 -0.46875 0.890625q0 0.34375 0.1875 0.59375q0.203125 0.234375 0.515625 0.4375q0.3125 0.1875 0.703125 0.359375q0.40625 0.15625 0.8125 0.328125q0.421875 0.15625 0.828125 0.359375q0.40625 0.203125 0.71875 0.484375q0.3125 0.28125 0.5 0.65625q0.1875 0.359375 0.1875 0.875zm6.984131 2.296875l-4.828125 0l0 -8.5l4.828125 0l0 0.96875l-3.671875 0l0 2.640625l3.53125 0l0 0.96875l-3.53125 0l0 2.9375l3.671875 0l0 0.984375zm8.030975 0l-1.3125 0l-1.265625 -2.71875q-0.140625 -0.3125 -0.296875 -0.515625q-0.15625 -0.203125 -0.328125 -0.328125q-0.171875 -0.125 -0.375 -0.171875q-0.203125 -0.046875 -0.453125 -0.046875l-0.546875 0l0 3.78125l-1.15625 0l0 -8.5l2.28125 0q0.734375 0 1.265625 0.15625q0.53125 0.15625 0.875 0.453125q0.34375 0.296875 0.5 0.71875q0.171875 0.40625 0.171875 0.90625q0 0.390625 -0.125 0.75q-0.109375 0.359375 -0.34375 0.65625q-0.234375 0.28125 -0.578125 0.5q-0.34375 0.203125 -0.78125 0.3125q0.359375 0.109375 0.609375 0.421875q0.25 0.3125 0.515625 0.828125l1.34375 2.796875zm-1.859375 -6.171875q0 -0.6875 -0.4375 -1.015625q-0.421875 -0.34375 -1.1875 -0.34375l-1.09375 0l0 2.8125l0.9375 0q0.40625 0 0.734375 -0.09375q0.328125 -0.09375 0.5625 -0.28125q0.234375 -0.1875 0.359375 -0.453125q0.125 -0.265625 0.125 -0.625zm9.640381 -2.328125l-2.890625 8.5l-1.5625 0l-2.8125 -8.5l1.296875 0l1.84375 5.734375l0.515625 1.671875l0.53125 -1.671875l1.84375 -5.734375l1.234375 0zm3.1091003 0.96875l-1.953125 0l0 -0.96875l5.078125 0l0 0.96875l-1.953125 0l0 6.546875l1.953125 0l0 0.984375l-5.078125 0l0 -0.984375l1.953125 0l0 -6.546875zm10.718506 7.21875q-1.015625 0.421875 -2.140625 0.421875q-1.796875 0 -2.765625 -1.078125q-0.96875 -1.078125 -0.96875 -3.1875q0 -1.03125 0.265625 -1.84375q0.265625 -0.828125 0.765625 -1.40625q0.5 -0.578125 1.203125 -0.890625q0.703125 -0.3125 1.578125 -0.3125q0.578125 0 1.078125 0.109375q0.515625 0.09375 0.984375 0.296875l0 1.140625q-0.453125 -0.25 -0.953125 -0.375q-0.484375 -0.140625 -1.078125 -0.140625q-0.59375 0 -1.078125 0.234375q-0.484375 0.21875 -0.828125 0.640625q-0.34375 0.421875 -0.53125 1.046875q-0.171875 0.609375 -0.171875 1.390625q0 1.65625 0.671875 2.5q0.671875 0.828125 1.96875 0.828125q0.546875 0 1.046875 -0.125q0.5 -0.125 0.953125 -0.34375l0 1.09375zm6.9997253 0.3125l-4.828125 0l0 -8.5l4.828125 0l0 0.96875l-3.671875 0l0 2.640625l3.53125 0l0 0.96875l-3.53125 0l0 2.9375l3.671875 0l0 0.984375z" fill-rule="nonzero"/><path fill="#000000" fill-opacity="0.0" d="m90.362206 135.41995l55.999992 0l0 35.55905l-55.999992 0z" fill-rule="evenodd"/><path fill="#ffffff" d="m106.12783 149.70432l-2.515625 0l0 7.515625l-1.171875 0l0 -7.515625l-2.515625 0l0 -0.984375l6.203125 0l0 0.984375zm6.7028656 7.515625l-4.828125 0l0 -8.5l4.828125 0l0 0.96875l-3.671875 0l0 2.640625l3.53125 0l0 0.96875l-3.53125 0l0 2.9375l3.671875 0l0 0.984375zm7.6716156 -2.296875q0 0.59375 -0.25 1.0625q-0.234375 0.453125 -0.6875 0.75q-0.4375 0.296875 -1.0625 0.453125q-0.625 0.140625 -1.359375 0.140625q-0.34375 0 -0.6875 -0.03125q-0.328125 -0.015625 -0.640625 -0.0625q-0.3125 -0.03125 -0.59375 -0.078125q-0.265625 -0.046875 -0.484375 -0.109375l0 -1.125q0.484375 0.1875 1.09375 0.296875q0.609375 0.09375 1.390625 0.09375q0.5625 0 0.953125 -0.078125q0.390625 -0.09375 0.640625 -0.265625q0.25 -0.171875 0.359375 -0.421875q0.125 -0.25 0.125 -0.5625q0 -0.34375 -0.203125 -0.59375q-0.1875 -0.25 -0.5 -0.4375q-0.3125 -0.1875 -0.71875 -0.34375q-0.390625 -0.171875 -0.8125 -0.328125q-0.40625 -0.171875 -0.8125 -0.375q-0.40625 -0.203125 -0.71875 -0.46875q-0.3125 -0.265625 -0.5 -0.625q-0.1875 -0.375 -0.1875 -0.875q0 -0.4375 0.171875 -0.859375q0.1875 -0.421875 0.5625 -0.75q0.390625 -0.328125 0.984375 -0.53125q0.609375 -0.203125 1.453125 -0.203125q0.203125 0 0.453125 0.03125q0.265625 0.015625 0.515625 0.046875q0.25 0.03125 0.5 0.078125q0.265625 0.046875 0.46875 0.09375l0 1.046875q-0.5 -0.140625 -1.0 -0.21875q-0.5 -0.078125 -0.96875 -0.078125q-1.0 0 -1.46875 0.34375q-0.46875 0.328125 -0.46875 0.890625q0 0.34375 0.1875 0.59375q0.203125 0.234375 0.515625 0.4375q0.3125 0.1875 0.703125 0.359375q0.40625 0.15625 0.8125 0.328125q0.421875 0.15625 0.828125 0.359375q0.40625 0.203125 0.71875 0.484375q0.3125 0.28125 0.5 0.65625q0.1875 0.359375 0.1875 0.875zm7.609108 -5.21875l-2.5156174 0l0 7.515625l-1.171875 0l0 -7.515625l-2.515625 0l0 -0.984375l6.2031174 0l0 0.984375z" fill-rule="nonzero"/><path fill="#000000" fill-opacity="0.0" d="m90.362206 199.41995l55.999992 0l0 35.55905l-55.999992 0z" fill-rule="evenodd"/><path fill="#ffffff" d="m106.12783 213.70432l-2.515625 0l0 7.515625l-1.171875 0l0 -7.515625l-2.515625 0l0 -0.984375l6.203125 0l0 0.984375zm6.7028656 7.515625l-4.828125 0l0 -8.5l4.828125 0l0 0.96875l-3.671875 0l0 2.640625l3.53125 0l0 0.96875l-3.53125 0l0 2.9375l3.671875 0l0 0.984375zm7.6716156 -2.296875q0 0.59375 -0.25 1.0625q-0.234375 0.453125 -0.6875 0.75q-0.4375 0.296875 -1.0625 0.453125q-0.625 0.140625 -1.359375 0.140625q-0.34375 0 -0.6875 -0.03125q-0.328125 -0.015625 -0.640625 -0.0625q-0.3125 -0.03125 -0.59375 -0.078125q-0.265625 -0.046875 -0.484375 -0.109375l0 -1.125q0.484375 0.1875 1.09375 0.296875q0.609375 0.09375 1.390625 0.09375q0.5625 0 0.953125 -0.078125q0.390625 -0.09375 0.640625 -0.265625q0.25 -0.171875 0.359375 -0.421875q0.125 -0.25 0.125 -0.5625q0 -0.34375 -0.203125 -0.59375q-0.1875 -0.25 -0.5 -0.4375q-0.3125 -0.1875 -0.71875 -0.34375q-0.390625 -0.171875 -0.8125 -0.328125q-0.40625 -0.171875 -0.8125 -0.375q-0.40625 -0.203125 -0.71875 -0.46875q-0.3125 -0.265625 -0.5 -0.625q-0.1875 -0.375 -0.1875 -0.875q0 -0.4375 0.171875 -0.859375q0.1875 -0.421875 0.5625 -0.75q0.390625 -0.328125 0.984375 -0.53125q0.609375 -0.203125 1.453125 -0.203125q0.203125 0 0.453125 0.03125q0.265625 0.015625 0.515625 0.046875q0.25 0.03125 0.5 0.078125q0.265625 0.046875 0.46875 0.09375l0 1.046875q-0.5 -0.140625 -1.0 -0.21875q-0.5 -0.078125 -0.96875 -0.078125q-1.0 0 -1.46875 0.34375q-0.46875 0.328125 -0.46875 0.890625q0 0.34375 0.1875 0.59375q0.203125 0.234375 0.515625 0.4375q0.3125 0.1875 0.703125 0.359375q0.40625 0.15625 0.8125 0.328125q0.421875 0.15625 0.828125 0.359375q0.40625 0.203125 0.71875 0.484375q0.3125 0.28125 0.5 0.65625q0.1875 0.359375 0.1875 0.875zm7.609108 -5.21875l-2.5156174 0l0 7.515625l-1.171875 0l0 -7.515625l-2.515625 0l0 -0.984375l6.2031174 0l0 0.984375z" fill-rule="nonzero"/><path fill="#000000" fill-opacity="0.0" d="m74.362206 266.979l55.999992 0l0 35.55905l-55.999992 0z" fill-rule="evenodd"/><path fill="#ffffff" d="m90.12783 281.26337l-2.515625 0l0 7.515625l-1.171875 0l0 -7.515625l-2.515625 0l0 -0.984375l6.203125 0l0 0.984375zm6.7028656 7.515625l-4.828125 0l0 -8.5l4.828125 0l0 0.96875l-3.671875 0l0 2.640625l3.53125 0l0 0.96875l-3.53125 0l0 2.9375l3.671875 0l0 0.984375zm7.6716156 -2.296875q0 0.59375 -0.25 1.0625q-0.234375 0.453125 -0.6875 0.75q-0.4375 0.296875 -1.0625 0.453125q-0.625 0.140625 -1.359375 0.140625q-0.34375 0 -0.6875 -0.03125q-0.328125 -0.015625 -0.640625 -0.0625q-0.3125 -0.03125 -0.59375 -0.078125q-0.265625 -0.046875 -0.484375 -0.109375l0 -1.125q0.484375 0.1875 1.09375 0.296875q0.609375 0.09375 1.390625 0.09375q0.5625 0 0.953125 -0.078125q0.390625 -0.09375 0.640625 -0.265625q0.25 -0.171875 0.359375 -0.421875q0.125 -0.25 0.125 -0.5625q0 -0.34375 -0.203125 -0.59375q-0.1875 -0.25 -0.5 -0.4375q-0.3125 -0.1875 -0.71875 -0.34375q-0.390625 -0.171875 -0.8125 -0.328125q-0.40625 -0.171875 -0.8125 -0.375q-0.40625 -0.203125 -0.71875 -0.46875q-0.3125 -0.265625 -0.5 -0.625q-0.1875 -0.375 -0.1875 -0.875q0 -0.4375 0.171875 -0.859375q0.1875 -0.421875 0.5625 -0.75q0.390625 -0.328125 0.984375 -0.53125q0.609375 -0.203125 1.453125 -0.203125q0.203125 0 0.453125 0.03125q0.265625 0.015625 0.515625 0.046875q0.25 0.03125 0.5 0.078125q0.265625 0.046875 0.46875 0.09375l0 1.046875q-0.5 -0.140625 -1.0 -0.21875q-0.5 -0.078125 -0.96875 -0.078125q-1.0 0 -1.46875 0.34375q-0.46875 0.328125 -0.46875 0.890625q0 0.34375 0.1875 0.59375q0.203125 0.234375 0.515625 0.4375q0.3125 0.1875 0.703125 0.359375q0.40625 0.15625 0.8125 0.328125q0.421875 0.15625 0.828125 0.359375q0.40625 0.203125 0.71875 0.484375q0.3125 0.28125 0.5 0.65625q0.1875 0.359375 0.1875 0.875zm7.6091156 -5.21875l-2.515625 0l0 7.515625l-1.171875 0l0 -7.515625l-2.515625 0l0 -0.984375l6.203125 0l0 0.984375z" fill-rule="nonzero"/><path fill="#000000" fill-opacity="0.0" d="m480.0 117.97113c12.500275 0 48.648254 -26.368729 25.00055 -51.00386c-23.647736 -24.635124 -107.09122 -47.53665 -202.35855 -51.003853c-95.267334 -3.4672022 -202.35854 12.499919 -202.35854 24.999836" fill-rule="evenodd"/><path stroke="#ffffff" stroke-width="1.0" stroke-linejoin="round" stroke-linecap="butt" d="m480.0 117.97113c12.500275 0 48.648254 -26.368729 25.000519 -51.00386c-23.647705 -24.635124 -107.09119 -47.53665 -202.35852 -51.003853c-47.633667 -1.7336016 -98.2233 1.3913784 -136.90451 6.512247c-19.340607 2.5604362 -35.704117 5.6198425 -47.232475 8.820387c-5.764168 1.6002712 -10.319565 3.2358265 -13.433899 4.8619366c-0.19464874 0.101631165 -0.383667 0.203228 -0.56700134 0.30477524l-0.15550995 0.08747482" fill-rule="evenodd"/><path fill="#ffffff" stroke="#ffffff" stroke-width="1.0" stroke-linecap="butt" d="m103.13374 35.431156l-1.8598099 4.456867l4.2895203 -2.2186966z" fill-rule="evenodd"/><path fill="#000000" fill-opacity="0.0" d="m456.4252 82.979004l47.149597 0l0 35.55905l-47.149597 0z" fill-rule="evenodd"/><path fill="#ffffff" d="m475.22208 98.638374l0 -1.6875l-6.390625 0l0 1.6875l6.390625 0zm0 0.953125l-6.390625 0l0 1.734375l6.390625 0l0 -1.734375zm0 4.578125l0 -1.875l-6.390625 0l0 1.875l6.390625 0zm-4.265625 -8.171875l0.46875 -1.78125l1.21875 0.25q0.203125 0.203125 -0.15625 0.25l-0.5625 1.28125l4.3125 0l0 9.59375l-1.015625 0l0 -0.453125l-6.390625 0l0 0.609375l-1.015625 0l0 -9.75l3.140625 0zm13.46875 9.03125q0.5 -0.25 1.0625 -0.765625l-5.6875 1.078125q-0.046875 0.359375 -0.25 0.15625l-0.3125 -1.125l2.953125 -0.359375l0 -0.90625l-2.390625 0l0 -0.8125l2.390625 0l0 -0.765625l-1.171875 0l-1.125 0l0 -3.609375l2.296875 0l0 -0.703125l-2.953125 0l0 -0.8125l2.953125 0l0 -0.609375q-1.28125 0.046875 -2.546875 0.09375l-0.15625 -0.859375q2.5 0 5.34375 -0.5625l0.453125 0.859375q0.15625 0.3125 -0.3125 0.109375q-1.0625 0.15625 -1.921875 0.25l0 0.71875l2.796875 0l0 0.8125l-2.796875 0l0 0.703125l2.328125 0l0 3.609375l-2.328125 0l0 0.765625l2.53125 0l0 0.8125l-2.53125 0l0 0.75l2.53125 -0.40625l0 0.71875q1.484375 -1.328125 1.53125 -4.015625l0.046875 -1.984375l-1.21875 0l0 -0.953125l1.21875 0l0 -2.59375l0.96875 0q0.40625 0.046875 0.046875 0.296875l0 2.296875l2.234375 0l-0.09375 6.703125q-0.0625 1.828125 -1.328125 1.828125l-1.375 0l-0.140625 -0.96875l1.15625 0q0.609375 0 0.671875 -1.0625l0.140625 -5.546875l-1.265625 0l-0.046875 2.390625q-0.046875 3.5 -3.09375 5.4375l-0.609375 -0.96875zm-1.375 -5.03125l0 0.921875l1.46875 0l0 -0.921875l-1.46875 0zm0 -1.46875l0 0.859375l1.46875 0l0 -0.859375l-1.46875 0zm-2.28125 1.46875l0 0.921875l1.421875 0l0 -0.921875l-1.421875 0zm0 -1.46875l0 0.859375l1.421875 0l0 -0.859375l-1.421875 0z" fill-rule="nonzero"/><path fill="#000000" fill-opacity="0.0" d="m394.15485 182.6063l0 32.0" fill-rule="evenodd"/><path stroke="#ffffff" stroke-width="1.0" stroke-linejoin="round" stroke-linecap="butt" d="m394.15485 182.6063l0 26.0" fill-rule="evenodd"/><path fill="#ffffff" stroke="#ffffff" stroke-width="1.0" stroke-linecap="butt" d="m392.5031 208.6063l1.6517334 4.538101l1.6517334 -4.538101z" fill-rule="evenodd"/><path fill="#000000" fill-opacity="0.0" d="m402.15485 179.04724l56.0 0l0 35.55905l-56.0 0z" fill-rule="evenodd"/><path fill="#ffffff" d="m417.92047 193.33162l-2.515625 0l0 7.515625l-1.171875 0l0 -7.515625l-2.515625 0l0 -0.984375l6.203125 0l0 0.984375zm6.702881 7.515625l-4.828125 0l0 -8.5l4.828125 0l0 0.96875l-3.671875 0l0 2.640625l3.53125 0l0 0.96875l-3.53125 0l0 2.9375l3.671875 0l0 0.984375zm7.6716003 -2.296875q0 0.59375 -0.25 1.0625q-0.234375 0.453125 -0.6875 0.75q-0.4375 0.296875 -1.0625 0.453125q-0.625 0.140625 -1.359375 0.140625q-0.34375 0 -0.6875 -0.03125q-0.328125 -0.015625 -0.640625 -0.0625q-0.3125 -0.03125 -0.59375 -0.078125q-0.265625 -0.046875 -0.484375 -0.109375l0 -1.125q0.484375 0.1875 1.09375 0.296875q0.609375 0.09375 1.390625 0.09375q0.5625 0 0.953125 -0.078125q0.390625 -0.09375 0.640625 -0.265625q0.25 -0.171875 0.359375 -0.421875q0.125 -0.25 0.125 -0.5625q0 -0.34375 -0.203125 -0.59375q-0.1875 -0.25 -0.5 -0.4375q-0.3125 -0.1875 -0.71875 -0.34375q-0.390625 -0.171875 -0.8125 -0.328125q-0.40625 -0.171875 -0.8125 -0.375q-0.40625 -0.203125 -0.71875 -0.46875q-0.3125 -0.265625 -0.5 -0.625q-0.1875 -0.375 -0.1875 -0.875q0 -0.4375 0.171875 -0.859375q0.1875 -0.421875 0.5625 -0.75q0.390625 -0.328125 0.984375 -0.53125q0.609375 -0.203125 1.453125 -0.203125q0.203125 0 0.453125 0.03125q0.265625 0.015625 0.515625 0.046875q0.25 0.03125 0.5 0.078125q0.265625 0.046875 0.46875 0.09375l0 1.046875q-0.5 -0.140625 -1.0 -0.21875q-0.5 -0.078125 -0.96875 -0.078125q-1.0 0 -1.46875 0.34375q-0.46875 0.328125 -0.46875 0.890625q0 0.34375 0.1875 0.59375q0.203125 0.234375 0.515625 0.4375q0.3125 0.1875 0.703125 0.359375q0.40625 0.15625 0.8125 0.328125q0.421875 0.15625 0.828125 0.359375q0.40625 0.203125 0.71875 0.484375q0.3125 0.28125 0.5 0.65625q0.1875 0.359375 0.1875 0.875zm7.609131 -5.21875l-2.515625 0l0 7.515625l-1.171875 0l0 -7.515625l-2.515625 0l0 -0.984375l6.203125 0l0 0.984375z" fill-rule="nonzero"/><path fill="#000000" fill-opacity="0.0" d="m345.22833 207.75066l264.8819 0l0 42.015747l-264.8819 0z" fill-rule="evenodd"/><path fill="#ffffff" d="m370.25958 221.3894q2.671875 2.671875 2.671875 6.453125q0 3.78125 -2.671875 6.453125q-2.671875 2.671875 -6.453125 2.671875q-3.78125 0 -6.453125 -2.671875q-2.671875 -2.671875 -2.671875 -6.453125q0 -3.78125 2.671875 -6.453125q2.671875 -2.671875 6.453125 -2.671875q3.78125 0 6.453125 2.671875zm-0.515625 12.390625q2.453125 -2.453125 2.453125 -5.9375q0 -3.484375 -2.453125 -5.9375q-2.453125 -2.453125 -5.9375 -2.453125q-3.484375 0 -5.9375 2.453125q-2.453125 2.453125 -2.453125 5.9375q0 3.484375 2.453125 5.9375q2.453125 2.453125 5.9375 2.453125q3.484375 0 5.9375 -2.453125zm-1.9375 -12.171875l0 1.109375l-4.671875 11.359375l-1.78125 0l4.609375 -10.84375l-6.390625 0l0 -1.625l8.234375 0zm14.484375 5.484375q0.140625 5.640625 -4.828125 8.765625l-1.265625 -1.40625q4.375 -2.375 4.375 -6.6875l0 -3.1875l1.5625 0q0.671875 0.078125 0.15625 0.515625l0 1.9375q2.671875 -2.015625 4.078125 -3.9375l-12.09375 0.4375l-0.15625 -1.703125l13.515625 -0.375l0.515625 -0.140625l1.109375 1.328125q0.21875 0.296875 -0.375 0.234375q-2.21875 2.890625 -5.34375 5.40625l-1.25 -1.1875zm17.960938 -2.296875l6.890625 0l0 1.640625l-6.828125 0l0 1.328125q0 5.5 -4.75 8.3125l-1.546875 -1.1875q4.59375 -2.375 4.59375 -7.125l0 -1.328125l-7.34375 0l0 -1.640625l7.265625 0l0 -4.453125l1.484375 0q0.828125 0.078125 0.234375 0.59375l0 3.859375zm21.886719 8.609375l-1.703125 0l0 -0.8125l-8.234375 0l0 1.1875l-1.71875 0l0 -11.578125l11.65625 0l0 11.203125zm-9.9375 -9.578125l0 7.125l8.234375 0l0 -7.125l-8.234375 0zm26.199219 0.671875q-1.421875 8.09375 -9.28125 11.578125l-1.34375 -1.40625q7.28125 -2.96875 8.765625 -10.25l-5.9375 0q-1.703125 2.828125 -3.5625 4.53125l-1.484375 -0.96875q3.859375 -3.484375 4.96875 -8.15625l1.703125 0.59375q0.453125 0.21875 -0.140625 0.4375q-0.296875 0.96875 -0.8125 1.9375l5.34375 0l0.65625 -0.375l1.34375 1.34375q0.515625 0.515625 -0.21875 0.734375zm0.4375 -1.78125q-1.1875 -1.703125 -2.296875 -2.59375l0.96875 -0.8125q1.25 1.109375 2.375 2.59375l-1.046875 0.8125zm2.15625 -0.890625q-1.1875 -1.484375 -2.15625 -2.375l0.890625 -0.890625q1.109375 1.046875 2.15625 2.375l-0.890625 0.890625zm5.4179688 11.140625q6.828125 -1.265625 9.9375 -6.90625l1.265625 1.265625q-3.5625 6.234375 -11.875 7.640625l-1.1875 -0.890625l0.15625 -0.453125l0 -12.3125l1.625 0q0.671875 0.078125 0.078125 0.515625l0 11.140625zm13.3515625 -3.71875q7.796875 -3.265625 11.8125 -9.203125l1.40625 1.1875q0.59375 0.453125 -0.515625 0.671875q-1.421875 1.859375 -3.640625 3.78125l0 10.09375l-1.703125 0l0 -8.6875q-2.609375 2.015625 -6.09375 3.640625l-1.265625 -1.484375zm23.613281 -2.15625q0.140625 5.640625 -4.828125 8.765625l-1.265625 -1.40625q4.375 -2.375 4.375 -6.6875l0 -3.1875l1.5625 0q0.671875 0.078125 0.15625 0.515625l0 1.9375q2.671875 -2.015625 4.078125 -3.9375l-12.09375 0.4375l-0.15625 -1.703125l13.515625 -0.375l0.515625 -0.140625l1.109375 1.328125q0.21875 0.296875 -0.375 0.234375q-2.21875 2.890625 -5.34375 5.40625l-1.25 -1.1875zm23.898438 -2.890625q0 8.09375 -7.796875 11.953125l-1.40625 -1.40625q7.1875 -3.265625 7.265625 -9.796875l-10.3125 0l0.140625 4.375l-1.703125 0l-0.21875 -6.015625l5.859375 0l0 -3.703125l1.484375 0q0.890625 0.0625 0.21875 0.59375l0 3.109375l5.578125 0l0.890625 0.890625zm6.0742188 1.5625q3.640625 1.03125 7.359375 2.8125l-0.890625 1.71875q-3.9375 -2.015625 -6.46875 -2.671875l0 7.71875l-1.703125 0l0 -14.84375l1.484375 0q0.890625 0.0625 0.21875 0.59375l0 4.671875zm23.460938 8.6875l-6.453125 0q-1.859375 0 -1.859375 -1.9375l0 -4.0l-5.9375 0l0 -1.640625l5.9375 0l0 -3.40625l-4.53125 0l0 -1.640625l11.796875 0l0 1.640625l-5.5625 0l0 3.40625l7.421875 0l0 1.640625l-7.421875 0l0 3.40625q0 0.890625 0.8125 0.890625l5.875 0l-0.078125 1.640625zm2.7421875 -5.875l0 -1.625l16.546875 0l0 1.625l-16.546875 0zm27.757812 1.71875q-3.9375 -2.015625 -6.453125 -2.671875l0 7.71875l-1.703125 0l0 -14.84375l1.484375 0q0.890625 0.0625 0.21875 0.59375l0 4.671875q3.640625 1.03125 7.34375 2.8125l-0.890625 1.71875zm-0.140625 -6.53125q-1.265625 -1.5625 -2.53125 -2.53125l0.96875 -0.734375q1.265625 0.953125 2.515625 2.515625l-0.953125 0.75zm1.78125 -1.421875q-0.96875 -1.25 -2.453125 -2.4375l0.96875 -0.75q1.25 0.890625 2.4375 2.453125l-0.953125 0.734375z" fill-rule="nonzero"/><path fill="#000000" fill-opacity="0.0" d="m393.10498 239.75066l0 32.000015" fill-rule="evenodd"/><path stroke="#ffffff" stroke-width="1.0" stroke-linejoin="round" stroke-linecap="butt" d="m393.10498 239.75066l0 26.000015" fill-rule="evenodd"/><path fill="#ffffff" stroke="#ffffff" stroke-width="1.0" stroke-linecap="butt" d="m391.45325 265.75067l1.6517334 4.538086l1.6517334 -4.538086z" fill-rule="evenodd"/><path fill="#000000" fill-opacity="0.0" d="m401.10498 236.1916l56.0 0l0 35.559067l-56.0 0z" fill-rule="evenodd"/><path fill="#ffffff" d="m416.8706 250.47598l-2.515625 0l0 7.515625l-1.171875 0l0 -7.515625l-2.515625 0l0 -0.984375l6.203125 0l0 0.984375zm6.702881 7.515625l-4.828125 0l0 -8.5l4.828125 0l0 0.96875l-3.671875 0l0 2.640625l3.53125 0l0 0.96875l-3.53125 0l0 2.9375l3.671875 0l0 0.984375zm7.6716003 -2.296875q0 0.59375 -0.25 1.0625q-0.234375 0.453125 -0.6875 0.75q-0.4375 0.296875 -1.0625 0.453125q-0.625 0.140625 -1.359375 0.140625q-0.34375 0 -0.6875 -0.03125q-0.328125 -0.015625 -0.640625 -0.0625q-0.3125 -0.03125 -0.59375 -0.078125q-0.265625 -0.046875 -0.484375 -0.109375l0 -1.125q0.484375 0.1875 1.09375 0.296875q0.609375 0.09375 1.390625 0.09375q0.5625 0 0.953125 -0.078125q0.390625 -0.09375 0.640625 -0.265625q0.25 -0.171875 0.359375 -0.421875q0.125 -0.25 0.125 -0.5625q0 -0.34375 -0.203125 -0.59375q-0.1875 -0.25 -0.5 -0.4375q-0.3125 -0.1875 -0.71875 -0.34375q-0.390625 -0.171875 -0.8125 -0.328125q-0.40625 -0.171875 -0.8125 -0.375q-0.40625 -0.203125 -0.71875 -0.46875q-0.3125 -0.265625 -0.5 -0.625q-0.1875 -0.375 -0.1875 -0.875q0 -0.4375 0.171875 -0.859375q0.1875 -0.421875 0.5625 -0.75q0.390625 -0.328125 0.984375 -0.53125q0.609375 -0.203125 1.453125 -0.203125q0.203125 0 0.453125 0.03125q0.265625 0.015625 0.515625 0.046875q0.25 0.03125 0.5 0.078125q0.265625 0.046875 0.46875 0.09375l0 1.046875q-0.5 -0.140625 -1.0 -0.21875q-0.5 -0.078125 -0.96875 -0.078125q-1.0 0 -1.46875 0.34375q-0.46875 0.328125 -0.46875 0.890625q0 0.34375 0.1875 0.59375q0.203125 0.234375 0.515625 0.4375q0.3125 0.1875 0.703125 0.359375q0.40625 0.15625 0.8125 0.328125q0.421875 0.15625 0.828125 0.359375q0.40625 0.203125 0.71875 0.484375q0.3125 0.28125 0.5 0.65625q0.1875 0.359375 0.1875 0.875zm7.609131 -5.21875l-2.515625 0l0 7.515625l-1.171875 0l0 -7.515625l-2.515625 0l0 -0.984375l6.203125 0l0 0.984375z" fill-rule="nonzero"/><path fill="#000000" fill-opacity="0.0" d="m345.22833 261.97113l264.8819 0l0 42.015747l-264.8819 0z" fill-rule="evenodd"/><path fill="#ffffff" d="m370.25958 275.60986q2.671875 2.671875 2.671875 6.453125q0 3.78125 -2.671875 6.453125q-2.671875 2.671875 -6.453125 2.671875q-3.78125 0 -6.453125 -2.671875q-2.671875 -2.671875 -2.671875 -6.453125q0 -3.78125 2.671875 -6.453125q2.671875 -2.671875 6.453125 -2.671875q3.78125 0 6.453125 2.671875zm-0.515625 12.390625q2.453125 -2.453125 2.453125 -5.9375q0 -3.484375 -2.453125 -5.9375q-2.453125 -2.453125 -5.9375 -2.453125q-3.484375 0 -5.9375 2.453125q-2.453125 2.453125 -2.453125 5.9375q0 3.484375 2.453125 5.9375q2.453125 2.453125 5.9375 2.453125q3.484375 0 5.9375 -2.453125zm-6.015625 -11.0625q-1.265625 0 -1.921875 0.671875q-0.453125 0.4375 -0.453125 1.1875q0 0.8125 0.375 1.1875q0.734375 0.734375 2.0 0.734375q1.265625 0 2.0 -0.734375q0.375 -0.375 0.375 -1.1875q0 -0.75 -0.4375 -1.1875q-0.671875 -0.671875 -1.9375 -0.671875zm1.859375 4.453125q0.8125 0.296875 1.484375 0.96875q0.890625 0.890625 0.890625 2.15625q0 1.625 -1.1875 2.8125q-1.046875 1.046875 -3.046875 1.046875q-2.078125 0 -3.109375 -1.046875q-1.125 -1.109375 -1.125 -2.8125q0 -1.265625 0.890625 -2.15625q0.671875 -0.671875 1.484375 -0.96875q-0.734375 -0.140625 -1.328125 -0.734375q-0.8125 -0.828125 -0.8125 -1.859375q0 -1.1875 0.890625 -2.078125q1.1875 -1.1875 3.109375 -1.1875q2.0 0 3.1875 1.1875q0.828125 0.8125 0.828125 2.078125q0 1.03125 -0.828125 1.859375q-0.515625 0.515625 -1.328125 0.734375zm-1.859375 0.8125q-1.265625 0 -1.921875 0.671875q-0.671875 0.671875 -0.671875 1.640625q0 0.953125 0.671875 1.625q0.65625 0.671875 1.921875 0.671875q1.265625 0 1.9375 -0.671875q0.59375 -0.59375 0.59375 -1.625q0 -0.96875 -0.671875 -1.640625q-0.671875 -0.671875 -1.859375 -0.671875zm9.953125 4.75q4.75 -3.03125 7.421875 -7.265625l-6.984375 0l0 -1.640625l7.875 0l0 -4.078125l1.546875 0q0.671875 0.15625 0.15625 0.59375l0 3.484375l6.234375 0l0 1.640625l-6.234375 0l0 8.6875q0 1.78125 -1.703125 1.78125l-2.078125 0l-0.296875 -1.640625l1.484375 0q0.890625 -0.140625 0.890625 -0.96875l0 -6.234375q-2.828125 4.15625 -6.828125 6.984375l-1.484375 -1.34375zm31.535156 -10.828125q0.59375 0 0.96875 -0.375q0.375 -0.375 0.375 -0.96875q0 -0.59375 -0.375 -0.953125q-0.375 -0.375 -0.96875 -0.375q-0.59375 0 -0.96875 0.375q-0.359375 0.359375 -0.359375 0.953125q0 0.59375 0.359375 0.96875q0.375 0.375 0.96875 0.375zm0 0.734375q-0.890625 0 -1.484375 -0.59375q-0.59375 -0.59375 -0.59375 -1.484375q0 -0.890625 0.59375 -1.484375q0.59375 -0.59375 1.484375 -0.59375q0.890625 0 1.484375 0.59375q0.59375 0.59375 0.59375 1.484375q0 0.890625 -0.59375 1.484375q-0.59375 0.59375 -1.484375 0.59375zm-13.28125 0.96875l0 -1.625l10.984375 0l1.921875 1.40625q-0.359375 8.984375 -10.15625 11.734375l-1.34375 -1.640625q9.28125 -2.15625 9.71875 -9.875l-11.125 0zm18.335938 9.875q8.078125 -1.78125 12.171875 -8.390625l1.328125 1.34375q-3.78125 6.078125 -11.71875 8.609375q-0.234375 0.890625 -0.75 0.078125l-1.03125 -1.640625zm-0.53125 -8.984375q1.859375 0.96875 3.796875 2.375l-1.1875 1.5625q-2.234375 -1.640625 -3.71875 -2.375l1.109375 -1.5625zm2.078125 -4.375q2.015625 1.109375 3.796875 2.375l-1.046875 1.5625q-2.0 -1.421875 -3.703125 -2.375l0.953125 -1.5625zm13.8828125 14.546875l0 -1.40625l7.578125 0l0 -3.125l-7.125 0l0 -1.40625l7.125 0l0 -2.96875l-7.578125 0l0 -1.40625l9.0625 0l0 11.125l-1.484375 0l0 -0.8125l-7.578125 0zm26.496094 -8.609375q-3.9375 8.15625 -13.203125 8.609375q-0.375 0.96875 -0.75 0.15625l-0.59375 -1.9375q9.65625 -0.21875 12.984375 -7.9375l1.5625 1.109375zm-10.46875 0q-2.0 -1.859375 -3.78125 -3.046875l1.265625 -1.5625q1.5625 0.96875 3.9375 3.203125l-1.421875 1.40625zm19.964844 2.8125l0 -1.40625l6.828125 0l0.234375 -0.21875l1.109375 0.8125q0.375 0.375 -0.15625 0.296875q-1.109375 2.671875 -2.671875 4.453125q1.046875 0.8125 4.3125 1.78125l-0.453125 1.5625q-3.265625 -1.109375 -4.890625 -2.296875q-2.078125 1.625 -4.3125 2.453125l-0.734375 -1.421875q2.21875 -0.59375 4.0 -2.0q-1.109375 -1.40625 -2.078125 -4.015625l-1.1875 0zm0.96875 -8.90625l5.5 0l0 4.15625q0 0.59375 0.515625 0.59375l0.515625 0q0.59375 0 0.59375 -1.40625l1.484375 0.375q-0.078125 2.453125 -1.703125 2.453125l-1.5625 0q-1.328125 0 -1.328125 -1.265625l0 -3.484375l-2.53125 0l0 1.78125q0 2.734375 -2.453125 4.078125l-0.8125 -1.1875q1.78125 -0.671875 1.78125 -3.046875l0 -3.046875zm-2.078125 16.109375l-1.265625 0l0 -0.4375l-3.03125 0l0 0.734375l-1.265625 0l0 -6.015625l5.5625 0l0 5.71875zm0.671875 -13.65625l0 1.40625l-6.984375 0l0 -1.40625l6.984375 0zm-1.046875 -2.671875l0 1.40625l-4.890625 0l0 -1.40625l4.890625 0zm0 5.265625l0 1.421875l-4.890625 0l0 -1.421875l4.890625 0zm0 2.609375l0 1.40625l-4.890625 0l0 -1.40625l4.890625 0zm-0.890625 3.921875l-3.03125 0l0 2.90625l3.03125 0l0 -2.90625zm6.6875 0.453125q1.265625 -1.484375 1.921875 -3.125l-3.625 0q0.59375 1.78125 1.703125 3.125zm7.421875 3.046875q3.640625 -2.234375 3.5625 -7.125l1.703125 0.296875q0.21875 0.21875 -0.140625 0.4375l-0.375 2.671875q1.109375 1.34375 2.890625 2.296875l0 -7.1875l-5.046875 0l0 -1.421875l11.203125 0l0 1.421875l-4.671875 0l0 2.734375l5.203125 0l0 1.421875l-5.203125 0l0 3.5625q1.109375 0.296875 2.234375 0.296875l4.890625 0l-0.296875 1.40625l-4.59375 0q-4.3125 0 -7.0625 -3.125q-1.109375 2.453125 -3.109375 3.71875l-1.1875 -1.40625zm9.046875 -13.59375l6.828125 0l0 3.9375l-1.484375 0l0 -2.515625l-12.3125 0l0 2.671875l-1.484375 0l0 -4.09375l6.75 0l0 -2.140625l1.640625 0q0.734375 0.140625 0.0625 0.59375l0 1.546875zm23.90625 13.0l-6.453125 0q-1.859375 0 -1.859375 -1.9375l0 -4.0l-5.9375 0l0 -1.640625l5.9375 0l0 -3.40625l-4.53125 0l0 -1.640625l11.796875 0l0 1.640625l-5.5625 0l0 3.40625l7.421875 0l0 1.640625l-7.421875 0l0 3.40625q0 0.890625 0.8125 0.890625l5.875 0l-0.078125 1.640625zm2.7421875 -5.875l0 -1.625l16.546875 0l0 1.625l-16.546875 0zm27.757812 1.71875q-3.9375 -2.015625 -6.453125 -2.671875l0 7.71875l-1.703125 0l0 -14.84375l1.484375 0q0.890625 0.0625 0.21875 0.59375l0 4.671875q3.640625 1.03125 7.34375 2.8125l-0.890625 1.71875zm-0.140625 -6.53125q-1.265625 -1.5625 -2.53125 -2.53125l0.96875 -0.734375q1.265625 0.953125 2.515625 2.515625l-0.953125 0.75zm1.78125 -1.421875q-0.96875 -1.25 -2.453125 -2.4375l0.96875 -0.75q1.25 0.890625 2.4375 2.453125l-0.953125 0.734375z" fill-rule="nonzero"/><path fill="#000000" fill-opacity="0.0" d="m394.11548 292.80316c-12.339447 1.5774231 -17.16446 9.650024 -74.03674 9.464569c-56.872253 -0.18548584 -222.66403 -8.814545 -267.19684 -10.577454" fill-rule="evenodd"/><path stroke="#ffffff" stroke-width="1.0" stroke-linejoin="round" stroke-linecap="butt" d="m394.11548 292.80316c-12.339447 1.5774231 -17.16446 9.650024 -74.03674 9.464569c-56.872253 -0.18548584 -222.66403 -8.814545 -267.19684 -10.577454" fill-rule="evenodd"/><path fill="#000000" fill-opacity="0.0" d="m309.73358 271.75067l56.0 0l0 35.55905l-56.0 0z" fill-rule="evenodd"/><path fill="#ffffff" d="m325.4992 286.03503l-2.515625 0l0 7.515625l-1.171875 0l0 -7.515625l-2.515625 0l0 -0.984375l6.203125 0l0 0.984375zm6.702881 7.515625l-4.828125 0l0 -8.5l4.828125 0l0 0.96875l-3.671875 0l0 2.640625l3.53125 0l0 0.96875l-3.53125 0l0 2.9375l3.671875 0l0 0.984375zm7.6716003 -2.296875q0 0.59375 -0.25 1.0625q-0.234375 0.453125 -0.6875 0.75q-0.4375 0.296875 -1.0625 0.453125q-0.625 0.140625 -1.359375 0.140625q-0.34375 0 -0.6875 -0.03125q-0.328125 -0.015625 -0.640625 -0.0625q-0.3125 -0.03125 -0.59375 -0.078125q-0.265625 -0.046875 -0.484375 -0.109375l0 -1.125q0.484375 0.1875 1.09375 0.296875q0.609375 0.09375 1.390625 0.09375q0.5625 0 0.953125 -0.078125q0.390625 -0.09375 0.640625 -0.265625q0.25 -0.171875 0.359375 -0.421875q0.125 -0.25 0.125 -0.5625q0 -0.34375 -0.203125 -0.59375q-0.1875 -0.25 -0.5 -0.4375q-0.3125 -0.1875 -0.71875 -0.34375q-0.390625 -0.171875 -0.8125 -0.328125q-0.40625 -0.171875 -0.8125 -0.375q-0.40625 -0.203125 -0.71875 -0.46875q-0.3125 -0.265625 -0.5 -0.625q-0.1875 -0.375 -0.1875 -0.875q0 -0.4375 0.171875 -0.859375q0.1875 -0.421875 0.5625 -0.75q0.390625 -0.328125 0.984375 -0.53125q0.609375 -0.203125 1.453125 -0.203125q0.203125 0 0.453125 0.03125q0.265625 0.015625 0.515625 0.046875q0.25 0.03125 0.5 0.078125q0.265625 0.046875 0.46875 0.09375l0 1.046875q-0.5 -0.140625 -1.0 -0.21875q-0.5 -0.078125 -0.96875 -0.078125q-1.0 0 -1.46875 0.34375q-0.46875 0.328125 -0.46875 0.890625q0 0.34375 0.1875 0.59375q0.203125 0.234375 0.515625 0.4375q0.3125 0.1875 0.703125 0.359375q0.40625 0.15625 0.8125 0.328125q0.421875 0.15625 0.828125 0.359375q0.40625 0.203125 0.71875 0.484375q0.3125 0.28125 0.5 0.65625q0.1875 0.359375 0.1875 0.875zm7.609131 -5.21875l-2.515625 0l0 7.515625l-1.171875 0l0 -7.515625l-2.515625 0l0 -0.984375l6.203125 0l0 0.984375z" fill-rule="nonzero"/></g></svg>